<svg width="29" height="29" viewBox="0 0 29 29" fill="none" xmlns="http://www.w3.org/2000/svg">
<path d="M3.625 7.24999H6.04167M6.04167 7.24999H25.375M6.04167 7.24999V24.1667C6.04167 24.8076 6.29628 25.4223 6.74949 25.8755C7.2027 26.3287 7.81739 26.5833 8.45833 26.5833H20.5417C21.1826 26.5833 21.7973 26.3287 22.2505 25.8755C22.7037 25.4223 22.9583 24.8076 22.9583 24.1667V7.24999M9.66667 7.24999V4.83332C9.66667 4.19238 9.92128 3.57769 10.3745 3.12448C10.8277 2.67127 11.4424 2.41666 12.0833 2.41666H16.9167C17.5576 2.41666 18.1723 2.67127 18.6255 3.12448C19.0787 3.57769 19.3333 4.19238 19.3333 4.83332V7.24999M12.0833 13.2917V20.5417M16.9167 13.2917V20.5417" stroke="#1E1E1E" stroke-width="4" stroke-linecap="round" stroke-linejoin="round"/>
</svg>
