<svg width="528" height="87" viewBox="0 0 528 87" fill="none" xmlns="http://www.w3.org/2000/svg">
<rect width="528" height="87" rx="10" fill="#013D5A"/>
<path d="M67.5996 46.4258V46.6406H69.1035L70.1777 46.748C70.1777 46.4437 70.3568 46.1572 70.7148 45.8887V45.7812H70.6074C70.3747 45.7812 69.3721 45.9961 67.5996 46.4258ZM61.0469 61.0352V61.25C61.8883 62.1094 63.4281 62.7181 65.666 63.0762H65.8809C67.4564 62.6465 68.2441 61.6797 68.2441 60.1758V60.0684C66.8477 59.0658 65.4154 58.5645 63.9473 58.5645C63.2311 58.5645 62.4076 59.3164 61.4766 60.8203C61.2975 60.9635 61.1543 61.0352 61.0469 61.0352ZM46.1152 58.457C46.1152 59.1732 46.724 60.9635 47.9414 63.8281C47.9414 64.1683 48.8366 65.2425 50.627 67.0508C51.4326 68.2503 52.6859 69.2887 54.3867 70.166C55.819 71.6699 57.0007 72.4219 57.9316 72.4219H58.8984C59.3281 72.4219 60.1517 72.3503 61.3691 72.207C61.763 72.207 62.873 72.2786 64.6992 72.4219C65.863 72.3324 66.4717 72.2607 66.5254 72.207C66.6686 72.2786 66.776 72.3145 66.8477 72.3145C67.5101 72.1712 67.9756 71.9922 68.2441 71.7773L68.7812 71.8848C69.0319 71.8848 69.748 71.2044 70.9297 69.8438C70.7865 69.7721 70.679 69.7363 70.6074 69.7363C70.0345 69.9512 68.3158 70.2376 65.4512 70.5957C64.8245 70.3092 63.5355 70.0944 61.584 69.9512C59.8831 69.611 58.0928 68.7158 56.2129 67.2656C55.4967 66.8001 54.6374 66.4779 53.6348 66.2988C52.9365 65.5111 51.8981 64.6159 50.5195 63.6133C49.4453 61.5902 48.9082 59.585 48.9082 57.5977C48.4785 55.8789 48.2637 54.554 48.2637 53.623C48.2637 53.2829 48.5859 51.958 49.2305 49.6484C47.6549 50.4183 46.8672 51.5999 46.8672 53.1934C46.3659 54.2139 46.1152 55.9684 46.1152 58.457ZM61.9868 54.6167C62.1838 54.0259 62.7298 53.1934 63.625 52.1191C64.556 52.3161 66.3822 52.4593 69.1035 52.5488L69.6406 52.4414L69.8555 52.5488C70.0882 52.5488 71.807 52.2624 75.0117 51.6895C75.9427 51.6895 76.8021 52.4414 77.5898 53.9453C77.9479 54.2497 78.127 54.6077 78.127 55.0195C77.9121 56.2012 77.8047 56.9531 77.8047 57.2754C77.9479 58.8151 78.0195 59.6387 78.0195 59.7461C78.0195 60.498 77.2676 62.0736 75.7637 64.4727C75.7637 64.6517 75.6562 65.0814 75.4414 65.7617V65.9766L75.6562 66.2988C75.6562 67.194 74.9401 68.0534 73.5078 68.877L69.748 72.7441C68.5664 73.7467 67.4922 74.4987 66.5254 75C66.2747 74.7852 65.6302 74.6419 64.5918 74.5703L62.9805 74.7852L59.6504 74.5703C58.9521 74.7135 57.9137 74.7852 56.5352 74.7852H56.3203C55.2282 74.6419 53.9391 73.89 52.4531 72.5293C52.3278 72.2965 51.4684 71.6878 49.875 70.7031C49.0872 69.4141 47.9772 68.0892 46.5449 66.7285C46.2943 66.4242 46.0436 65.6364 45.793 64.3652C44.7904 62.7718 44.2891 61.2679 44.2891 59.8535C44.3607 59.7282 44.3965 59.585 44.3965 59.4238C44.3965 59.2627 44.3607 59.1195 44.2891 58.9941C44.4323 57.1859 44.8978 54.8584 45.6855 52.0117C46.9567 50.0602 48.7113 48.5205 50.9492 47.3926C52.3099 45.1367 54.0645 43.597 56.2129 42.7734C57.7168 41.1979 60.5814 39.9805 64.8066 39.1211C65.0036 39.1211 67.0088 38.8346 70.8223 38.2617L71.4668 38.3691H71.7891C71.9502 38.3691 72.0934 38.3333 72.2188 38.2617C73.4004 38.2617 74.2598 38.6556 74.7969 39.4434V39.5508C74.1165 40.2669 73.5436 40.625 73.0781 40.625C72.6842 40.0521 71.8965 39.7656 70.7148 39.7656C69.1393 39.9089 67.3132 40.1953 65.2363 40.625C65.1647 40.625 65.1289 40.5892 65.1289 40.5176C63.7503 40.5355 61.3154 41.3232 57.8242 42.8809C56.571 43.9193 54.888 45.1367 52.7754 46.5332C51.2715 48.3236 50.5195 50.1497 50.5195 52.0117C50.6628 53.5872 50.806 54.7331 50.9492 55.4492L50.8418 55.6641C50.8418 57.2217 51.3431 59.1911 52.3457 61.5723C54.5479 63.3626 56.5889 64.7949 58.4688 65.8691C59.3281 66.818 60.7604 67.5342 62.7656 68.0176C64.5202 68.5189 66.4896 68.7695 68.6738 68.7695H69.748C72.8991 68.2324 74.4746 67.194 74.4746 65.6543L76.623 61.25C76.623 60.8561 76.6589 60.4622 76.7305 60.0684L76.4082 58.457C76.5514 57.7051 76.623 57.2396 76.623 57.0605L76.5156 56.8457C76.5872 56.7025 76.623 56.5951 76.623 56.5234C76.623 55.7536 76.265 55.1807 75.5488 54.8047C75.0117 54.0169 74.3672 53.623 73.6152 53.623C70.3747 54.1243 68.5485 54.375 68.1367 54.375C67.7607 54.3034 67.3311 54.2676 66.8477 54.2676H66.7402C66.6686 54.2676 66.3822 54.3392 65.8809 54.4824H64.377V56.416H64.4844C66.2926 56.416 68.083 57.168 69.8555 58.6719C69.8555 59.7103 69.1751 61.2858 67.8145 63.3984L65.4512 64.5801C64.7887 64.3652 63.6429 64.1146 62.0137 63.8281L61.4766 63.9355C59.6146 63.2015 58.6836 62.4137 58.6836 61.5723C58.6836 61.4111 58.2897 60.8024 57.502 59.7461C56.7858 57.723 56.4277 55.5745 56.4277 53.3008C57.0902 50.8659 57.8063 49.2188 58.5762 48.3594C59.1312 47.679 61.208 46.9271 64.8066 46.1035C66.2926 45.2441 68.4769 44.4922 71.3594 43.8477C72.5052 43.8477 73.0781 43.5612 73.0781 42.9883C73.8838 41.8962 74.7432 40.5355 75.6562 38.9062C75.7816 38.8346 75.9248 38.7988 76.0859 38.7988H76.1934V38.9062C75.6921 40.0879 75.1191 42.1289 74.4746 45.0293C73.9733 45.6738 73.5436 45.9961 73.1855 45.9961C73.1855 45.8887 73.0781 45.7812 72.8633 45.6738H72.4336C71.5921 46.9092 70.5895 48.0908 69.4258 49.2188C69.0856 48.8607 67.6891 48.6458 65.2363 48.5742C64.3053 48.7891 63.8398 49.0397 63.8398 49.3262H63.5176C63.446 49.3262 63.4102 49.2904 63.4102 49.2188C62.9268 49.4157 61.9958 49.6663 60.6172 49.9707L60.5098 49.7559L60.832 49.2188C60.7604 49.2188 60.7246 49.1829 60.7246 49.1113C59.2923 49.2367 58.5762 49.8454 58.5762 50.9375C58.4688 51.582 58.3613 51.9043 58.2539 51.9043C58.2539 51.9401 58.2897 52.0833 58.3613 52.334C58.3613 54.751 58.6299 56.604 59.167 57.8931C59.722 56.8188 60.6619 55.7267 61.9868 54.6167ZM59.4624 58.4839C59.6056 58.7524 59.7757 58.9941 59.9727 59.209C60.277 60.14 60.5277 60.6771 60.7246 60.8203C60.7783 60.8203 61.3154 60.0684 62.3359 58.5645V57.168C62.1211 56.4697 62.0137 55.861 62.0137 55.3418V55.1807C61.2796 56.7025 60.4292 57.8035 59.4624 58.4839ZM94.5625 33.2129C95.9232 33.7858 96.7826 34.0723 97.1406 34.0723H98.2148L98.8594 33.9648L99.0742 34.0723C99.5576 34.0007 99.9515 33.9648 100.256 33.9648H100.363C101.563 34.0365 102.78 34.681 104.016 35.8984C105 35.8984 105.967 38.584 106.916 43.9551C107.185 44.5459 107.722 46.2288 108.527 49.0039C111.553 54.6077 113.522 58.654 114.436 61.1426C115.08 62.36 115.402 63.3268 115.402 64.043C115.402 64.1146 115.367 64.1504 115.295 64.1504L115.617 64.6875V64.7949C115.205 65.0635 114.991 65.3141 114.973 65.5469L115.188 65.9766C115.188 66.0661 114.937 66.4958 114.436 67.2656L113.898 67.1582L109.924 72.959C109.44 74.1048 108.868 74.6777 108.205 74.6777L107.99 74.8926C107.578 74.7493 106.683 74.6777 105.305 74.6777V74.7852C105.233 74.7852 105.197 74.7493 105.197 74.6777L101.76 75C101.402 74.9463 101.223 74.8389 101.223 74.6777V74.248C101.366 73.7288 101.438 73.4424 101.438 73.3887C100.148 71.1686 99.5039 69.8438 99.5039 69.4141V69.1992C98.5908 69.5573 97.4808 69.8438 96.1738 70.0586C94.6341 70.0586 92.8079 69.9512 90.6953 69.7363C89.6569 70.918 88.8333 72.1712 88.2246 73.4961H87.4727C87.0072 72.9948 86.3626 72.7441 85.5391 72.7441C84.5007 72.7441 82.8177 73.2454 80.4902 74.248C80.347 74.069 80.2754 73.9258 80.2754 73.8184C80.2754 72.1891 81.1348 69.0023 82.8535 64.2578C83.498 61.2858 84.5007 57.168 85.8613 51.9043C85.915 50.6152 85.9867 49.9707 86.0762 49.9707C86.4342 49.9707 86.7923 49.4336 87.1504 48.3594C87.1504 48.0371 87.0788 47.7148 86.9355 47.3926C87.5085 46.8376 87.7949 46.3721 87.7949 45.9961L88.9766 43.2031C90.3551 40.7324 91.3577 38.4408 91.9844 36.3281C92.4141 35.6657 92.7363 35.057 92.9512 34.502H93.0586L93.5957 34.6094C93.8822 33.6784 94.2044 33.2129 94.5625 33.2129ZM94.2402 37.0801L91.4473 48.252C90.6595 51.0807 88.9408 55.9147 86.291 62.7539C85.8613 64.2399 85.6465 65.0635 85.6465 65.2246C86.0762 65.3141 86.291 65.4215 86.291 65.5469C86.5059 65.5469 86.6133 65.5111 86.6133 65.4395C87.3294 65.5111 87.8665 65.5469 88.2246 65.5469H88.7617C91.3398 65.5469 92.6289 65.153 92.6289 64.3652C92.6289 63.8639 93.0228 62.4674 93.8105 60.1758C94.4372 60.2474 94.7952 60.2832 94.8848 60.2832C96.5319 60.2832 98.3939 60.0684 100.471 59.6387H101.008C101.079 59.6387 101.115 59.6029 101.115 59.5312L101.33 59.6387C102.512 59.4954 103.299 59.4238 103.693 59.4238C104.624 59.4238 105.09 59.7819 105.09 60.498C105.34 63.6491 105.806 65.2246 106.486 65.2246H106.594C107.811 65.0814 108.527 65.0098 108.742 65.0098C109.709 65.153 110.318 65.2246 110.568 65.2246L113.576 64.5801H113.791V64.2578C112.788 62.6644 112.001 61.1247 111.428 59.6387C110.515 58.7614 109.655 57.3649 108.85 55.4492C108.151 54.7868 107.041 52.2087 105.52 47.7148C104.947 45.7275 104.66 44.2952 104.66 43.418C103.55 39.9805 102.691 38.0827 102.082 37.7246C102.082 37.4561 101.294 37.277 99.7188 37.1875C98.7161 37.2591 97.8568 37.2949 97.1406 37.2949V37.4023L96.9258 37.2949H96.3887C95.5114 37.1517 94.7952 37.0801 94.2402 37.0801ZM87.4727 50.293C87.2936 50.293 86.8639 51.7253 86.1836 54.5898C85.6286 56.1475 84.7692 59.585 83.6055 64.9023C83.319 65.6185 83.0326 66.6211 82.7461 67.9102H82.8535C83.7845 67.6058 84.25 66.6748 84.25 65.1172C84.805 64.401 85.5212 62.5033 86.3984 59.4238C87.0967 58.0094 87.9202 55.861 88.8691 52.9785C89.8717 50.9912 90.9818 46.6585 92.1992 39.9805V39.7656C91.501 40.6429 89.9255 44.152 87.4727 50.293ZM99.0742 40.9473C99.3607 41.2516 99.5039 41.5381 99.5039 41.8066C99.3607 42.5765 99.2891 43.0778 99.2891 43.3105C100.507 44.0625 101.115 44.7786 101.115 45.459C101.975 48.6637 102.655 50.8838 103.156 52.1191C103.156 52.7995 102.906 53.6947 102.404 54.8047C102.404 55.1986 102.225 55.485 101.867 55.6641C101.688 55.5208 101.545 55.4492 101.438 55.4492C100.077 55.4492 98.179 55.8789 95.7441 56.7383C95.4219 56.7383 95.1712 56.5234 94.9922 56.0938C95.7083 53.5335 96.3171 50.9196 96.8184 48.252C97.0153 47.8044 97.266 47.0166 97.5703 45.8887C97.4271 45.6201 97.3555 45.3337 97.3555 45.0293C97.3555 44.5996 97.4987 44.3848 97.7852 44.3848V43.8477C97.7852 42.8092 98.2148 41.8424 99.0742 40.9473ZM98.3223 46.4258C97.821 48.3057 97.3913 50.4183 97.0332 52.7637V52.8711H97.7852C99.9336 52.6204 101.008 52.3698 101.008 52.1191V51.9043C100.148 48.3952 99.4681 46.6406 98.9668 46.6406L98.6445 46.4258H98.3223ZM94.1328 63.1836C93.6315 64.3652 93.3809 65.2962 93.3809 65.9766V66.6211H93.4883C93.9896 66.6211 94.3835 66.6927 94.6699 66.8359C94.8132 66.8359 94.8848 66.8001 94.8848 66.7285L95.959 66.8359H97.1406L97.7852 66.7285C97.9105 66.8001 98.0537 66.8359 98.2148 66.8359C100.363 66.7106 101.438 66.2809 101.438 65.5469C102.368 63.4342 102.834 62.3242 102.834 62.2168H102.727C101.652 62.2168 99.0026 62.5391 94.7773 63.1836H94.1328ZM102.512 65.7617L102.619 66.2988C102.619 66.5495 102.297 66.9792 101.652 67.5879C101.652 68.3219 101.975 69.0381 102.619 69.7363L104.66 66.1914L104.016 63.1836C103.013 63.9355 102.512 64.7949 102.512 65.7617ZM109.279 67.6953H109.064C108.903 67.5879 108.617 67.4805 108.205 67.373C105.699 67.373 104.445 67.6953 104.445 68.3398L102.941 70.918C103.282 71.9206 103.604 72.4219 103.908 72.4219C104.266 72.2786 104.553 72.207 104.768 72.207L109.064 73.0664C109.691 71.9027 110.944 69.9691 112.824 67.2656V66.9434L109.279 67.6953ZM84.5723 68.125L83.8203 69.7363H83.9277L85.5391 69.5215L85.9688 69.6289L86.5059 69.5215C87.8665 69.6468 88.6185 69.8258 88.7617 70.0586C89.3167 69.611 89.818 69.0381 90.2656 68.3398L90.0508 68.2324H89.9434C89.7822 68.2324 89.639 68.2682 89.5137 68.3398C89.4421 68.3398 89.4062 68.304 89.4062 68.2324L88.1172 68.3398H87.1504C86.1299 68.1966 85.2705 68.125 84.5723 68.125ZM102.753 10.9229C104.759 11.1914 105.761 11.8001 105.761 12.749C106.406 15.8105 106.728 17.7799 106.728 18.6572C106.728 19.1585 106.549 20.1253 106.191 21.5576C106.334 21.9157 106.442 22.0947 106.513 22.0947C106.513 22.3096 105.546 23.8851 103.613 26.8213C103.613 26.9824 102.897 28.1999 101.464 30.4736C101.464 31.2256 101.214 32.0492 100.712 32.9443C100.641 32.9443 100.426 32.8011 100.068 32.5146C100.068 32.64 99.8172 32.8548 99.3159 33.1592C99.1906 32.9801 98.5461 32.5146 97.3823 31.7627C97.3823 31.6732 96.4155 30.8138 94.4819 29.1846C92.6379 26.696 91.6711 24.6191 91.5815 22.9541C91.5815 20.8594 92.7274 17.7083 95.019 13.501C97.4897 11.9971 98.8504 11.2451 99.1011 11.2451C99.7993 11.1019 101.017 10.9945 102.753 10.9229ZM96.5229 15.3271V16.0791C96.5229 19.1764 97.991 21.2891 100.927 22.417C101.142 22.3454 101.25 22.2738 101.25 22.2021L101.787 22.3096H102.109C104.615 22.041 105.869 21.1816 105.869 19.7314V19.0869C105.475 15.721 104.866 14.0381 104.042 14.0381C104.042 13.9307 103.362 13.7874 102.001 13.6084C99.1369 13.8053 97.7046 14.1276 97.7046 14.5752C96.9168 14.5752 96.5229 14.8258 96.5229 15.3271ZM100.605 14.3604H101.357C102.145 14.6289 102.539 15.3092 102.539 16.4014V16.5088C102.198 19.3734 101.482 20.8057 100.39 20.8057C99.5308 20.8057 99.1011 19.9105 99.1011 18.1201C99.1011 16.652 99.6024 15.3988 100.605 14.3604ZM95.019 16.2939C93.6584 19.248 92.9064 20.9668 92.7632 21.4502C93.4614 24.0999 94.7147 26.1051 96.5229 27.4658C97.6688 28.4147 98.564 29.3457 99.2085 30.2588H99.3159C100.838 27.9492 102.091 26.2305 103.076 25.1025C103.183 25.1025 103.326 24.9593 103.505 24.6729V24.5654H103.291C103.022 24.5654 102.163 24.7803 100.712 25.21H100.498C99.5487 25.013 98.367 24.2969 96.9526 23.0615C96.2365 22.417 95.6994 21.0563 95.3413 18.9795C95.1981 18.2096 95.1265 17.6009 95.1265 17.1533L95.2339 16.4014L95.019 16.2939ZM100.283 17.4756L100.605 17.6904C100.981 17.6904 101.232 17.5472 101.357 17.2607C101.088 17.0459 100.874 16.9385 100.712 16.9385C100.426 17.0101 100.283 17.1891 100.283 17.4756ZM138.525 37.6172C140.19 38.3333 141.3 38.6914 141.855 38.6914C141.855 38.763 142.356 38.7988 143.359 38.7988H144.003L144.755 38.9062V38.7988C147.692 39.515 150.234 39.873 152.382 39.873H152.597C152.902 39.873 153.188 39.8372 153.457 39.7656L153.994 39.873L155.498 39.7656C156.07 39.7656 157.288 40.0163 159.15 40.5176C159.58 40.8398 160.081 41.1263 160.654 41.377C160.725 41.5023 160.761 41.6455 160.761 41.8066V42.2363C160.564 42.4691 160.278 44.0088 159.902 46.8555L160.009 47.2852C159.436 48.252 159.15 48.8607 159.15 49.1113L158.72 49.0039C158.38 49.2008 157.27 49.4157 155.39 49.6484C155.283 49.7917 154.781 49.9349 153.886 50.0781V53.9453C154.101 57.5439 154.423 61.1247 154.853 64.6875L154.746 65.332V65.5469C154.746 66.2272 154.71 67.0508 154.638 68.0176L154.746 68.4473C154.746 70.6494 154.423 71.9027 153.779 72.207V72.4219H153.671C152.543 72.4219 151.505 72.6367 150.556 73.0664C150.27 72.9948 150.019 72.959 149.804 72.959C149.106 73.4066 147.602 73.8005 145.292 74.1406C144.899 74.069 144.576 74.0332 144.326 74.0332C144.326 74.1764 144.254 74.248 144.111 74.248C143.932 74.248 143.789 73.9616 143.681 73.3887H143.359C143.251 73.3887 142.75 73.9258 141.855 75H141.64C141.64 74.4987 141.425 74.248 140.996 74.248C140.924 74.1227 140.888 73.9795 140.888 73.8184C140.888 71.9743 140.817 70.721 140.673 70.0586L140.781 69.8438C140.208 63.3089 139.671 58.9404 139.169 56.7383C139.313 56.5055 139.384 56.2907 139.384 56.0938V55.7715H139.277C137.809 55.9147 136.806 55.9863 136.269 55.9863H135.41C133.834 55.5924 133.046 54.9837 133.046 54.1602C133.046 53.0859 134.3 51.0807 136.806 48.1445C136.878 47.1419 136.949 46.6048 137.021 46.5332L136.914 46.3184C136.985 45.0293 137.2 43.2389 137.558 40.9473L137.343 40.8398H137.128C135.696 41.7887 134.55 43.1136 133.691 44.8145V45.1367C133.691 45.3695 133.727 45.5485 133.798 45.6738L133.691 46.3184V46.4258C133.691 46.6406 133.727 46.748 133.798 46.748C133.512 50.9733 133.19 53.0859 132.832 53.0859V53.1934H132.509L132.402 52.5488C132.473 50.2751 132.509 48.6279 132.509 47.6074C132.509 46.9808 132.438 45.9424 132.294 44.4922C132.76 43.0062 133.082 42.2184 133.261 42.1289H133.476C133.476 42.3438 133.548 42.4512 133.691 42.4512C135.338 39.9089 136.52 38.5482 137.236 38.3691H137.773C137.773 38.0469 138.024 37.7962 138.525 37.6172ZM138.632 41.5918C138.203 42.3796 137.916 43.7044 137.773 45.5664C137.845 45.9424 137.88 46.3005 137.88 46.6406V46.9629C139.08 47.8939 140.655 48.3594 142.607 48.3594C143.466 48.3594 143.896 48.0729 143.896 47.5C143.914 47.3568 143.986 47.2852 144.111 47.2852H144.326C144.72 47.8581 144.97 48.1445 145.078 48.1445C145.561 48.0729 145.955 48.0371 146.259 48.0371H146.474V48.1445C146.277 48.9323 146.098 49.3262 145.937 49.3262L146.044 49.541C146.044 49.7559 145.722 50.1139 145.078 50.6152V54.0527C145.078 54.3929 145.042 54.751 144.97 55.127C145.042 55.4134 145.078 55.6641 145.078 55.8789C144.433 61.5007 144.111 64.9382 144.111 66.1914V66.6211C144.111 69.2708 144.29 70.5957 144.648 70.5957C145.149 70.7389 145.579 70.8105 145.937 70.8105H147.226C148.032 70.8105 149.822 70.5957 152.597 70.166L153.242 70.2734C153.51 70.2734 153.725 70.166 153.886 69.9512L153.779 68.6621V67.2656C153.779 67.0329 153.815 66.8538 153.886 66.7285C153.17 60.7308 152.74 57.4365 152.597 56.8457L152.705 55.8789C152.705 55.5745 152.633 55.2165 152.49 54.8047C152.49 51.6536 153.027 48.9323 154.101 46.6406L154.316 46.5332H155.498C155.963 46.5332 156.429 46.569 156.894 46.6406C157.181 46.569 157.467 46.5332 157.753 46.5332L159.042 46.6406V46.2109C159.042 45.9782 159.114 45.4769 159.257 44.707H159.15C159.293 44.1699 159.365 43.4896 159.365 42.666H157.646C157.395 42.666 157.073 42.7018 156.679 42.7734C156.59 42.7018 156.339 42.666 155.927 42.666H155.712C155.641 42.666 155.605 42.7018 155.605 42.7734L155.39 42.666C154.423 42.7376 153.707 42.7734 153.242 42.7734V42.8809C153.098 42.8092 152.991 42.7734 152.919 42.7734C152.526 42.7734 151.988 42.8451 151.308 42.9883C151.236 42.9883 151.201 42.9525 151.201 42.8809L150.449 42.9883H149.375C149.088 42.9883 148.623 42.9167 147.978 42.7734C147.906 42.7734 147.871 42.8092 147.871 42.8809C146.295 42.4512 143.645 42.1289 139.921 41.9141C139.545 41.7171 139.152 41.6097 138.74 41.5918H138.632ZM134.98 52.4414V52.7637C135.445 52.9069 135.768 52.9785 135.947 52.9785H136.591C137.88 52.9785 139.134 52.9069 140.351 52.7637C140.638 52.9069 140.852 52.9785 140.996 52.9785C141.336 52.8174 141.694 52.3161 142.07 51.4746C141.998 51.3314 141.962 51.224 141.962 51.1523H141.21L140.566 51.0449L140.351 51.1523C138.793 50.7227 137.862 50.5078 137.558 50.5078C136.77 50.7764 135.911 51.4209 134.98 52.4414ZM140.781 55.7715C141.497 62.8613 141.855 67.946 141.855 71.0254L141.748 71.9922L141.855 72.207C141.783 72.3324 141.748 72.4756 141.748 72.6367V72.7441C141.855 72.7441 141.998 72.6009 142.177 72.3145V71.5625C142.177 71.0612 142.356 70.8105 142.714 70.8105L143.144 71.0254C143.144 70.9538 143.18 70.918 143.251 70.918L143.144 70.166V69.7363C143.144 68.9128 143.108 68.1608 143.037 67.4805C143.681 61.3395 144.003 57.3649 144.003 55.5566C144.003 54.8584 143.968 53.5693 143.896 51.6895L143.681 51.582C142.088 53.6768 141.121 55.0732 140.781 55.7715ZM170.053 32.3535C170.698 33.1413 172.452 33.5352 175.317 33.5352C176.767 33.5352 178.45 33.2129 180.366 32.5684L180.473 32.7832V33.1055C180.473 33.3203 180.043 34.1797 179.184 35.6836V35.8984C179.184 36.3639 179.22 36.8294 179.292 37.2949L179.184 37.832L179.292 38.584C179.077 39.9089 178.969 41.2695 178.969 42.666C178.969 43.3822 179.005 44.4564 179.077 45.8887L178.969 46.6406C179.112 47.4284 179.184 48.3236 179.184 49.3262V49.7559C178.951 58.3496 178.665 63.6491 178.325 65.6543C178.325 65.8154 178.361 65.9587 178.432 66.084C178.432 66.818 176.534 69.611 172.739 74.4629L172.094 75H171.879L171.772 74.248V73.8184C171.772 73.2454 172.452 72.2786 173.813 70.918C173.813 70.8464 174.672 69.6647 176.391 67.373V67.0508C172.989 66.9792 171.02 66.9434 170.483 66.9434C170.286 66.9434 169.713 67.9818 168.764 70.0586C170.913 70.363 171.987 70.9717 171.987 71.8848V71.9922C171.79 73.0664 171.396 73.6035 170.805 73.6035H170.698C168.478 73.3171 167.045 73.0306 166.401 72.7441C166.222 72.7441 166.007 71.8848 165.756 70.166V68.9844C165.756 68.8232 165.721 68.68 165.649 68.5547C165.649 68.4831 165.685 68.4473 165.756 68.4473C165.685 67.2656 165.649 66.3704 165.649 65.7617V62.3242C165.649 62.0199 165.613 61.7334 165.542 61.4648C165.613 61.1784 165.649 60.8919 165.649 60.6055V59.5312C165.649 58.7614 165.685 58.2243 165.756 57.9199C165.613 56.2012 165.542 52.9785 165.542 48.252V47.9297L165.649 47.2852C165.506 46.8555 165.434 45.9245 165.434 44.4922V44.0625L166.616 41.0547C168.191 38.4587 168.979 36.8115 168.979 36.1133L168.764 35.791V35.6836C168.764 34.7705 169.086 33.6605 169.731 32.3535H170.053ZM173.813 36.7578H171.02L171.665 45.2441L171.557 45.459V45.5664C171.557 45.7812 171.593 45.8887 171.665 45.8887L171.557 46.5332C171.557 47.9834 171.486 48.986 171.342 49.541C171.414 50.0244 171.45 50.4183 171.45 50.7227V51.582C171.45 53.8737 171.378 55.6283 171.235 56.8457L171.342 57.0605L171.235 57.2754L171.342 57.9199C171.199 60.4622 171.127 62.2168 171.127 63.1836H171.235L175.317 63.6133H175.747C176.123 63.6133 176.731 63.5775 177.573 63.5059C177.788 62.6107 177.895 61.6797 177.895 60.7129C177.895 60.3369 177.859 60.0146 177.788 59.7461C177.859 59.0299 177.931 56.4876 178.002 52.1191C178.002 51.5999 177.895 48.7354 177.68 43.5254C177.895 42.111 178.002 41.001 178.002 40.1953H177.895L178.002 39.9805C177.949 38.9242 177.806 38.0648 177.573 37.4023C177.716 36.8652 177.788 36.5788 177.788 36.543C177.716 36.543 177.68 36.5072 177.68 36.4355C175.711 36.6504 174.422 36.7578 173.813 36.7578ZM166.831 43.6328V45.0293C166.831 45.835 166.795 46.8734 166.723 48.1445L166.831 48.3594C166.831 48.431 166.795 48.5384 166.723 48.6816C166.723 49.4694 166.759 50.651 166.831 52.2266C166.759 59.3343 166.723 64.5264 166.723 67.8027C166.866 68.7695 166.938 69.3783 166.938 69.6289V69.9512H167.045C167.135 69.9512 167.314 69.4141 167.583 68.3398C167.726 68.3398 168.37 67.3372 169.516 65.332C169.749 65.1888 169.928 65.1172 170.053 65.1172V63.8281C170.053 63.667 170.017 63.5238 169.946 63.3984C170.161 62.1094 170.268 59.0658 170.268 54.2676V53.5156C170.268 53.1755 170.232 52.8174 170.161 52.4414C170.214 51.8864 170.286 50.5973 170.375 48.5742C170.232 45.083 169.91 41.8604 169.409 38.9062H169.301C168.066 41.001 167.242 42.5765 166.831 43.6328ZM192.585 33.75C192.943 33.75 193.158 33.8932 193.229 34.1797L193.767 34.0723C194.035 34.0723 194.214 34.5378 194.304 35.4688H194.411C194.572 34.6094 194.68 34.1797 194.733 34.1797C194.805 34.1797 194.912 34.1439 195.056 34.0723L195.7 34.1797H195.808C195.879 34.1797 195.915 34.1439 195.915 34.0723L196.13 34.1797H197.956C199.693 34.0365 200.66 33.9648 200.856 33.9648H201.071C201.644 33.9648 201.931 34.5378 201.931 35.6836C201.931 36.3281 201.966 36.8652 202.038 37.2949C201.966 37.4023 201.931 37.6172 201.931 37.9395H202.038L201.931 38.1543C201.931 38.6735 201.966 39.4971 202.038 40.625C202.038 42.8271 201.859 45.7275 201.501 49.3262L201.608 49.7559C201.537 51.0091 201.501 51.7611 201.501 52.0117C201.859 55.7536 202.038 57.9378 202.038 58.5645C202.217 58.7077 202.36 58.7793 202.468 58.7793L206.872 58.457C208.483 58.5286 209.486 58.5645 209.88 58.5645C209.951 58.5645 209.987 58.5286 209.987 58.457L210.524 58.5645H212.028C212.888 58.5645 213.317 58.7077 213.317 58.9941V59.5312C213.461 60.7845 213.64 61.7513 213.854 62.4316L213.747 62.6465V63.3984C214.034 64.4727 214.177 65.0456 214.177 65.1172C213.693 66.1735 212.476 68.3936 210.524 71.7773C210.524 72.3861 210.238 73.138 209.665 74.0332C209.665 74.1048 209.558 74.1764 209.343 74.248C208.483 74.1764 207.839 74.1406 207.409 74.1406C206.89 74.3555 206.568 74.4629 206.442 74.4629C203.721 74.5524 202.36 74.6598 202.36 74.7852L201.608 74.6777H199.567C199.496 74.6777 199.209 74.7493 198.708 74.8926H197.419C197.258 74.8926 197.115 74.9284 196.989 75C196.864 74.9284 196.721 74.8926 196.56 74.8926C196.416 74.8926 196.345 74.9284 196.345 75L195.808 74.8926H194.948C190.437 74.1764 187.966 73.7467 187.536 73.6035L187.429 73.0664C187.644 72.2965 187.751 71.5446 187.751 70.8105C187.751 69.3604 187.644 67.8923 187.429 66.4062L187.536 66.1914C187.447 65.2783 187.375 64.777 187.321 64.6875L187.429 64.043V63.8281C187.429 63.1478 187.393 62.3242 187.321 61.3574C187.321 61.2858 187.357 61.1784 187.429 61.0352L187.106 54.5898C187.106 54.5182 187.142 54.4108 187.214 54.2676L187.106 53.1934C187.106 52.4056 187.071 50.0781 186.999 46.2109L186.892 45.459C186.963 45.3158 186.999 45.2083 186.999 45.1367C186.927 44.7428 186.892 44.349 186.892 43.9551C187.429 42.1647 187.858 41.2337 188.181 41.1621C188.413 41.3053 188.628 41.377 188.825 41.377H188.933C190.58 38.3154 191.403 36.5609 191.403 36.1133C191.94 34.5378 192.334 33.75 192.585 33.75ZM197.849 36.8652C197.365 36.7936 196.971 36.7578 196.667 36.7578H194.304C194.375 37.9395 194.411 38.8346 194.411 39.4434V40.5176C194.196 42.0931 194.089 43.9551 194.089 46.1035V48.1445C194.089 48.4847 194.053 48.8428 193.981 49.2188C194.053 49.4873 194.089 49.8096 194.089 50.1855V52.4414C194.089 52.6025 194.125 52.7458 194.196 52.8711C194.196 52.9427 194.16 52.9785 194.089 52.9785L194.196 54.2676V54.6973C194.196 55.0016 194.16 55.3955 194.089 55.8789C194.089 55.9505 194.125 55.9863 194.196 55.9863L194.089 57.0605V59.1016C194.089 60.3548 193.91 62.2168 193.552 64.6875H194.519C201.949 65.1888 206.532 65.5469 208.269 65.7617C210.56 65.7617 212.207 65.5111 213.21 65.0098C213.21 64.5264 212.959 62.9867 212.458 60.3906H211.169C210.417 60.3906 209.271 60.4264 207.731 60.498V60.6055L207.517 60.498L201.823 61.25C201.25 61.25 200.964 60.4264 200.964 58.7793C200.463 56.0579 200.212 54.3392 200.212 53.623V51.9043C200.212 50.3646 200.319 48.7891 200.534 47.1777C200.463 46.5511 200.427 46.1572 200.427 45.9961C200.498 44.4564 200.534 43.3822 200.534 42.7734L200.427 42.3438C200.427 42.2721 200.463 42.2363 200.534 42.2363C200.463 41.5918 200.391 39.873 200.319 37.0801C200.212 36.7936 200.104 36.6504 199.997 36.6504H199.567C198.726 36.6504 198.153 36.722 197.849 36.8652ZM188.503 46.1035L188.61 46.748V47.2852C188.61 48.0729 188.575 48.4668 188.503 48.4668C188.575 49.2008 188.61 49.7738 188.61 50.1855V54.4824L188.718 55.127L188.61 55.3418C188.61 55.3955 188.646 55.682 188.718 56.2012C188.718 56.7025 188.682 56.9889 188.61 57.0605C188.682 58.2601 188.718 59.1911 188.718 59.8535V64.7949L188.61 65.4395C188.754 65.7617 188.825 66.2272 188.825 66.8359V68.9844C188.825 69.056 188.861 69.0918 188.933 69.0918L188.825 69.3066V69.4141H189.147C190.061 67.4089 191.171 66.084 192.478 65.4395C192.764 63.7386 192.907 62.5212 192.907 61.7871C192.907 61.2321 192.871 60.7308 192.8 60.2832C192.871 59.5312 192.907 58.7077 192.907 57.8125V57.5977C192.907 56.1654 192.836 55.4492 192.692 55.4492C192.692 55.3776 192.728 55.3418 192.8 55.3418C192.728 54.0169 192.692 53.0501 192.692 52.4414V49.6484L192.585 49.0039C192.585 48.9323 192.621 48.8965 192.692 48.8965L192.585 47.9297C192.728 44.1341 192.836 42.0215 192.907 41.5918C192.907 41.2874 192.728 39.8551 192.37 37.2949H192.263L188.61 43.9551C188.61 45.3874 188.575 46.1035 188.503 46.1035ZM208.161 68.125C208.036 68.0534 207.893 68.0176 207.731 68.0176H207.302C207.23 68.0176 207.194 68.0534 207.194 68.125C207.069 68.0534 206.711 67.9818 206.12 67.9102C204.527 68.1966 203.417 68.3398 202.79 68.3398C200.158 68.1966 198.404 68.125 197.526 68.125H195.485C194.877 68.125 193.91 68.1608 192.585 68.2324L192.263 67.8027C192.066 67.8027 191.35 68.5547 190.114 70.0586V70.2734C193.104 71.276 198.081 71.7773 205.046 71.7773V71.6699L205.261 71.7773H205.583C205.798 71.7773 205.905 71.7415 205.905 71.6699L206.442 71.7773H206.979C207.445 71.7773 207.91 71.7415 208.376 71.6699C208.627 71.7415 208.985 71.7773 209.45 71.7773C209.504 71.5088 210.184 70.3988 211.491 68.4473C211.491 68.2682 211.634 67.9818 211.921 67.5879V67.373H211.599C210.327 67.8027 209.182 68.0534 208.161 68.125ZM271.137 33.4814C271.334 33.4814 273.268 34.0902 276.938 35.3076C277.332 36.2386 277.941 36.7041 278.764 36.7041H279.086V36.9189C279.086 37.653 278.585 39.9805 277.583 43.9014C277.224 46.39 276.58 48.7891 275.649 51.0986C273.429 57.4186 272.319 61.5007 272.319 63.3447C271.961 66.1019 271.459 68.1071 270.815 69.3604C270.618 69.3604 270.403 69.2887 270.17 69.1455C270.17 69.3962 269.168 70.5062 267.163 72.4756C265.515 73.693 264.692 74.445 264.692 74.7314C264.692 74.8926 264.584 75.1074 264.37 75.376C262.722 74.7314 261.612 74.4092 261.04 74.4092V74.5166C259.392 74.3734 257.96 74.0511 256.743 73.5498C256.599 73.3171 256.528 73.138 256.528 73.0127C256.528 71.0612 257.208 69.4141 258.569 68.0713C259.786 66.2451 260.395 65.2783 260.395 65.1709C259.321 60.0326 258.533 56.9531 258.032 55.9326C257.029 54.0169 256.528 52.9069 256.528 52.6025H256.42C256.241 52.7637 255.991 53.6947 255.668 55.3955C255.096 56.7204 254.809 57.5439 254.809 57.8662C256.027 62.8971 256.635 66.4062 256.635 68.3936C256.635 68.7337 256.492 69.235 256.206 69.8975H256.098C255.633 69.0739 255.06 66.9613 254.379 63.5596C254.021 62.7181 253.806 62.002 253.735 61.4111H253.627C253.251 62.0378 252.786 64.0072 252.231 67.3193C251.658 68.6621 251.3 69.3783 251.157 69.4678H249.975C249.581 69.4678 249.044 70.0765 248.364 71.2939C247.29 72.6367 246.752 73.3529 246.752 73.4424C246.824 73.5856 246.86 73.693 246.86 73.7646C246.735 74.0869 246.52 74.3376 246.215 74.5166H245.571L244.926 74.624C244.711 74.624 243.852 74.266 242.348 73.5498C240.397 73.2633 239.358 73.1201 239.233 73.1201C237.299 72.9232 236.333 72.7083 236.333 72.4756L236.225 72.2607L236.547 70.0049C235.115 65.5648 234.399 61.7692 234.399 58.6182C234.399 56.4697 233.432 51.2061 231.499 42.8271V42.0752C231.875 39.9268 232.268 38.8525 232.68 38.8525H232.895L233.217 39.0674C234.274 37.277 234.918 36.3818 235.151 36.3818L236.01 35.6299C236.404 35.7731 237.908 36.0238 240.522 36.3818V36.2744C241.525 36.2744 242.527 37.098 243.53 38.7451C243.53 39.139 244.318 43.4717 245.893 51.7432L246.323 53.1396H246.538V52.8174C246.538 49.165 247.039 45.835 248.042 42.8271C247.97 42.7018 247.934 42.5586 247.934 42.3975V42.29C248.364 41.2158 249.438 39.7477 251.157 37.8857C251.157 37.7067 251.622 37.098 252.553 36.0596C252.696 35.4867 252.84 35.2002 252.983 35.2002C255.257 35.6299 256.689 36.0238 257.28 36.3818H257.602C257.674 36.3818 257.709 36.346 257.709 36.2744C260.431 36.9189 261.792 37.3844 261.792 37.6709L264.477 49.3799C264.531 49.4336 264.781 50.293 265.229 51.958H265.444V51.0986C265.444 50.1139 265.48 48.8249 265.551 47.2314C265.551 47.1598 265.515 47.124 265.444 47.124L265.551 46.5869C265.551 43.8656 265.301 42.5049 264.799 42.5049C264.943 41.0726 266.661 38.2438 269.956 34.0186C270.332 33.929 270.725 33.75 271.137 33.4814ZM266.84 40.4639C266.84 40.6429 266.876 41.6097 266.948 43.3643C266.59 49.9528 266.124 53.2471 265.551 53.2471V53.3545C265.551 54.0169 265.659 55.0911 265.874 56.5771H265.981C266.5 56.2907 267.073 54.8584 267.7 52.2803C267.986 49.5052 268.38 46.9271 268.881 44.5459C268.881 43.7581 269.311 40.8577 270.17 35.8447H270.063C269.168 36.9548 268.094 38.4945 266.84 40.4639ZM270.815 36.8115C270.099 40.0342 269.741 42.2542 269.741 43.4717C269.741 43.8835 269.383 45.9245 268.667 49.5947C268.667 52.1191 267.879 54.9837 266.303 58.1885C266.142 58.1885 265.891 58.4391 265.551 58.9404C265.301 58.6361 264.835 56.7741 264.155 53.3545C264.155 53.1934 263.653 51.6895 262.651 48.8428C261.863 45.0651 261.183 42.2721 260.61 40.4639C259.894 38.8525 259.536 37.9215 259.536 37.6709C259.357 37.6709 258.712 37.9932 257.602 38.6377H257.495C257.119 38.6377 255.937 38.4229 253.95 37.9932C253.663 37.9932 253.126 39.2106 252.338 41.6455C250.19 48.7354 248.793 53.5335 248.149 56.04C247.451 57.5439 246.985 58.3317 246.752 58.4033H246.645C245.571 55.8252 244.711 52.5309 244.067 48.5205C243.118 43.6507 242.402 40.4997 241.918 39.0674C241.739 38.9242 241.596 38.8525 241.489 38.8525C240.826 39.0674 240.218 39.1748 239.663 39.1748C239.215 39.1748 238.284 39.139 236.87 39.0674C236.744 39.139 236.601 39.1748 236.44 39.1748C237.228 42.8988 238.051 48.1982 238.911 55.0732C239.108 55.6462 239.358 56.6488 239.663 58.0811C240.379 60.6771 240.88 63.0404 241.167 65.1709L241.381 65.2783L243.1 64.9561C245.32 64.9561 247.146 65.3499 248.579 66.1377C249.044 66.2809 249.366 66.3525 249.545 66.3525H250.512C251.228 66.3525 251.73 65.3499 252.016 63.3447C252.428 61.1605 253.323 58.2601 254.702 54.6436C254.899 54.2139 255.364 52.0296 256.098 48.0908C256.277 47.6611 256.42 47.4463 256.528 47.4463H256.958C257.405 49.2367 258.3 51.5999 259.643 54.5361C259.643 54.6077 260.109 56.8278 261.04 61.1963C261.38 63.5596 261.845 64.7412 262.436 64.7412C262.919 64.7412 263.6 65.0277 264.477 65.6006C264.817 65.6006 265.712 65.9945 267.163 66.7822C268.631 66.6748 269.526 66.5674 269.848 66.46L270.063 66.5674H270.815C271.066 66.5674 271.352 64.9202 271.674 61.626C272.283 58.5645 272.892 56.4518 273.5 55.2881C273.787 53.7663 274.431 51.6895 275.434 49.0576C275.721 49.0576 276.544 45.2262 277.905 37.5635C277.797 37.277 277.69 37.1338 277.583 37.1338H277.475C277.224 37.4202 276.831 37.6351 276.293 37.7783C275.201 37.4919 273.662 37.2054 271.674 36.9189C271.674 36.8473 271.567 36.8115 271.352 36.8115H270.815ZM252.446 37.8857C252.446 38.2617 251.407 39.5866 249.331 41.8604C248.042 45.8708 247.397 49.917 247.397 53.999C247.182 53.999 247.003 54.3213 246.86 54.9658C246.931 55.109 246.967 55.2165 246.967 55.2881H247.075C247.415 55.2881 248.095 53.2829 249.116 49.2725C250.709 44.2236 252.034 40.4997 253.09 38.1006C252.858 37.9574 252.643 37.8857 252.446 37.8857ZM233.217 41.2158V41.6455L235.366 53.3545C235.581 55.7357 235.688 57.6335 235.688 59.0479L235.795 59.585C235.724 59.7103 235.688 59.8535 235.688 60.0146C236.189 63.291 236.762 65.9766 237.407 68.0713H237.622C238.982 66.7106 239.877 66.0303 240.307 66.0303H240.737L240.844 65.4932C240.594 65.2604 240.056 63.6491 239.233 60.6592C238.911 60.6592 238.445 58.7972 237.836 55.0732C237.192 50.5257 236.153 45.262 234.721 39.2822H234.614C234.524 39.2822 234.059 39.9268 233.217 41.2158ZM258.032 70.4346V70.7568C262.042 72.0638 264.298 72.8874 264.799 73.2275H265.229C265.874 71.9922 266.518 71.097 267.163 70.542C267.306 70.6136 267.413 70.6494 267.485 70.6494C267.628 70.6494 267.986 70.2197 268.559 69.3604V69.1455H268.452C267.592 69.2887 267.091 69.3604 266.948 69.3604C266.482 69.3604 265.874 69.0739 265.122 68.501H263.833C261.827 67.8385 260.825 67.373 260.825 67.1045V66.8896H260.717C260.109 67.4805 259.213 68.6621 258.032 70.4346ZM239.233 69.1455C239.09 69.0739 238.982 69.0381 238.911 69.0381L238.159 69.79V70.0049C238.248 70.166 239.466 70.4525 241.811 70.8643L244.282 72.0459C244.819 72.3145 245.249 72.5651 245.571 72.7979H245.678C247.397 71.1507 248.256 69.9691 248.256 69.2529C247.093 68.5368 245.839 68.1787 244.497 68.1787C244.21 68.2324 244.067 68.304 244.067 68.3936C243.959 68.3219 243.387 68.2503 242.348 68.1787C240.486 68.2145 239.555 68.501 239.555 69.0381C239.484 69.0381 239.376 69.0739 239.233 69.1455ZM306.237 34.8242H306.667C306.882 34.8242 307.025 35.1107 307.097 35.6836H307.204C308.135 35.6836 308.601 35.9342 308.601 36.4355C307.58 37.0264 307.007 37.4919 306.882 37.832V37.9395L306.345 43.7402C306.488 44.0088 306.56 44.2952 306.56 44.5996V44.9219C306.56 45.4232 306.201 46.0319 305.485 46.748C304.984 46.748 304.733 46.4616 304.733 45.8887H303.337L302.692 45.9961L297.858 45.1367C297.572 45.2083 297.429 45.4232 297.429 45.7812V46.8555L297.321 47.9297C300.956 48.6458 303.212 49.0397 304.089 49.1113C304.375 49.0397 304.662 49.0039 304.948 49.0039H305.378C305.539 49.0039 305.646 48.8249 305.7 48.4668H306.022C306.076 48.4668 306.184 48.5742 306.345 48.7891C306.345 49.1292 306.094 51.2777 305.593 55.2344V55.4492C305.593 55.6104 305.629 55.7536 305.7 55.8789C305.432 57.0247 305.002 57.5977 304.411 57.5977V57.4902C304.25 57.5618 303.426 57.7051 301.94 57.9199C300.383 57.8483 299.273 57.7051 298.61 57.4902H297.858C297.715 57.5081 297.644 57.5798 297.644 57.7051V58.8867C297.644 59.4954 297.608 60.3906 297.536 61.5723C298.485 61.8587 299.523 62.1094 300.651 62.3242L301.081 62.2168C303.391 62.4854 305.002 62.9508 305.915 63.6133L306.022 63.8281L305.808 64.1504V65.4395C304.16 65.0098 303.265 64.7949 303.122 64.7949C303.05 64.7949 303.015 64.8307 303.015 64.9023L302.263 64.7949H301.081C300.365 64.8128 300.007 64.8844 300.007 65.0098C299.917 65.0098 299.094 64.9023 297.536 64.6875C296.892 64.7233 296.569 64.9023 296.569 65.2246H296.462C296.319 65.2246 296.247 65.153 296.247 65.0098C296.319 63.1836 296.39 62.1452 296.462 61.8945L295.925 56.7383C296.193 55.0195 296.516 54.1602 296.892 54.1602C297.25 54.2676 297.429 54.7331 297.429 55.5566L298.181 55.3418L301.618 55.7715H302.692C303.981 55.7715 304.626 55.3776 304.626 54.5898C304.912 51.8506 305.056 50.4183 305.056 50.293H304.841C304.286 51.0807 303.176 51.4746 301.511 51.4746H300.759C300.687 51.4746 300.651 51.5104 300.651 51.582C299.756 51.3672 298.861 51.2598 297.966 51.2598H297.429C297.303 51.2777 296.838 51.8864 296.032 53.0859H295.71C295.71 52.8711 295.674 52.7637 295.603 52.7637L295.71 52.5488C295.853 49.6126 295.925 47.9297 295.925 47.5C295.925 46.5869 295.746 45.9066 295.388 45.459C295.817 44.0804 296.319 43.1494 296.892 42.666H297.321C297.321 42.8809 299.434 43.2031 303.659 43.6328H304.841C305.056 42.5944 305.163 41.0189 305.163 38.9062V38.3691H304.411C303.391 38.8704 300.096 39.6224 294.528 40.625C292.702 40.4102 291.27 40.1595 290.231 39.873H290.017V39.9805L289.909 40.9473C289.909 41.0905 289.945 41.1621 290.017 41.1621C289.587 51.5104 289.05 58.0273 288.405 60.7129C288.334 62.2884 288.298 63.3268 288.298 63.8281C288.298 64.5264 288.62 65.6006 289.265 67.0508C289.372 67.0508 289.694 66.9792 290.231 66.8359L295.388 67.5879C295.424 67.5879 295.567 67.5521 295.817 67.4805C299.72 67.7132 302.657 67.9997 304.626 68.3398L305.7 66.9434C305.772 66.818 305.808 66.639 305.808 66.4062C305.951 66.4242 306.022 66.4958 306.022 66.6211C306.022 67.7311 305.629 68.4473 304.841 68.7695C304.626 69.1276 304.519 69.4141 304.519 69.6289V70.8105C304.519 71.1328 304.053 71.3477 303.122 71.4551C303.122 71.7773 301.797 72.1712 299.147 72.6367C299.13 72.8516 298.342 73.138 296.784 73.4961C296.408 73.6751 295.441 73.89 293.884 74.1406C292.738 74.6419 291.628 74.8926 290.554 74.8926H288.62C288.549 74.8926 288.513 74.9284 288.513 75C287.779 74.7852 286.812 74.6777 285.612 74.6777H284.538C284.108 74.6777 283.894 74.3913 283.894 73.8184H283.786C283.607 73.9616 283.5 74.0332 283.464 74.0332C283.321 74.0332 283.249 73.9616 283.249 73.8184C283.249 73.6214 283.535 72.9411 284.108 71.7773L283.571 62.3242C283.643 61.9482 283.679 61.7334 283.679 61.6797C283.464 60.6055 283.356 59.6387 283.356 58.7793L283.464 58.3496C283.321 58.0811 283.249 57.7946 283.249 57.4902V56.2012C283.249 56.1296 283.213 56.0938 283.142 56.0938L283.249 55.8789L282.712 45.2441C283.177 42.9525 283.607 41.8066 284.001 41.8066H284.108L284.431 42.0215H284.538C287.618 38.96 289.3 36.9189 289.587 35.8984L289.802 35.791C292.398 36.9368 294.009 37.5098 294.636 37.5098C296.498 37.5098 300.186 36.9727 305.7 35.8984C305.7 35.8089 305.879 35.4508 306.237 34.8242ZM284.538 43.9551C284.538 45.2083 284.502 45.9961 284.431 46.3184C284.502 47.6432 284.538 48.9323 284.538 50.1855V53.1934C284.538 53.265 284.574 53.3008 284.646 53.3008L284.538 53.5156V53.7305C284.538 54.0169 284.574 54.1602 284.646 54.1602L284.538 54.9121V62.1094C284.538 62.4137 284.502 62.8076 284.431 63.291C284.502 63.3984 284.538 63.6133 284.538 63.9355C284.538 64.0967 284.502 64.2399 284.431 64.3652L284.646 68.2324C284.574 68.5189 284.538 68.7695 284.538 68.9844C284.592 69.7005 284.699 70.0586 284.86 70.0586C285.075 69.056 285.433 68.3398 285.935 67.9102C286.06 67.9102 286.49 67.5521 287.224 66.8359C287.224 66.6569 287.188 66.3704 287.116 65.9766C287.116 65.2425 287.438 61.4827 288.083 54.6973C288.083 53.8737 288.155 52.513 288.298 50.6152C288.298 50.5436 288.262 50.5078 288.19 50.5078L288.298 49.4336V47.2852C288.298 46.2288 288.334 45.2262 288.405 44.2773C288.334 43.6507 288.262 42.5049 288.19 40.8398C288.334 40.6071 288.405 40.3923 288.405 40.1953V40.0879H288.19C288.011 40.2669 286.794 41.556 284.538 43.9551ZM300.759 69.5215H300.114C299.989 69.5215 299.667 69.6289 299.147 69.8438C298.915 69.8438 298.736 69.8079 298.61 69.7363C298.127 69.8079 297.733 69.8438 297.429 69.8438H296.569C296.211 69.8438 295.782 69.7721 295.28 69.6289C295.119 69.6289 294.976 69.6647 294.851 69.7363L292.595 69.5215L292.38 69.6289C291.467 69.5573 290.5 69.4499 289.479 69.3066C288.889 69.5036 287.779 70.0049 286.149 70.8105V70.7031C286.006 70.7747 285.899 70.8105 285.827 70.8105V71.1328C288.745 71.849 290.894 72.207 292.272 72.207C293.902 72.207 296.193 71.9206 299.147 71.3477L299.362 71.4551L303.444 70.7031L304.089 69.6289V69.4141L303.552 69.3066H302.263L301.726 69.1992L301.618 69.4141C301.69 69.4141 301.726 69.4499 301.726 69.5215L301.511 69.6289H301.403V69.5215L301.511 69.3066L300.974 69.1992C300.83 69.1992 300.759 69.3066 300.759 69.5215ZM323.747 35.5762C327.757 36.0775 330.192 36.6862 331.052 37.4023C331.553 37.8678 332.842 38.3691 334.919 38.9062C339.037 40.5892 341.472 41.6634 342.224 42.1289C342.564 42.5049 342.814 43.042 342.976 43.7402C342.438 45.9603 341.472 47.6074 340.075 48.6816C339.986 48.6816 339.735 48.9681 339.323 49.541V49.6484C339.431 50.0065 340.326 50.4362 342.009 50.9375C342.618 51.4209 343.047 52.4235 343.298 53.9453L343.513 56.5234C342.868 59.6745 342.546 61.4648 342.546 61.8945V62.9688C342.546 63.4521 342.152 64.1683 341.364 65.1172C341.275 66.4958 340.38 68.1787 338.679 70.166C335.886 72.0638 333.558 73.1738 331.696 73.4961C329.637 74.4987 328.241 75 327.507 75C327.346 75 326.2 74.6777 324.069 74.0332H323.962L323.747 74.1406C323.514 74.069 322.798 73.9616 321.599 73.8184C321.312 73.9437 320.524 74.0869 319.235 74.248C316.944 73.9079 315.798 73.1559 315.798 71.9922H315.476C315.476 72.028 315.44 72.1712 315.368 72.4219H315.261C314.938 72.4219 314.58 71.2044 314.187 68.7695C314.133 68.7516 313.775 68.1787 313.112 67.0508C313.112 66.7822 313.47 66.3883 314.187 65.8691V60.498C314.187 60.3906 314.115 59.8177 313.972 58.7793V58.0273C313.972 57.8662 313.936 57.723 313.864 57.5977C313.936 57.4723 313.972 57.3291 313.972 57.168C313.757 55.3239 313.578 54.1781 313.435 53.7305L313.542 53.5156C313.184 49.6305 312.826 46.4795 312.468 44.0625C312.468 43.3105 312.826 42.5228 313.542 41.6992C314.025 41.6992 314.348 42.2363 314.509 43.3105L314.724 43.418C316.568 41.1442 318.609 39.139 320.847 37.4023C321.097 37.4023 321.455 36.9368 321.921 36.0059L322.458 35.6836L323.103 35.791L323.747 35.5762ZM322.673 38.9062C322.673 38.9779 322.637 39.0137 322.565 39.0137C322.565 41.6455 322.1 48.1266 321.169 58.457H321.276L321.169 58.6719C321.097 61.1068 321.062 62.6465 321.062 63.291H321.169C321.169 63.3626 321.133 63.3984 321.062 63.3984C321.062 65.6185 321.312 66.7285 321.813 66.7285C321.813 66.8359 321.921 66.9434 322.136 67.0508H322.458C322.53 65.7617 322.673 65.1172 322.888 65.1172C323.067 65.1172 323.246 65.9049 323.425 67.4805C324.159 68.6979 325.054 69.3066 326.11 69.3066C326.11 69.4499 326.361 69.5215 326.862 69.5215C328.778 69.5215 331.571 68.8053 335.241 67.373C337.085 66.1914 338.947 65.153 340.827 64.2578L341.794 63.291V62.8613C341.794 62.2705 342.045 60.3369 342.546 57.0605V56.0938C342.546 53.5156 341.83 52.2266 340.397 52.2266C339.699 52.2266 339.234 51.9043 339.001 51.2598C338.285 50.8838 337.927 50.4899 337.927 50.0781V49.9707C337.927 49.541 338.607 48.7891 339.968 47.7148C341.257 46.4616 341.901 45.4232 341.901 44.5996C341.901 43.8835 341.364 43.5254 340.29 43.5254C340.004 43.2031 339.108 42.8809 337.604 42.5586C335.778 41.556 333.451 40.8398 330.622 40.4102C329.727 39.4076 327.22 38.9062 323.103 38.9062H322.673ZM314.831 44.5996V44.707C314.831 45.1009 314.795 45.6022 314.724 46.2109C314.867 46.4437 314.938 46.6227 314.938 46.748C315.01 48.4847 315.046 49.5947 315.046 50.0781L314.938 50.8301C315.01 50.9733 315.046 51.0807 315.046 51.1523L314.938 51.3672L315.046 52.0117C315.046 52.1012 315.01 52.4593 314.938 53.0859C315.082 53.3187 315.153 53.5335 315.153 53.7305C315.153 53.9811 315.118 54.3034 315.046 54.6973L315.153 54.9121L315.046 55.3418L315.153 56.3086C315.153 56.5771 315.082 57.3649 314.938 58.6719C314.938 58.7435 314.974 58.7793 315.046 58.7793C314.974 59.4059 314.938 59.7998 314.938 59.9609C314.938 61.5544 314.867 63.5954 314.724 66.084C314.867 66.4779 315.153 67.8743 315.583 70.2734V71.1328H315.905C315.905 70.9896 317.194 69.9154 319.772 67.9102C320.274 67.3372 320.524 66.9076 320.524 66.6211C320.381 65.6543 320.31 65.0456 320.31 64.7949V63.291C320.31 62.36 320.238 61.7155 320.095 61.3574C320.166 59.5492 320.274 57.6156 320.417 55.5566C320.417 55.485 320.381 55.4492 320.31 55.4492L320.417 54.6973V54.4824C320.417 52.9606 320.489 51.2061 320.632 49.2188H320.524C320.668 48.7891 320.739 47.8581 320.739 46.4258C320.739 46.3542 320.703 46.3184 320.632 46.3184L320.739 46.1035V43.0957C320.739 42.7555 320.775 42.3975 320.847 42.0215C320.775 41.7529 320.739 41.4307 320.739 41.0547V39.1211H320.524C319.755 40.1237 318.43 41.3411 316.55 42.7734L314.831 44.5996ZM329.118 42.666H329.333C329.476 42.666 329.584 42.9167 329.655 43.418C329.512 44.7428 329.44 45.9245 329.44 46.9629C329.44 47.3926 329.87 47.6074 330.729 47.6074C331.285 47.6074 332.395 47.2135 334.06 46.4258C334.274 46.4258 334.382 46.2826 334.382 45.9961C334.382 45.4232 334.131 45.1367 333.63 45.1367H332.985C332.806 45.2799 332.699 45.3516 332.663 45.3516H332.556C331.446 44.3132 330.622 43.7402 330.085 43.6328V43.418C330.085 43.3105 330.443 43.0599 331.159 42.666H331.481C332.663 43.1673 333.845 43.5254 335.026 43.7402C335.277 43.973 335.563 44.7249 335.886 45.9961C336.244 46.3184 336.423 46.569 336.423 46.748C336.244 47.3747 335.814 47.9476 335.134 48.4668H334.919C334.919 48.1803 334.776 48.0371 334.489 48.0371C333.845 48.0371 333.343 48.252 332.985 48.6816V48.7891H333.2V49.1113C332.771 49.1113 332.556 49.1829 332.556 49.3262C332.341 49.3262 332.233 49.2188 332.233 49.0039H332.019C330.479 49.8633 329.548 50.293 329.226 50.293C328.295 50.293 327.829 49.6484 327.829 48.3594C327.829 45.5664 328.259 43.6686 329.118 42.666ZM332.126 51.3672C332.126 51.8148 333.129 52.1729 335.134 52.4414C335.134 52.6742 335.707 53.0322 336.853 53.5156C337.64 54.0706 338.034 54.4645 338.034 54.6973C337.73 55.6462 337.515 57.2933 337.39 59.6387C336.853 60.9993 335.957 61.6797 334.704 61.6797C334.364 61.6797 333.433 62.2168 331.911 63.291C331.356 63.6491 330.998 63.8281 330.837 63.8281C328.832 63.8281 327.829 63.1836 327.829 61.8945C327.829 60.9814 327.793 60.3727 327.722 60.0684C328.133 56.5234 328.527 54.554 328.903 54.1602L328.796 53.623C329.655 52.1908 330.479 51.4746 331.267 51.4746C331.786 51.403 332.072 51.3672 332.126 51.3672ZM329.655 53.1934C329.655 53.2471 329.691 53.5335 329.763 54.0527C329.763 54.3392 329.548 55.8431 329.118 58.5645C329.118 59.9072 329.44 60.7666 330.085 61.1426C330.604 61.3574 330.926 61.4648 331.052 61.4648H331.589C332.036 61.4648 332.86 61.1068 334.06 60.3906C335.617 59.9788 336.441 59.6924 336.53 59.5312V58.3496C336.53 58.278 336.494 58.2422 336.423 58.2422L336.96 55.9863C334.722 53.9811 333.003 52.9785 331.804 52.9785C331.589 52.9785 331.231 52.9069 330.729 52.7637H330.515C330.282 52.9427 329.995 53.0859 329.655 53.1934ZM335.134 54.9121C335.205 55.127 335.277 55.2344 335.349 55.2344C335.188 55.9147 334.615 56.6667 333.63 57.4902C333.487 57.6693 333.415 57.8125 333.415 57.9199H333.2C333.057 57.9199 332.985 57.8483 332.985 57.7051C333.558 56.3265 334.06 55.4671 334.489 55.127C334.722 54.9837 334.937 54.9121 335.134 54.9121ZM327.829 71.0254L327.399 70.8105L326.433 70.918C324.141 70.5062 322.995 69.7542 322.995 68.6621L321.813 68.125L321.276 68.2324L320.739 68.125C320.095 68.7516 318.841 69.8258 316.979 71.3477C317.57 71.9922 319.11 72.3145 321.599 72.3145H322.78C323.461 72.3145 325.215 72.7799 328.044 73.7109H328.151C332.502 72.4935 335.438 71.3118 336.96 70.166C338.016 70.166 339.162 68.8411 340.397 66.1914C340.612 65.708 340.72 65.4215 340.72 65.332H340.612C339.753 65.887 338.5 66.5674 336.853 67.373L334.167 69.3066C330.174 70.3092 328.062 70.8822 327.829 71.0254ZM370.395 35.5762C373.188 36.3281 374.584 36.9727 374.584 37.5098V38.4766L375.229 38.9062V39.0137C374.423 40.804 373.564 43.0957 372.651 45.8887C372.579 45.8887 372.543 45.9245 372.543 45.9961V46.1035C372.543 46.3363 372.579 46.5153 372.651 46.6406C372.526 47.5179 372.347 48.055 372.114 48.252V48.3594C372.114 48.8786 372.006 49.9528 371.792 51.582C373.474 53.5693 374.334 54.6794 374.37 54.9121C374.37 54.9479 374.799 56.3444 375.659 59.1016C375.659 62.0378 374.584 64.8307 372.436 67.4805C372.078 67.9102 371.899 68.1608 371.899 68.2324L372.114 68.3398H372.221C372.436 68.3398 372.543 68.1966 372.543 67.9102H372.758C372.758 68.125 372.973 68.2324 373.403 68.2324V68.5547C371.792 70.0228 370.144 71.1328 368.461 71.8848C368.461 72.4577 364.63 73.1022 356.967 73.8184C356.967 73.9795 356.905 74.0601 356.779 74.0601C356.743 74.0601 356.654 74.0422 356.511 74.0063C356.385 73.9705 356.323 73.8721 356.323 73.7109H355.786C355.607 73.7109 355.392 73.7288 355.141 73.7646C354.89 73.8005 354.497 73.8184 353.959 73.8184L353.422 73.9258C353.422 73.8005 352.849 73.6572 351.704 73.4961C351.704 73.3529 351.632 73.2812 351.489 73.2812H351.167C351.095 73.2812 351.059 73.3171 351.059 73.3887C350.343 73.1738 349.985 72.7441 349.985 72.0996L349.555 70.918C349.484 68.0534 349.34 66.6211 349.125 66.6211C349.412 64.043 349.734 62.7539 350.092 62.7539C352.599 61.8766 353.852 61.1963 353.852 60.7129C354.21 59.4238 354.389 58.7077 354.389 58.5645H354.711C355.034 58.8867 355.857 59.388 357.182 60.0684H358.042L359.116 59.9609V59.8535C358.901 59.4238 357.54 58.8151 355.034 58.0273C354.371 57.4544 353.512 56.416 352.456 54.9121C350.576 52.6383 349.501 50.096 349.233 47.2852C349.108 47.2852 349.036 46.9271 349.018 46.2109V45.459C349.018 44.0267 349.269 43.3105 349.77 43.3105C351.739 41.7708 353.709 40.5534 355.678 39.6582C356.538 38.3691 357.182 37.7246 357.612 37.7246C359.116 36.722 360.906 36.2207 362.983 36.2207C362.983 36.1491 363.234 36.0417 363.735 35.8984L363.95 36.0059L370.395 35.5762ZM365.883 38.6914H364.487C362.482 39.1927 360.476 39.5508 358.471 39.7656C356.824 40.3564 356 41.1442 356 42.1289C355.499 43.418 355.249 44.8145 355.249 46.3184C355.249 47.679 355.965 48.9323 357.397 50.0781C359.76 52.3698 361.014 53.5156 361.157 53.5156C362.213 54.2676 363.681 54.9121 365.561 55.4492C366.42 55.9505 367.029 56.8457 367.387 58.1348V58.7793C367.387 60.8203 366.707 62.2168 365.346 62.9688L363.627 63.291H361.694C360.87 63.291 359.545 63.1836 357.719 62.9688C357.433 63.0404 357.182 63.0762 356.967 63.0762L355.034 62.4316L354.926 63.5059V65.0098C354.926 65.2246 356.788 65.9766 360.512 67.2656C362.75 67.7669 364.147 68.0176 364.702 68.0176H366.098C366.259 68.0176 366.403 68.0534 366.528 68.125C370.825 66.818 372.973 65.708 372.973 64.7949C374.047 63.6491 374.584 62.4316 374.584 61.1426C373.564 57.7767 372.776 56.0938 372.221 56.0938C370.574 53.8379 369.213 52.6204 368.139 52.4414C366.814 51.1882 365.203 50.293 363.305 49.7559C362.661 48.7891 362.338 48.0371 362.338 47.5V47.0703C362.643 45.7633 363.037 44.5101 363.52 43.3105C364.218 42.4512 364.755 42.0215 365.131 42.0215C366.814 42.0215 368.39 42.8451 369.858 44.4922C370.359 44.6175 370.61 44.7249 370.61 44.8145C371.756 44.8145 372.329 44.3132 372.329 43.3105C373.26 41.4486 373.725 40.3385 373.725 39.9805C373.528 39.9805 373.063 39.694 372.329 39.1211L369.428 38.3691H367.709C367.011 38.584 366.403 38.6914 365.883 38.6914ZM352.348 43.7402V45.9961C352.76 48.4847 353.225 50.3109 353.745 51.4746C355.929 55.3418 357.827 57.2754 359.438 57.2754C361.175 58.3496 362.177 58.8867 362.446 58.8867C362.446 59.1732 362.804 59.5312 363.52 59.9609H364.165C364.952 59.9609 365.382 59.8535 365.454 59.6387C365.454 59.1553 364.2 58.5465 361.694 57.8125C360.423 57.1322 358.632 55.6283 356.323 53.3008C354.461 52.0296 353.53 50.1318 353.53 47.6074C353.816 45.6917 354.246 43.7581 354.819 41.8066V41.6992H354.711C353.136 42.9346 352.348 43.6149 352.348 43.7402ZM363.842 45.9961C364.039 46.5332 364.827 47.0345 366.206 47.5L367.817 48.3594C368.873 49.362 369.697 49.8633 370.288 49.8633C370.431 49.0039 370.502 48.3236 370.502 47.8223V47.7148C370.323 47.7148 370.001 47.8223 369.536 48.0371C369.231 48.0371 368.372 47.3926 366.958 46.1035C366.313 45.7454 365.847 45.5664 365.561 45.5664C364.415 45.6201 363.842 45.7633 363.842 45.9961ZM350.522 48.4668C350.594 48.9681 350.701 49.2188 350.844 49.2188V49.1113L350.737 48.4668H350.522ZM350.844 64.043C350.844 64.3652 350.952 64.8665 351.167 65.5469C351.095 65.6722 351.059 65.8154 351.059 65.9766V66.084C351.059 66.1556 351.095 66.1914 351.167 66.1914L350.952 66.7285C351.238 66.7285 351.489 67.8027 351.704 69.9512H351.811C351.668 70.1839 351.596 70.3988 351.596 70.5957C351.596 70.7031 352.097 70.8822 353.1 71.1328V71.0254C354.049 71.3118 354.622 71.4551 354.819 71.4551V71.3477C355.159 71.3477 355.768 71.4909 356.645 71.7773H359.868C359.939 71.7773 359.975 71.7415 359.975 71.6699L360.19 71.7773C361.067 71.7057 361.783 71.5983 362.338 71.4551L362.768 71.6699C362.768 71.4551 363.019 71.3477 363.52 71.3477V71.1328L362.983 71.2402H362.446C361.157 70.8105 360.262 70.5957 359.76 70.5957C355.821 69.432 353.852 68.7516 353.852 68.5547C353.78 68.5547 353.709 67.8027 353.637 66.2988C353.709 65.2246 353.745 64.4727 353.745 64.043H353.637L353.745 63.8281V62.4316C351.811 62.915 350.844 63.4521 350.844 64.043ZM372.329 68.6621V68.7695H372.651V68.4473H372.543C372.4 68.4652 372.329 68.5368 372.329 68.6621ZM413.391 33.374C414.035 33.374 414.357 34.484 414.357 36.7041C414.357 38.0827 414.25 40.2311 414.035 43.1494L414.143 43.3643C414.143 43.5075 414.107 43.5791 414.035 43.5791C414.107 44.2057 414.143 44.5638 414.143 44.6533C414.071 47.3926 414.035 48.8965 414.035 49.165L414.143 49.3799C414.143 49.4515 414.107 49.4873 414.035 49.4873C414.178 51.2598 414.25 52.4414 414.25 53.0322C414.107 54.6436 414.035 55.8252 414.035 56.5771C414.035 57.7409 414.107 58.8151 414.25 59.7998C413.946 65.2425 413.516 67.9639 412.961 67.9639C412.836 67.8923 412.692 67.8564 412.531 67.8564C412.227 68.8053 411.511 70.1302 410.383 71.8311C410.096 72.3861 409.953 72.7799 409.953 73.0127C410.669 73.6035 411.027 73.9258 411.027 73.9795C410.956 74.1943 410.884 74.3018 410.812 74.3018L411.027 74.7314C410.92 75.0179 410.812 75.1611 410.705 75.1611H410.598C408.592 73.6572 406.408 72.7979 404.045 72.583C403.4 72.5472 403.078 72.4756 403.078 72.3682L402.541 71.5088C402.541 71.0612 402.72 70.7389 403.078 70.542C403.078 67.5163 402.72 65.2246 402.004 63.667V63.5596C402.004 63.1299 402.827 61.3753 404.475 58.2959L404.582 57.6514C403.562 57.3649 402.595 57.2217 401.682 57.2217H401.574C401.234 57.2217 400.876 57.2575 400.5 57.3291C399.748 57.1859 398.996 57.1143 398.244 57.1143C397.814 58.2243 397.6 59.2985 397.6 60.3369V62.7002C397.313 65.8691 396.883 67.7669 396.311 68.3936C396.024 68.3936 395.666 69.3604 395.236 71.2939C394.502 73.2275 393.464 75.3044 392.121 77.5244V77.7393H392.229L393.195 77.6318C393.339 77.8109 393.41 77.9541 393.41 78.0615L393.303 79.0283H393.41C393.41 80.2458 392.551 80.8545 390.832 80.8545C388.684 80.6934 387.609 80.5143 387.609 80.3174L387.395 80.4248L383.312 79.6729C382.382 75.9489 381.916 70.8285 381.916 64.3115L381.809 63.5596L381.916 63.3447C381.361 58.1169 381.003 53.641 380.842 49.917C380.77 49.917 380.734 49.6663 380.734 49.165L381.379 47.9834L381.594 48.0908H381.701L382.775 45.835C385.354 41.7529 386.643 39.139 386.643 37.9932C386.857 36.5609 387.323 35.8447 388.039 35.8447C388.737 35.8447 390.42 35.6299 393.088 35.2002C393.983 35.3434 394.592 35.415 394.914 35.415L396.74 34.9854C396.812 35.1286 396.848 35.236 396.848 35.3076C396.49 36.8294 396.311 38.5482 396.311 40.4639V43.1494C396.311 43.5075 396.275 44.0446 396.203 44.7607C396.919 45.262 397.886 45.5127 399.104 45.5127H399.426C399.891 45.5127 400.249 45.0114 400.5 44.0088C402.505 40.4102 403.508 38.2975 403.508 37.6709C403.633 37.0264 403.776 36.7041 403.938 36.7041H404.045L404.367 38.208C404.17 39.3359 403.168 41.0905 401.359 43.4717C400.858 44.3311 400.464 44.904 400.178 45.1904C400.196 45.3337 400.267 45.4053 400.393 45.4053C400.625 45.4053 401.27 45.3337 402.326 45.1904C402.451 45.262 402.631 45.2979 402.863 45.2979C403.866 45.1725 404.367 44.7428 404.367 44.0088L404.689 42.9346C404.618 42.4512 404.582 42.0573 404.582 41.7529V41.1084C404.922 37.1696 405.388 35.2002 405.979 35.2002C406.945 35.2002 408.807 34.7705 411.564 33.9111C412.066 33.6963 412.674 33.5173 413.391 33.374ZM405.979 38.96C406.014 39.6761 406.086 40.0342 406.193 40.0342C406.193 41.001 405.728 43.1136 404.797 46.3721C404.493 47.9476 404.17 48.7354 403.83 48.7354L403.186 48.6279C402.792 48.6995 402.505 48.7354 402.326 48.7354C402.111 48.7354 401.861 48.6995 401.574 48.6279C401.234 48.6279 400.124 48.7354 398.244 48.9502C397.725 48.8786 397.438 48.8428 397.385 48.8428C397.242 48.9144 397.134 48.9502 397.062 48.9502C395.702 48.61 395.021 48.252 395.021 47.876C395.093 44.7965 395.129 42.4333 395.129 40.7861V40.1416C395.147 39.2822 395.218 38.8525 395.344 38.8525C395.272 38.7093 395.236 38.6019 395.236 38.5303C395.004 38.5303 394.825 38.5661 394.699 38.6377C393.732 38.5661 393.016 38.5303 392.551 38.5303C391.727 38.5303 390.546 38.6735 389.006 38.96C389.292 40.9294 389.471 43.1494 389.543 45.6201L389.436 46.1572C389.436 46.3184 389.471 46.4616 389.543 46.5869C389.543 47.124 389.436 49.5589 389.221 53.8916V56.1475C389.221 56.2191 389.257 56.2549 389.328 56.2549L389.221 56.4697V56.8994C389.221 58.0811 389.185 59.012 389.113 59.6924C389.113 59.8535 389.149 60.2474 389.221 60.874C389.149 62.4674 389.113 63.9714 389.113 65.3857V66.3525C389.113 66.4242 389.149 66.46 389.221 66.46L389.113 66.6748V67.3193C389.131 67.4626 389.203 67.5342 389.328 67.5342C391.906 66.6032 393.231 66.1377 393.303 66.1377L395.881 64.8486C396.149 63.846 396.364 61.5902 396.525 58.0811C397.242 55.1449 397.779 53.6768 398.137 53.6768C398.441 53.8737 399.444 54.0527 401.145 54.2139C401.61 54.1423 402.076 54.1064 402.541 54.1064C405.334 54.4108 406.73 54.9479 406.73 55.7178C406.802 56.3981 406.838 57.0426 406.838 57.6514C406.838 58.1169 406.802 58.7256 406.73 59.4775C407.071 62.9867 407.321 64.7412 407.482 64.7412C407.644 64.7412 409.434 64.9202 412.854 65.2783C413.068 64.5264 413.212 63.4163 413.283 61.9482L412.961 58.7256L413.176 55.2881L412.746 50.2393C412.818 50.1318 412.854 49.917 412.854 49.5947C412.854 49.4515 412.818 49.3799 412.746 49.3799C412.746 49.2367 412.782 49.165 412.854 49.165C412.782 47.876 412.746 47.0166 412.746 46.5869C412.746 44.9398 412.782 42.3258 412.854 38.7451C412.674 37.5277 412.46 36.9189 412.209 36.9189H411.994C411.493 36.9189 409.882 37.4202 407.16 38.4229C406.408 38.4229 406.014 38.6019 405.979 38.96ZM387.287 40.0342C386.302 42.3079 384.548 45.4948 382.023 49.5947V49.917C382.023 51.958 382.453 58.9404 383.312 70.8643C383.312 70.9359 383.277 70.9717 383.205 70.9717C383.277 72.2607 383.492 74.1585 383.85 76.665H384.064C384.226 76.665 384.44 76.2712 384.709 75.4834C384.494 75.4297 384.351 75.2865 384.279 75.0537C384.548 72.9053 384.906 71.8311 385.354 71.8311C386.356 70.7031 386.857 70.0228 386.857 69.79C386.786 69.3962 386.75 69.0739 386.75 68.8232V68.7158C387.609 68.304 388.039 67.9102 388.039 67.5342C388.039 67.373 388.075 67.2298 388.146 67.1045C388.146 67.0508 388.111 66.7643 388.039 66.2451C388.111 64.1325 388.146 62.557 388.146 61.5186H388.039L388.146 61.3037V60.9814C388.146 60.695 388.111 60.5518 388.039 60.5518L388.146 59.7998V55.2881C388.29 53.5514 388.361 52.5846 388.361 52.3877V52.2803C388.361 52.2087 388.326 52.1729 388.254 52.1729C388.326 52.0296 388.361 51.9222 388.361 51.8506L388.254 50.3467C388.326 50.0602 388.361 49.8096 388.361 49.5947H388.254L388.361 49.3799V48.6279C388.361 48.252 388.397 47.9297 388.469 47.6611C388.326 44.5817 388.039 42.0394 387.609 40.0342H387.287ZM405.549 58.1885C405.083 59.4596 404.582 60.5339 404.045 61.4111C403.329 62.557 402.971 63.2373 402.971 63.4521C403.472 65.5827 403.723 67.373 403.723 68.8232H403.83C404.045 68.6442 404.833 67.4268 406.193 65.1709V64.7412C405.835 62.6465 405.656 61.3932 405.656 60.9814C405.728 60.2295 405.764 59.4059 405.764 58.5107V58.4033C405.764 58.2601 405.692 58.1885 405.549 58.1885ZM406.193 67.4268L403.938 70.542C403.938 70.6852 403.973 70.7568 404.045 70.7568C406.337 71.3298 408.02 71.8669 409.094 72.3682C410.598 69.9333 411.35 68.4294 411.35 67.8564L411.135 67.749H410.705C408.915 67.6058 407.984 67.5342 407.912 67.5342V67.6416L407.697 67.5342H407.59C407.339 67.5342 407.017 67.57 406.623 67.6416L406.193 67.4268ZM385.783 76.8799C387.502 77.4528 389.257 77.7393 391.047 77.7393C391.208 76.3428 391.745 75.0179 392.658 73.7646C394.162 71.2223 394.914 69.5752 394.914 68.8232H394.484L390.188 70.3271C389.042 70.7031 388.469 71.2402 388.469 71.9385C388.093 72.583 387.591 73.335 386.965 74.1943C386.965 74.3734 386.571 75.2686 385.783 76.8799ZM437.346 29.7754C437.489 29.847 437.596 29.8828 437.668 29.8828C438.026 29.8828 438.563 29.9186 439.279 29.9902L440.246 29.8828C440.819 30.0977 441.965 30.3125 443.684 30.5273C445.277 30.8138 446.602 31.3509 447.658 32.1387C449.574 33.6068 451.543 35.6478 453.566 38.2617C454.336 39.1032 455.124 41.2516 455.93 44.707C456.431 45.6738 456.682 46.9629 456.682 48.5742C456.682 50.0423 456.324 52.3698 455.607 55.5566C455.679 55.6999 455.715 55.8073 455.715 55.8789L455.5 56.416H455.607C454.981 59.4238 454.336 60.9277 453.674 60.9277C453.065 61.9124 452.17 63.7386 450.988 66.4062C449.735 68.3219 447.622 69.8975 444.65 71.1328C442.538 72.8158 440.926 73.7109 439.816 73.8184C438.402 74.5345 437.113 74.8926 435.949 74.8926H434.982C434.911 74.8926 434.875 74.9284 434.875 75L434.66 74.8926H434.23C432.798 74.8926 430.9 74.1048 428.537 72.5293C426.729 71.1865 425.332 69.5752 424.348 67.6953C423.381 66.1377 422.414 63.2373 421.447 58.9941C421.376 58.7256 421.268 57.5081 421.125 55.3418C421.68 49.2367 422.611 44.4743 423.918 41.0547C426.245 34.681 428.537 31.4941 430.793 31.4941C430.829 31.7806 430.936 31.9238 431.115 31.9238H431.223C431.688 31.5658 432.046 31.3867 432.297 31.3867H432.404C432.709 31.6732 432.995 31.8164 433.264 31.8164C434.911 30.4557 436.271 29.7754 437.346 29.7754ZM430.578 36.4355L430.686 35.3613H430.471C428.913 37.0085 427.875 39.0853 427.355 41.5918C427.069 42.7018 426.854 43.8477 426.711 45.0293C426.711 50.5257 427.176 54.0706 428.107 55.6641C428.68 57.723 429.611 59.2627 430.9 60.2832C433.21 61.6439 435.215 62.3242 436.916 62.3242C438.026 62.3242 439.279 62.4316 440.676 62.6465C441.983 62.2347 443.737 61.8766 445.939 61.5723C449.305 59.943 451.167 58.9762 451.525 58.6719C454.247 54.7331 455.607 52.0833 455.607 50.7227C455.679 50.3825 455.715 49.8812 455.715 49.2188C455.715 48.9502 455.035 46.6227 453.674 42.2363C452.385 40.446 450.666 38.4408 448.518 36.2207C446.763 34.6452 444.579 33.8574 441.965 33.8574C440.765 33.4993 439.226 33.2845 437.346 33.2129C435.376 33.2129 433.299 34.2871 431.115 36.4355H430.578ZM422.521 53.7305V55.127C422.521 56.792 423.202 59.585 424.562 63.5059C425.404 65.2962 426.693 67.0508 428.43 68.7695C430.292 69.8796 431.223 70.5241 431.223 70.7031H431.652L434.338 71.3477C437.668 71.3477 441.464 70.0944 445.725 67.5879C447.372 67.1761 448.41 66.6032 448.84 65.8691C449.878 65.3499 451.096 63.7386 452.492 61.0352C452.85 60.5339 453.029 60.2116 453.029 60.0684H452.814C451.311 62.1273 449.52 63.4521 447.443 64.043C446.262 65.0456 444.65 65.5469 442.609 65.5469C441.786 65.9766 440.962 66.1914 440.139 66.1914C436.647 65.9766 434.571 65.6543 433.908 65.2246C431.563 64.2399 429.808 63.0225 428.645 61.5723C426.639 58.4033 425.637 54.2855 425.637 49.2188C425.565 48.7354 425.493 48.4131 425.422 48.252C425.422 44.5638 426.281 40.446 428 35.8984C428.072 35.8984 428.107 35.8626 428.107 35.791V35.5762H427.893C427.391 35.7194 426.245 38.1543 424.455 42.8809C423.166 47.6074 422.521 51.224 422.521 53.7305ZM440.354 35.791C440.801 35.8984 441.589 36.3281 442.717 37.0801C443.791 37.6351 445.008 38.8167 446.369 40.625C446.745 41.2874 447.246 43.1136 447.873 46.1035C447.945 46.4795 447.98 46.8376 447.98 47.1777C447.622 53.4082 446.477 56.9173 444.543 57.7051C443.397 58.3496 442.215 58.6719 440.998 58.6719C439.763 58.6719 438.259 57.3828 436.486 54.8047C434.553 52.9785 433.586 51.2598 433.586 49.6484V49.4336C433.586 45.3874 434.624 41.8424 436.701 38.7988C437.507 37.653 438.116 37.0801 438.527 37.0801H438.635L438.85 37.1875C439.261 36.2565 439.763 35.791 440.354 35.791ZM438.85 39.6582V40.0879C440.031 41.1979 441.141 43.7402 442.18 47.7148C442.323 49.0755 442.395 50.2214 442.395 51.1523H442.502C442.359 52.5309 442.144 53.8558 441.857 55.127V55.3418C442.985 55.3418 444.274 54.8405 445.725 53.8379C446.656 51.7611 447.121 49.9349 447.121 48.3594C447.121 47.3568 446.656 45.6022 445.725 43.0957C444.077 40.8757 442.287 39.4792 440.354 38.9062H439.709C439.297 39.139 439.011 39.3896 438.85 39.6582ZM434.875 48.1445V48.4668C436.809 51.3314 438.456 53.3724 439.816 54.5898H440.031C440.031 54.4466 440.425 53.7305 441.213 52.4414V51.6895C441.213 50.1676 440.568 47.9118 439.279 44.9219C438.706 44.0267 437.847 43.1673 436.701 42.3438V42.2363H436.594C435.448 43.8298 434.875 45.7992 434.875 48.1445ZM474.702 30.3125C475.668 30.3125 476.743 30.4915 477.924 30.8496C478.068 30.778 478.175 30.7422 478.247 30.7422C478.354 31.0107 479.5 31.4046 481.684 31.9238C483.958 32.819 485.784 34.0723 487.163 35.6836C489.239 38.2438 490.278 40.7145 490.278 43.0957C489.83 46.6764 489.078 48.9323 488.022 49.8633C487.485 51.2419 486.697 52.2087 485.659 52.7637C485.014 53.1038 483.403 53.3903 480.825 53.623C479.249 54.3392 478.39 54.6973 478.247 54.6973H477.602C477.351 61.2142 477.065 64.4727 476.743 64.4727C476.098 64.7591 475.776 65.1172 475.776 65.5469C475.561 65.8691 474.917 67.3372 473.842 69.9512C474.129 70.542 474.272 70.8643 474.272 70.918C474.272 71.1328 474.129 71.6341 473.842 72.4219C472.625 72.4219 471.193 72.8874 469.545 73.8184C468.597 74.6061 467.594 75 466.538 75L464.389 74.5703C464.156 74.7135 463.977 74.7852 463.852 74.7852C463.852 74.2839 463.315 73.6393 462.241 72.8516C462.42 70.8464 462.635 69.8438 462.885 69.8438H463.1V69.7363C463.1 68.7516 463.243 67.1045 463.53 64.7949C463.458 64.3115 463.422 63.9176 463.422 63.6133V60.1758C463.422 60.1042 463.387 60.0684 463.315 60.0684C463.315 59.9967 463.351 59.9609 463.422 59.9609L463.315 58.6719V55.5566C463.315 55.3955 463.279 55.2523 463.208 55.127C463.208 55.0553 463.243 55.0195 463.315 55.0195C463.243 54.3034 463.208 53.7663 463.208 53.4082V52.5488C463.064 48.7533 462.993 46.6406 462.993 46.2109V44.9219C462.993 44.8503 462.957 44.8145 462.885 44.8145L462.993 44.5996V44.3848L462.885 43.7402C463.19 41.7708 463.583 40.4818 464.067 39.873C464.067 39.4255 464.676 37.8857 465.893 35.2539C466.681 34.0365 467.504 32.4967 468.364 30.6348H468.471C468.793 30.8496 469.008 30.957 469.116 30.957C469.474 30.7601 469.975 30.6169 470.62 30.5273C470.763 30.599 470.87 30.6348 470.942 30.6348L471.479 30.5273L472.016 30.6348C473.484 30.4199 474.379 30.3125 474.702 30.3125ZM468.901 34.7168C468.614 40.4639 468.471 44.2594 468.471 46.1035L468.364 47.0703C468.435 47.2135 468.471 47.321 468.471 47.3926C468.471 47.4642 468.435 47.5 468.364 47.5L468.471 48.4668C468.185 52.6025 468.042 56.613 468.042 60.498V63.291H468.256L471.694 62.3242C472.141 62.0736 473.645 61.6439 476.206 61.0352C476.206 60.8919 476.313 59.0299 476.528 55.4492C476.528 55.2881 476.456 54.6077 476.313 53.4082L476.528 51.6895L476.42 51.4746C476.528 50.6868 476.778 50.293 477.172 50.293C477.387 50.6152 477.495 50.9017 477.495 51.1523H477.709C477.871 51.1523 478.014 51.1165 478.139 51.0449C478.264 51.1165 478.408 51.1523 478.569 51.1523C480.485 50.3646 482.669 49.8275 485.122 49.541C486.017 49.541 487.306 48.0371 488.989 45.0293C488.989 43.9909 488.523 42.5586 487.592 40.7324C487.037 39.7119 485.963 38.5303 484.37 37.1875C482.239 35.612 480.485 34.8242 479.106 34.8242C477.19 34.1081 475.579 33.75 474.272 33.75C470.691 34.0365 468.901 34.3587 468.901 34.7168ZM464.282 43.2031C464.425 54.8942 464.497 62.1631 464.497 65.0098C464.497 66.7643 464.246 68.5905 463.745 70.4883C463.816 70.7747 464.031 70.918 464.389 70.918C466.323 66.9792 467.29 64.9023 467.29 64.6875L467.075 63.9355C467.075 63.112 467.111 62.36 467.182 61.6797C467.111 60.3906 467.075 59.5312 467.075 59.1016C467.075 58.5645 467.146 57.1322 467.29 54.8047H467.182L467.29 54.5898C467.361 51.8685 467.433 50.3288 467.504 49.9707C467.433 49.8275 467.397 49.7201 467.397 49.6484C467.397 49.5052 467.433 49.4336 467.504 49.4336C467.433 48.7174 467.397 48.1803 467.397 47.8223C467.397 45.4053 467.504 42.3975 467.719 38.7988C467.719 38.7272 467.683 38.6914 467.612 38.6914L467.934 35.3613C467.862 35.2181 467.827 35.1107 467.827 35.0391H467.719C465.642 38.1901 464.604 40.625 464.604 42.3438C464.497 42.3438 464.389 42.6302 464.282 43.2031ZM477.387 37.5098C478.855 37.5098 480.323 38.6556 481.792 40.9473C482.006 41.6992 482.114 42.2363 482.114 42.5586C481.863 45.8529 480.968 47.5 479.428 47.5C478.658 47.7148 477.906 47.8223 477.172 47.8223H477.065C476.922 47.8223 476.778 48.1087 476.635 48.6816H476.528L475.454 47.2852C475.597 46.2646 475.668 45.5485 475.668 45.1367C475.454 43.8656 475.346 42.4691 475.346 40.9473C475.346 38.8704 475.776 37.832 476.635 37.832C476.635 37.7604 476.886 37.653 477.387 37.5098ZM476.743 40.7324C476.886 42.9704 476.958 44.2594 476.958 44.5996L477.172 44.707C479.464 44.6533 480.61 44.3669 480.61 43.8477C480.502 42.9167 479.357 41.8783 477.172 40.7324H476.743ZM465.786 71.2402V71.4551H465.893C466.108 71.4551 466.359 71.4909 466.645 71.5625C467.433 71.5625 468.758 71.097 470.62 70.166C471.246 69.8796 471.891 69.7005 472.553 69.6289C473.986 66.5316 474.702 64.9202 474.702 64.7949V64.4727C474.361 64.4727 472.141 65.0814 468.042 66.2988C467.54 67.6058 466.788 69.2529 465.786 71.2402Z" fill="#FEFFE6"/>
</svg>
