<svg width="447" height="71" viewBox="0 0 447 71" fill="none" xmlns="http://www.w3.org/2000/svg">
<path d="M23.5996 36.4258V36.6406H25.1035L26.1777 36.748C26.1777 36.4437 26.3568 36.1572 26.7148 35.8887V35.7812H26.6074C26.3747 35.7812 25.3721 35.9961 23.5996 36.4258ZM17.0469 51.0352V51.25C17.8883 52.1094 19.4281 52.7181 21.666 53.0762H21.8809C23.4564 52.6465 24.2441 51.6797 24.2441 50.1758V50.0684C22.8477 49.0658 21.4154 48.5645 19.9473 48.5645C19.2311 48.5645 18.4076 49.3164 17.4766 50.8203C17.2975 50.9635 17.1543 51.0352 17.0469 51.0352ZM2.11523 48.457C2.11523 49.1732 2.72396 50.9635 3.94141 53.8281C3.94141 54.1683 4.83659 55.2425 6.62695 57.0508C7.43262 58.2503 8.68587 59.2887 10.3867 60.166C11.819 61.6699 13.0007 62.4219 13.9316 62.4219H14.8984C15.3281 62.4219 16.1517 62.3503 17.3691 62.207C17.763 62.207 18.873 62.2786 20.6992 62.4219C21.863 62.3324 22.4717 62.2607 22.5254 62.207C22.6686 62.2786 22.776 62.3145 22.8477 62.3145C23.5101 62.1712 23.9756 61.9922 24.2441 61.7773L24.7812 61.8848C25.0319 61.8848 25.748 61.2044 26.9297 59.8438C26.7865 59.7721 26.679 59.7363 26.6074 59.7363C26.0345 59.9512 24.3158 60.2376 21.4512 60.5957C20.8245 60.3092 19.5355 60.0944 17.584 59.9512C15.8831 59.611 14.0928 58.7158 12.2129 57.2656C11.4967 56.8001 10.6374 56.4779 9.63477 56.2988C8.93652 55.5111 7.89811 54.6159 6.51953 53.6133C5.44531 51.5902 4.9082 49.585 4.9082 47.5977C4.47852 45.8789 4.26367 44.554 4.26367 43.623C4.26367 43.2829 4.58594 41.958 5.23047 39.6484C3.65495 40.4183 2.86719 41.5999 2.86719 43.1934C2.36589 44.2139 2.11523 45.9684 2.11523 48.457ZM17.9868 44.6167C18.1838 44.0259 18.7298 43.1934 19.625 42.1191C20.556 42.3161 22.3822 42.4593 25.1035 42.5488L25.6406 42.4414L25.8555 42.5488C26.0882 42.5488 27.807 42.2624 31.0117 41.6895C31.9427 41.6895 32.8021 42.4414 33.5898 43.9453C33.9479 44.2497 34.127 44.6077 34.127 45.0195C33.9121 46.2012 33.8047 46.9531 33.8047 47.2754C33.9479 48.8151 34.0195 49.6387 34.0195 49.7461C34.0195 50.498 33.2676 52.0736 31.7637 54.4727C31.7637 54.6517 31.6562 55.0814 31.4414 55.7617V55.9766L31.6562 56.2988C31.6562 57.194 30.9401 58.0534 29.5078 58.877L25.748 62.7441C24.5664 63.7467 23.4922 64.4987 22.5254 65C22.2747 64.7852 21.6302 64.6419 20.5918 64.5703L18.9805 64.7852L15.6504 64.5703C14.9521 64.7135 13.9137 64.7852 12.5352 64.7852H12.3203C11.2282 64.6419 9.93913 63.89 8.45312 62.5293C8.3278 62.2965 7.46842 61.6878 5.875 60.7031C5.08724 59.4141 3.97721 58.0892 2.54492 56.7285C2.29427 56.4242 2.04362 55.6364 1.79297 54.3652C0.790365 52.7718 0.289062 51.2679 0.289062 49.8535C0.360677 49.7282 0.396484 49.585 0.396484 49.4238C0.396484 49.2627 0.360677 49.1195 0.289062 48.9941C0.432292 47.1859 0.897786 44.8584 1.68555 42.0117C2.95671 40.0602 4.71126 38.5205 6.94922 37.3926C8.3099 35.1367 10.0645 33.597 12.2129 32.7734C13.7168 31.1979 16.5814 29.9805 20.8066 29.1211C21.0036 29.1211 23.0088 28.8346 26.8223 28.2617L27.4668 28.3691H27.7891C27.9502 28.3691 28.0934 28.3333 28.2188 28.2617C29.4004 28.2617 30.2598 28.6556 30.7969 29.4434V29.5508C30.1165 30.2669 29.5436 30.625 29.0781 30.625C28.6842 30.0521 27.8965 29.7656 26.7148 29.7656C25.1393 29.9089 23.3132 30.1953 21.2363 30.625C21.1647 30.625 21.1289 30.5892 21.1289 30.5176C19.7503 30.5355 17.3154 31.3232 13.8242 32.8809C12.571 33.9193 10.888 35.1367 8.77539 36.5332C7.27148 38.3236 6.51953 40.1497 6.51953 42.0117C6.66276 43.5872 6.80599 44.7331 6.94922 45.4492L6.8418 45.6641C6.8418 47.2217 7.3431 49.1911 8.3457 51.5723C10.5479 53.3626 12.5889 54.7949 14.4688 55.8691C15.3281 56.818 16.7604 57.5342 18.7656 58.0176C20.5202 58.5189 22.4896 58.7695 24.6738 58.7695H25.748C28.8991 58.2324 30.4746 57.194 30.4746 55.6543L32.623 51.25C32.623 50.8561 32.6589 50.4622 32.7305 50.0684L32.4082 48.457C32.5514 47.7051 32.623 47.2396 32.623 47.0605L32.5156 46.8457C32.5872 46.7025 32.623 46.5951 32.623 46.5234C32.623 45.7536 32.265 45.1807 31.5488 44.8047C31.0117 44.0169 30.3672 43.623 29.6152 43.623C26.3747 44.1243 24.5485 44.375 24.1367 44.375C23.7607 44.3034 23.3311 44.2676 22.8477 44.2676H22.7402C22.6686 44.2676 22.3822 44.3392 21.8809 44.4824H20.377V46.416H20.4844C22.2926 46.416 24.083 47.168 25.8555 48.6719C25.8555 49.7103 25.1751 51.2858 23.8145 53.3984L21.4512 54.5801C20.7887 54.3652 19.6429 54.1146 18.0137 53.8281L17.4766 53.9355C15.6146 53.2015 14.6836 52.4137 14.6836 51.5723C14.6836 51.4111 14.2897 50.8024 13.502 49.7461C12.7858 47.723 12.4277 45.5745 12.4277 43.3008C13.0902 40.8659 13.8063 39.2188 14.5762 38.3594C15.1312 37.679 17.208 36.9271 20.8066 36.1035C22.2926 35.2441 24.4769 34.4922 27.3594 33.8477C28.5052 33.8477 29.0781 33.5612 29.0781 32.9883C29.8838 31.8962 30.7432 30.5355 31.6562 28.9062C31.7816 28.8346 31.9248 28.7988 32.0859 28.7988H32.1934V28.9062C31.6921 30.0879 31.1191 32.1289 30.4746 35.0293C29.9733 35.6738 29.5436 35.9961 29.1855 35.9961C29.1855 35.8887 29.0781 35.7812 28.8633 35.6738H28.4336C27.5921 36.9092 26.5895 38.0908 25.4258 39.2188C25.0856 38.8607 23.6891 38.6458 21.2363 38.5742C20.3053 38.7891 19.8398 39.0397 19.8398 39.3262H19.5176C19.446 39.3262 19.4102 39.2904 19.4102 39.2188C18.9268 39.4157 17.9958 39.6663 16.6172 39.9707L16.5098 39.7559L16.832 39.2188C16.7604 39.2188 16.7246 39.1829 16.7246 39.1113C15.2923 39.2367 14.5762 39.8454 14.5762 40.9375C14.4688 41.582 14.3613 41.9043 14.2539 41.9043C14.2539 41.9401 14.2897 42.0833 14.3613 42.334C14.3613 44.751 14.6299 46.604 15.167 47.8931C15.722 46.8188 16.6619 45.7267 17.9868 44.6167ZM15.4624 48.4839C15.6056 48.7524 15.7757 48.9941 15.9727 49.209C16.277 50.14 16.5277 50.6771 16.7246 50.8203C16.7783 50.8203 17.3154 50.0684 18.3359 48.5645V47.168C18.1211 46.4697 18.0137 45.861 18.0137 45.3418V45.1807C17.2796 46.7025 16.4292 47.8035 15.4624 48.4839ZM50.5625 23.2129C51.9232 23.7858 52.7826 24.0723 53.1406 24.0723H54.2148L54.8594 23.9648L55.0742 24.0723C55.5576 24.0007 55.9515 23.9648 56.2559 23.9648H56.3633C57.5628 24.0365 58.7803 24.681 60.0156 25.8984C61.0003 25.8984 61.9671 28.584 62.916 33.9551C63.1846 34.5459 63.7217 36.2288 64.5273 39.0039C67.5531 44.6077 69.5225 48.654 70.4355 51.1426C71.0801 52.36 71.4023 53.3268 71.4023 54.043C71.4023 54.1146 71.3665 54.1504 71.2949 54.1504L71.6172 54.6875V54.7949C71.2054 55.0635 70.9906 55.3141 70.9727 55.5469L71.1875 55.9766C71.1875 56.0661 70.9368 56.4958 70.4355 57.2656L69.8984 57.1582L65.9238 62.959C65.4404 64.1048 64.8675 64.6777 64.2051 64.6777L63.9902 64.8926C63.5785 64.7493 62.6833 64.6777 61.3047 64.6777V64.7852C61.2331 64.7852 61.1973 64.7493 61.1973 64.6777L57.7598 65C57.4017 64.9463 57.2227 64.8389 57.2227 64.6777V64.248C57.3659 63.7288 57.4375 63.4424 57.4375 63.3887C56.1484 61.1686 55.5039 59.8438 55.5039 59.4141V59.1992C54.5908 59.5573 53.4808 59.8438 52.1738 60.0586C50.6341 60.0586 48.8079 59.9512 46.6953 59.7363C45.6569 60.918 44.8333 62.1712 44.2246 63.4961H43.4727C43.0072 62.9948 42.3626 62.7441 41.5391 62.7441C40.5007 62.7441 38.8177 63.2454 36.4902 64.248C36.347 64.069 36.2754 63.9258 36.2754 63.8184C36.2754 62.1891 37.1348 59.0023 38.8535 54.2578C39.498 51.2858 40.5007 47.168 41.8613 41.9043C41.915 40.6152 41.9867 39.9707 42.0762 39.9707C42.4342 39.9707 42.7923 39.4336 43.1504 38.3594C43.1504 38.0371 43.0788 37.7148 42.9355 37.3926C43.5085 36.8376 43.7949 36.3721 43.7949 35.9961L44.9766 33.2031C46.3551 30.7324 47.3577 28.4408 47.9844 26.3281C48.4141 25.6657 48.7363 25.057 48.9512 24.502H49.0586L49.5957 24.6094C49.8822 23.6784 50.2044 23.2129 50.5625 23.2129ZM50.2402 27.0801L47.4473 38.252C46.6595 41.0807 44.9408 45.9147 42.291 52.7539C41.8613 54.2399 41.6465 55.0635 41.6465 55.2246C42.0762 55.3141 42.291 55.4215 42.291 55.5469C42.5059 55.5469 42.6133 55.5111 42.6133 55.4395C43.3294 55.5111 43.8665 55.5469 44.2246 55.5469H44.7617C47.3398 55.5469 48.6289 55.153 48.6289 54.3652C48.6289 53.8639 49.0228 52.4674 49.8105 50.1758C50.4372 50.2474 50.7952 50.2832 50.8848 50.2832C52.5319 50.2832 54.3939 50.0684 56.4707 49.6387H57.0078C57.0794 49.6387 57.1152 49.6029 57.1152 49.5312L57.3301 49.6387C58.5117 49.4954 59.2995 49.4238 59.6934 49.4238C60.6243 49.4238 61.0898 49.7819 61.0898 50.498C61.3405 53.6491 61.806 55.2246 62.4863 55.2246H62.5938C63.8112 55.0814 64.5273 55.0098 64.7422 55.0098C65.709 55.153 66.3177 55.2246 66.5684 55.2246L69.5762 54.5801H69.791V54.2578C68.7884 52.6644 68.0007 51.1247 67.4277 49.6387C66.5146 48.7614 65.6553 47.3649 64.8496 45.4492C64.1514 44.7868 63.0413 42.2087 61.5195 37.7148C60.9466 35.7275 60.6602 34.2952 60.6602 33.418C59.5501 29.9805 58.6908 28.0827 58.082 27.7246C58.082 27.4561 57.2943 27.277 55.7188 27.1875C54.7161 27.2591 53.8568 27.2949 53.1406 27.2949V27.4023L52.9258 27.2949H52.3887C51.5114 27.1517 50.7952 27.0801 50.2402 27.0801ZM43.4727 40.293C43.2936 40.293 42.8639 41.7253 42.1836 44.5898C41.6286 46.1475 40.7692 49.585 39.6055 54.9023C39.319 55.6185 39.0326 56.6211 38.7461 57.9102H38.8535C39.7845 57.6058 40.25 56.6748 40.25 55.1172C40.805 54.401 41.5212 52.5033 42.3984 49.4238C43.0967 48.0094 43.9202 45.861 44.8691 42.9785C45.8717 40.9912 46.9818 36.6585 48.1992 29.9805V29.7656C47.501 30.6429 45.9255 34.152 43.4727 40.293ZM55.0742 30.9473C55.3607 31.2516 55.5039 31.5381 55.5039 31.8066C55.3607 32.5765 55.2891 33.0778 55.2891 33.3105C56.5065 34.0625 57.1152 34.7786 57.1152 35.459C57.9746 38.6637 58.6549 40.8838 59.1562 42.1191C59.1562 42.7995 58.9056 43.6947 58.4043 44.8047C58.4043 45.1986 58.2253 45.485 57.8672 45.6641C57.6882 45.5208 57.5449 45.4492 57.4375 45.4492C56.0768 45.4492 54.179 45.8789 51.7441 46.7383C51.4219 46.7383 51.1712 46.5234 50.9922 46.0938C51.7083 43.5335 52.3171 40.9196 52.8184 38.252C53.0153 37.8044 53.266 37.0166 53.5703 35.8887C53.4271 35.6201 53.3555 35.3337 53.3555 35.0293C53.3555 34.5996 53.4987 34.3848 53.7852 34.3848V33.8477C53.7852 32.8092 54.2148 31.8424 55.0742 30.9473ZM54.3223 36.4258C53.821 38.3057 53.3913 40.4183 53.0332 42.7637V42.8711H53.7852C55.9336 42.6204 57.0078 42.3698 57.0078 42.1191V41.9043C56.1484 38.3952 55.4681 36.6406 54.9668 36.6406L54.6445 36.4258H54.3223ZM50.1328 53.1836C49.6315 54.3652 49.3809 55.2962 49.3809 55.9766V56.6211H49.4883C49.9896 56.6211 50.3835 56.6927 50.6699 56.8359C50.8132 56.8359 50.8848 56.8001 50.8848 56.7285L51.959 56.8359H53.1406L53.7852 56.7285C53.9105 56.8001 54.0537 56.8359 54.2148 56.8359C56.3633 56.7106 57.4375 56.2809 57.4375 55.5469C58.3685 53.4342 58.834 52.3242 58.834 52.2168H58.7266C57.6523 52.2168 55.0026 52.5391 50.7773 53.1836H50.1328ZM58.5117 55.7617L58.6191 56.2988C58.6191 56.5495 58.2969 56.9792 57.6523 57.5879C57.6523 58.3219 57.9746 59.0381 58.6191 59.7363L60.6602 56.1914L60.0156 53.1836C59.013 53.9355 58.5117 54.7949 58.5117 55.7617ZM65.2793 57.6953H65.0645C64.9033 57.5879 64.6169 57.4805 64.2051 57.373C61.6986 57.373 60.4453 57.6953 60.4453 58.3398L58.9414 60.918C59.2816 61.9206 59.6038 62.4219 59.9082 62.4219C60.2663 62.2786 60.5527 62.207 60.7676 62.207L65.0645 63.0664C65.6911 61.9027 66.9443 59.9691 68.8242 57.2656V56.9434L65.2793 57.6953ZM40.5723 58.125L39.8203 59.7363H39.9277L41.5391 59.5215L41.9688 59.6289L42.5059 59.5215C43.8665 59.6468 44.6185 59.8258 44.7617 60.0586C45.3167 59.611 45.818 59.0381 46.2656 58.3398L46.0508 58.2324H45.9434C45.7822 58.2324 45.639 58.2682 45.5137 58.3398C45.4421 58.3398 45.4062 58.304 45.4062 58.2324L44.1172 58.3398H43.1504C42.1299 58.1966 41.2705 58.125 40.5723 58.125ZM58.7534 0.922852C60.7586 1.19141 61.7612 1.80013 61.7612 2.74902C62.4058 5.81055 62.728 7.77995 62.728 8.65723C62.728 9.15853 62.549 10.1253 62.1909 11.5576C62.3341 11.9157 62.4416 12.0947 62.5132 12.0947C62.5132 12.3096 61.5464 13.8851 59.6128 16.8213C59.6128 16.9824 58.8966 18.1999 57.4644 20.4736C57.4644 21.2256 57.2137 22.0492 56.7124 22.9443C56.6408 22.9443 56.4259 22.8011 56.0679 22.5146C56.0679 22.64 55.8172 22.8548 55.3159 23.1592C55.1906 22.9801 54.5461 22.5146 53.3823 21.7627C53.3823 21.6732 52.4155 20.8138 50.4819 19.1846C48.6379 16.696 47.6711 14.6191 47.5815 12.9541C47.5815 10.8594 48.7274 7.70833 51.019 3.50098C53.4897 1.99707 54.8504 1.24512 55.1011 1.24512C55.7993 1.10189 57.0168 0.994466 58.7534 0.922852ZM52.5229 5.32715V6.0791C52.5229 9.17643 53.991 11.2891 56.9272 12.417C57.1421 12.3454 57.2495 12.2738 57.2495 12.2021L57.7866 12.3096H58.1089C60.6154 12.041 61.8687 11.1816 61.8687 9.73145V9.08691C61.4748 5.72103 60.866 4.03809 60.0425 4.03809C60.0425 3.93066 59.3621 3.78743 58.0015 3.6084C55.1369 3.80534 53.7046 4.1276 53.7046 4.5752C52.9168 4.5752 52.5229 4.82585 52.5229 5.32715ZM56.605 4.36035H57.3569C58.1447 4.62891 58.5386 5.30924 58.5386 6.40137V6.50879C58.1984 9.37337 57.4823 10.8057 56.3901 10.8057C55.5308 10.8057 55.1011 9.91048 55.1011 8.12012C55.1011 6.65202 55.6024 5.39876 56.605 4.36035ZM51.019 6.29395C49.6584 9.24805 48.9064 10.9668 48.7632 11.4502C49.4614 14.0999 50.7147 16.1051 52.5229 17.4658C53.6688 18.4147 54.564 19.3457 55.2085 20.2588H55.3159C56.8377 17.9492 58.091 16.2305 59.0757 15.1025C59.1831 15.1025 59.3263 14.9593 59.5054 14.6729V14.5654H59.2905C59.022 14.5654 58.1626 14.7803 56.7124 15.21H56.4976C55.5487 15.013 54.367 14.2969 52.9526 13.0615C52.2365 12.417 51.6994 11.0563 51.3413 8.97949C51.1981 8.20964 51.1265 7.60091 51.1265 7.15332L51.2339 6.40137L51.019 6.29395ZM56.2827 7.47559L56.605 7.69043C56.981 7.69043 57.2316 7.5472 57.3569 7.26074C57.0884 7.0459 56.8735 6.93848 56.7124 6.93848C56.4259 7.01009 56.2827 7.18913 56.2827 7.47559ZM94.5249 27.6172C96.1899 28.3333 97.3 28.6914 97.855 28.6914C97.855 28.763 98.3563 28.7988 99.3589 28.7988H100.003L100.755 28.9062V28.7988C103.692 29.515 106.234 29.873 108.382 29.873H108.597C108.902 29.873 109.188 29.8372 109.457 29.7656L109.994 29.873L111.498 29.7656C112.07 29.7656 113.288 30.0163 115.15 30.5176C115.58 30.8398 116.081 31.1263 116.654 31.377C116.725 31.5023 116.761 31.6455 116.761 31.8066V32.2363C116.564 32.4691 116.278 34.0088 115.902 36.8555L116.009 37.2852C115.436 38.252 115.15 38.8607 115.15 39.1113L114.72 39.0039C114.38 39.2008 113.27 39.4157 111.39 39.6484C111.283 39.7917 110.781 39.9349 109.886 40.0781V43.9453C110.101 47.5439 110.423 51.1247 110.853 54.6875L110.746 55.332V55.5469C110.746 56.2272 110.71 57.0508 110.638 58.0176L110.746 58.4473C110.746 60.6494 110.423 61.9027 109.779 62.207V62.4219H109.671C108.543 62.4219 107.505 62.6367 106.556 63.0664C106.27 62.9948 106.019 62.959 105.804 62.959C105.106 63.4066 103.602 63.8005 101.292 64.1406C100.899 64.069 100.576 64.0332 100.326 64.0332C100.326 64.1764 100.254 64.248 100.111 64.248C99.9318 64.248 99.7886 63.9616 99.6812 63.3887H99.3589C99.2515 63.3887 98.7502 63.9258 97.855 65H97.6401C97.6401 64.4987 97.4253 64.248 96.9956 64.248C96.924 64.1227 96.8882 63.9795 96.8882 63.8184C96.8882 61.9743 96.8166 60.721 96.6733 60.0586L96.7808 59.8438C96.2078 53.3089 95.6707 48.9404 95.1694 46.7383C95.3127 46.5055 95.3843 46.2907 95.3843 46.0938V45.7715H95.2769C93.8088 45.9147 92.8062 45.9863 92.269 45.9863H91.4097C89.8341 45.5924 89.0464 44.9837 89.0464 44.1602C89.0464 43.0859 90.2996 41.0807 92.8062 38.1445C92.8778 37.1419 92.9494 36.6048 93.021 36.5332L92.9136 36.3184C92.9852 35.0293 93.2 33.2389 93.5581 30.9473L93.3433 30.8398H93.1284C91.6961 31.7887 90.5503 33.1136 89.6909 34.8145V35.1367C89.6909 35.3695 89.7267 35.5485 89.7983 35.6738L89.6909 36.3184V36.4258C89.6909 36.6406 89.7267 36.748 89.7983 36.748C89.5119 40.9733 89.1896 43.0859 88.8315 43.0859V43.1934H88.5093L88.4019 42.5488C88.4735 40.2751 88.5093 38.6279 88.5093 37.6074C88.5093 36.9808 88.4377 35.9424 88.2944 34.4922C88.7599 33.0062 89.0822 32.2184 89.2612 32.1289H89.4761C89.4761 32.3438 89.5477 32.4512 89.6909 32.4512C91.3381 29.9089 92.5197 28.5482 93.2358 28.3691H93.7729C93.7729 28.0469 94.0236 27.7962 94.5249 27.6172ZM94.6323 31.5918C94.2026 32.3796 93.9162 33.7044 93.7729 35.5664C93.8446 35.9424 93.8804 36.3005 93.8804 36.6406V36.9629C95.0799 37.8939 96.6554 38.3594 98.6069 38.3594C99.4663 38.3594 99.896 38.0729 99.896 37.5C99.9139 37.3568 99.9855 37.2852 100.111 37.2852H100.326C100.72 37.8581 100.97 38.1445 101.078 38.1445C101.561 38.0729 101.955 38.0371 102.259 38.0371H102.474V38.1445C102.277 38.9323 102.098 39.3262 101.937 39.3262L102.044 39.541C102.044 39.7559 101.722 40.1139 101.078 40.6152V44.0527C101.078 44.3929 101.042 44.751 100.97 45.127C101.042 45.4134 101.078 45.6641 101.078 45.8789C100.433 51.5007 100.111 54.9382 100.111 56.1914V56.6211C100.111 59.2708 100.29 60.5957 100.648 60.5957C101.149 60.7389 101.579 60.8105 101.937 60.8105H103.226C104.032 60.8105 105.822 60.5957 108.597 60.166L109.242 60.2734C109.51 60.2734 109.725 60.166 109.886 59.9512L109.779 58.6621V57.2656C109.779 57.0329 109.815 56.8538 109.886 56.7285C109.17 50.7308 108.74 47.4365 108.597 46.8457L108.705 45.8789C108.705 45.5745 108.633 45.2165 108.49 44.8047C108.49 41.6536 109.027 38.9323 110.101 36.6406L110.316 36.5332H111.498C111.963 36.5332 112.429 36.569 112.894 36.6406C113.181 36.569 113.467 36.5332 113.753 36.5332L115.042 36.6406V36.2109C115.042 35.9782 115.114 35.4769 115.257 34.707H115.15C115.293 34.1699 115.365 33.4896 115.365 32.666H113.646C113.395 32.666 113.073 32.7018 112.679 32.7734C112.59 32.7018 112.339 32.666 111.927 32.666H111.712C111.641 32.666 111.605 32.7018 111.605 32.7734L111.39 32.666C110.423 32.7376 109.707 32.7734 109.242 32.7734V32.8809C109.098 32.8092 108.991 32.7734 108.919 32.7734C108.526 32.7734 107.988 32.8451 107.308 32.9883C107.236 32.9883 107.201 32.9525 107.201 32.8809L106.449 32.9883H105.375C105.088 32.9883 104.623 32.9167 103.978 32.7734C103.906 32.7734 103.871 32.8092 103.871 32.8809C102.295 32.4512 99.6453 32.1289 95.9214 31.9141C95.5454 31.7171 95.1515 31.6097 94.7397 31.5918H94.6323ZM90.98 42.4414V42.7637C91.4455 42.9069 91.7677 42.9785 91.9468 42.9785H92.5913C93.8804 42.9785 95.1336 42.9069 96.3511 42.7637C96.6375 42.9069 96.8524 42.9785 96.9956 42.9785C97.3358 42.8174 97.6938 42.3161 98.0698 41.4746C97.9982 41.3314 97.9624 41.224 97.9624 41.1523H97.2104L96.5659 41.0449L96.3511 41.1523C94.7935 40.7227 93.8625 40.5078 93.5581 40.5078C92.7703 40.7764 91.911 41.4209 90.98 42.4414ZM96.7808 45.7715C97.4969 52.8613 97.855 57.946 97.855 61.0254L97.7476 61.9922L97.855 62.207C97.7834 62.3324 97.7476 62.4756 97.7476 62.6367V62.7441C97.855 62.7441 97.9982 62.6009 98.1772 62.3145V61.5625C98.1772 61.0612 98.3563 60.8105 98.7144 60.8105L99.144 61.0254C99.144 60.9538 99.1799 60.918 99.2515 60.918L99.144 60.166V59.7363C99.144 58.9128 99.1082 58.1608 99.0366 57.4805C99.6812 51.3395 100.003 47.3649 100.003 45.5566C100.003 44.8584 99.9676 43.5693 99.896 41.6895L99.6812 41.582C98.0877 43.6768 97.1209 45.0732 96.7808 45.7715ZM126.053 22.3535C126.698 23.1413 128.452 23.5352 131.317 23.5352C132.767 23.5352 134.45 23.2129 136.366 22.5684L136.473 22.7832V23.1055C136.473 23.3203 136.043 24.1797 135.184 25.6836V25.8984C135.184 26.3639 135.22 26.8294 135.292 27.2949L135.184 27.832L135.292 28.584C135.077 29.9089 134.969 31.2695 134.969 32.666C134.969 33.3822 135.005 34.4564 135.077 35.8887L134.969 36.6406C135.112 37.4284 135.184 38.3236 135.184 39.3262V39.7559C134.951 48.3496 134.665 53.6491 134.325 55.6543C134.325 55.8154 134.361 55.9587 134.432 56.084C134.432 56.818 132.534 59.611 128.739 64.4629L128.094 65H127.879L127.772 64.248V63.8184C127.772 63.2454 128.452 62.2786 129.813 60.918C129.813 60.8464 130.672 59.6647 132.391 57.373V57.0508C128.989 56.9792 127.02 56.9434 126.483 56.9434C126.286 56.9434 125.713 57.9818 124.764 60.0586C126.913 60.363 127.987 60.9717 127.987 61.8848V61.9922C127.79 63.0664 127.396 63.6035 126.805 63.6035H126.698C124.478 63.3171 123.045 63.0306 122.401 62.7441C122.222 62.7441 122.007 61.8848 121.756 60.166V58.9844C121.756 58.8232 121.721 58.68 121.649 58.5547C121.649 58.4831 121.685 58.4473 121.756 58.4473C121.685 57.2656 121.649 56.3704 121.649 55.7617V52.3242C121.649 52.0199 121.613 51.7334 121.542 51.4648C121.613 51.1784 121.649 50.8919 121.649 50.6055V49.5312C121.649 48.7614 121.685 48.2243 121.756 47.9199C121.613 46.2012 121.542 42.9785 121.542 38.252V37.9297L121.649 37.2852C121.506 36.8555 121.434 35.9245 121.434 34.4922V34.0625L122.616 31.0547C124.191 28.4587 124.979 26.8115 124.979 26.1133L124.764 25.791V25.6836C124.764 24.7705 125.086 23.6605 125.731 22.3535H126.053ZM129.813 26.7578H127.02L127.665 35.2441L127.557 35.459V35.5664C127.557 35.7812 127.593 35.8887 127.665 35.8887L127.557 36.5332C127.557 37.9834 127.486 38.986 127.342 39.541C127.414 40.0244 127.45 40.4183 127.45 40.7227V41.582C127.45 43.8737 127.378 45.6283 127.235 46.8457L127.342 47.0605L127.235 47.2754L127.342 47.9199C127.199 50.4622 127.127 52.2168 127.127 53.1836H127.235L131.317 53.6133H131.747C132.123 53.6133 132.731 53.5775 133.573 53.5059C133.788 52.6107 133.895 51.6797 133.895 50.7129C133.895 50.3369 133.859 50.0146 133.788 49.7461C133.859 49.0299 133.931 46.4876 134.002 42.1191C134.002 41.5999 133.895 38.7354 133.68 33.5254C133.895 32.111 134.002 31.001 134.002 30.1953H133.895L134.002 29.9805C133.949 28.9242 133.806 28.0648 133.573 27.4023C133.716 26.8652 133.788 26.5788 133.788 26.543C133.716 26.543 133.68 26.5072 133.68 26.4355C131.711 26.6504 130.422 26.7578 129.813 26.7578ZM122.831 33.6328V35.0293C122.831 35.835 122.795 36.8734 122.723 38.1445L122.831 38.3594C122.831 38.431 122.795 38.5384 122.723 38.6816C122.723 39.4694 122.759 40.651 122.831 42.2266C122.759 49.3343 122.723 54.5264 122.723 57.8027C122.866 58.7695 122.938 59.3783 122.938 59.6289V59.9512H123.045C123.135 59.9512 123.314 59.4141 123.583 58.3398C123.726 58.3398 124.37 57.3372 125.516 55.332C125.749 55.1888 125.928 55.1172 126.053 55.1172V53.8281C126.053 53.667 126.017 53.5238 125.946 53.3984C126.161 52.1094 126.268 49.0658 126.268 44.2676V43.5156C126.268 43.1755 126.232 42.8174 126.161 42.4414C126.214 41.8864 126.286 40.5973 126.375 38.5742C126.232 35.083 125.91 31.8604 125.409 28.9062H125.301C124.066 31.001 123.242 32.5765 122.831 33.6328ZM148.585 23.75C148.943 23.75 149.158 23.8932 149.229 24.1797L149.767 24.0723C150.035 24.0723 150.214 24.5378 150.304 25.4688H150.411C150.572 24.6094 150.68 24.1797 150.733 24.1797C150.805 24.1797 150.912 24.1439 151.056 24.0723L151.7 24.1797H151.808C151.879 24.1797 151.915 24.1439 151.915 24.0723L152.13 24.1797H153.956C155.693 24.0365 156.66 23.9648 156.856 23.9648H157.071C157.644 23.9648 157.931 24.5378 157.931 25.6836C157.931 26.3281 157.966 26.8652 158.038 27.2949C157.966 27.4023 157.931 27.6172 157.931 27.9395H158.038L157.931 28.1543C157.931 28.6735 157.966 29.4971 158.038 30.625C158.038 32.8271 157.859 35.7275 157.501 39.3262L157.608 39.7559C157.537 41.0091 157.501 41.7611 157.501 42.0117C157.859 45.7536 158.038 47.9378 158.038 48.5645C158.217 48.7077 158.36 48.7793 158.468 48.7793L162.872 48.457C164.483 48.5286 165.486 48.5645 165.88 48.5645C165.951 48.5645 165.987 48.5286 165.987 48.457L166.524 48.5645H168.028C168.888 48.5645 169.317 48.7077 169.317 48.9941V49.5312C169.461 50.7845 169.64 51.7513 169.854 52.4316L169.747 52.6465V53.3984C170.034 54.4727 170.177 55.0456 170.177 55.1172C169.693 56.1735 168.476 58.3936 166.524 61.7773C166.524 62.3861 166.238 63.138 165.665 64.0332C165.665 64.1048 165.558 64.1764 165.343 64.248C164.483 64.1764 163.839 64.1406 163.409 64.1406C162.89 64.3555 162.568 64.4629 162.442 64.4629C159.721 64.5524 158.36 64.6598 158.36 64.7852L157.608 64.6777H155.567C155.496 64.6777 155.209 64.7493 154.708 64.8926H153.419C153.258 64.8926 153.115 64.9284 152.989 65C152.864 64.9284 152.721 64.8926 152.56 64.8926C152.416 64.8926 152.345 64.9284 152.345 65L151.808 64.8926H150.948C146.437 64.1764 143.966 63.7467 143.536 63.6035L143.429 63.0664C143.644 62.2965 143.751 61.5446 143.751 60.8105C143.751 59.3604 143.644 57.8923 143.429 56.4062L143.536 56.1914C143.447 55.2783 143.375 54.777 143.321 54.6875L143.429 54.043V53.8281C143.429 53.1478 143.393 52.3242 143.321 51.3574C143.321 51.2858 143.357 51.1784 143.429 51.0352L143.106 44.5898C143.106 44.5182 143.142 44.4108 143.214 44.2676L143.106 43.1934C143.106 42.4056 143.071 40.0781 142.999 36.2109L142.892 35.459C142.963 35.3158 142.999 35.2083 142.999 35.1367C142.927 34.7428 142.892 34.349 142.892 33.9551C143.429 32.1647 143.858 31.2337 144.181 31.1621C144.413 31.3053 144.628 31.377 144.825 31.377H144.933C146.58 28.3154 147.403 26.5609 147.403 26.1133C147.94 24.5378 148.334 23.75 148.585 23.75ZM153.849 26.8652C153.365 26.7936 152.971 26.7578 152.667 26.7578H150.304C150.375 27.9395 150.411 28.8346 150.411 29.4434V30.5176C150.196 32.0931 150.089 33.9551 150.089 36.1035V38.1445C150.089 38.4847 150.053 38.8428 149.981 39.2188C150.053 39.4873 150.089 39.8096 150.089 40.1855V42.4414C150.089 42.6025 150.125 42.7458 150.196 42.8711C150.196 42.9427 150.16 42.9785 150.089 42.9785L150.196 44.2676V44.6973C150.196 45.0016 150.16 45.3955 150.089 45.8789C150.089 45.9505 150.125 45.9863 150.196 45.9863L150.089 47.0605V49.1016C150.089 50.3548 149.91 52.2168 149.552 54.6875H150.519C157.949 55.1888 162.532 55.5469 164.269 55.7617C166.56 55.7617 168.207 55.5111 169.21 55.0098C169.21 54.5264 168.959 52.9867 168.458 50.3906H167.169C166.417 50.3906 165.271 50.4264 163.731 50.498V50.6055L163.517 50.498L157.823 51.25C157.25 51.25 156.964 50.4264 156.964 48.7793C156.463 46.0579 156.212 44.3392 156.212 43.623V41.9043C156.212 40.3646 156.319 38.7891 156.534 37.1777C156.463 36.5511 156.427 36.1572 156.427 35.9961C156.498 34.4564 156.534 33.3822 156.534 32.7734L156.427 32.3438C156.427 32.2721 156.463 32.2363 156.534 32.2363C156.463 31.5918 156.391 29.873 156.319 27.0801C156.212 26.7936 156.104 26.6504 155.997 26.6504H155.567C154.726 26.6504 154.153 26.722 153.849 26.8652ZM144.503 36.1035L144.61 36.748V37.2852C144.61 38.0729 144.575 38.4668 144.503 38.4668C144.575 39.2008 144.61 39.7738 144.61 40.1855V44.4824L144.718 45.127L144.61 45.3418C144.61 45.3955 144.646 45.682 144.718 46.2012C144.718 46.7025 144.682 46.9889 144.61 47.0605C144.682 48.2601 144.718 49.1911 144.718 49.8535V54.7949L144.61 55.4395C144.754 55.7617 144.825 56.2272 144.825 56.8359V58.9844C144.825 59.056 144.861 59.0918 144.933 59.0918L144.825 59.3066V59.4141H145.147C146.061 57.4089 147.171 56.084 148.478 55.4395C148.764 53.7386 148.907 52.5212 148.907 51.7871C148.907 51.2321 148.871 50.7308 148.8 50.2832C148.871 49.5312 148.907 48.7077 148.907 47.8125V47.5977C148.907 46.1654 148.836 45.4492 148.692 45.4492C148.692 45.3776 148.728 45.3418 148.8 45.3418C148.728 44.0169 148.692 43.0501 148.692 42.4414V39.6484L148.585 39.0039C148.585 38.9323 148.621 38.8965 148.692 38.8965L148.585 37.9297C148.728 34.1341 148.836 32.0215 148.907 31.5918C148.907 31.2874 148.728 29.8551 148.37 27.2949H148.263L144.61 33.9551C144.61 35.3874 144.575 36.1035 144.503 36.1035ZM164.161 58.125C164.036 58.0534 163.893 58.0176 163.731 58.0176H163.302C163.23 58.0176 163.194 58.0534 163.194 58.125C163.069 58.0534 162.711 57.9818 162.12 57.9102C160.527 58.1966 159.417 58.3398 158.79 58.3398C156.158 58.1966 154.404 58.125 153.526 58.125H151.485C150.877 58.125 149.91 58.1608 148.585 58.2324L148.263 57.8027C148.066 57.8027 147.35 58.5547 146.114 60.0586V60.2734C149.104 61.276 154.081 61.7773 161.046 61.7773V61.6699L161.261 61.7773H161.583C161.798 61.7773 161.905 61.7415 161.905 61.6699L162.442 61.7773H162.979C163.445 61.7773 163.91 61.7415 164.376 61.6699C164.627 61.7415 164.985 61.7773 165.45 61.7773C165.504 61.5088 166.184 60.3988 167.491 58.4473C167.491 58.2682 167.634 57.9818 167.921 57.5879V57.373H167.599C166.327 57.8027 165.182 58.0534 164.161 58.125ZM227.137 23.4814C227.334 23.4814 229.268 24.0902 232.938 25.3076C233.332 26.2386 233.941 26.7041 234.764 26.7041H235.086V26.9189C235.086 27.653 234.585 29.9805 233.583 33.9014C233.224 36.39 232.58 38.7891 231.649 41.0986C229.429 47.4186 228.319 51.5007 228.319 53.3447C227.961 56.1019 227.459 58.1071 226.815 59.3604C226.618 59.3604 226.403 59.2887 226.17 59.1455C226.17 59.3962 225.168 60.5062 223.163 62.4756C221.515 63.693 220.692 64.445 220.692 64.7314C220.692 64.8926 220.584 65.1074 220.37 65.376C218.722 64.7314 217.612 64.4092 217.04 64.4092V64.5166C215.392 64.3734 213.96 64.0511 212.743 63.5498C212.599 63.3171 212.528 63.138 212.528 63.0127C212.528 61.0612 213.208 59.4141 214.569 58.0713C215.786 56.2451 216.395 55.2783 216.395 55.1709C215.321 50.0326 214.533 46.9531 214.032 45.9326C213.029 44.0169 212.528 42.9069 212.528 42.6025H212.42C212.241 42.7637 211.991 43.6947 211.668 45.3955C211.096 46.7204 210.809 47.5439 210.809 47.8662C212.027 52.8971 212.635 56.4062 212.635 58.3936C212.635 58.7337 212.492 59.235 212.206 59.8975H212.098C211.633 59.0739 211.06 56.9613 210.379 53.5596C210.021 52.7181 209.806 52.002 209.735 51.4111H209.627C209.251 52.0378 208.786 54.0072 208.231 57.3193C207.658 58.6621 207.3 59.3783 207.157 59.4678H205.975C205.581 59.4678 205.044 60.0765 204.364 61.2939C203.29 62.6367 202.752 63.3529 202.752 63.4424C202.824 63.5856 202.86 63.693 202.86 63.7646C202.735 64.0869 202.52 64.3376 202.215 64.5166H201.571L200.926 64.624C200.711 64.624 199.852 64.266 198.348 63.5498C196.397 63.2633 195.358 63.1201 195.233 63.1201C193.299 62.9232 192.333 62.7083 192.333 62.4756L192.225 62.2607L192.547 60.0049C191.115 55.5648 190.399 51.7692 190.399 48.6182C190.399 46.4697 189.432 41.2061 187.499 32.8271V32.0752C187.875 29.9268 188.268 28.8525 188.68 28.8525H188.895L189.217 29.0674C190.274 27.277 190.918 26.3818 191.151 26.3818L192.01 25.6299C192.404 25.7731 193.908 26.0238 196.522 26.3818V26.2744C197.525 26.2744 198.527 27.098 199.53 28.7451C199.53 29.139 200.318 33.4717 201.893 41.7432L202.323 43.1396H202.538V42.8174C202.538 39.165 203.039 35.835 204.042 32.8271C203.97 32.7018 203.934 32.5586 203.934 32.3975V32.29C204.364 31.2158 205.438 29.7477 207.157 27.8857C207.157 27.7067 207.622 27.098 208.553 26.0596C208.696 25.4867 208.84 25.2002 208.983 25.2002C211.257 25.6299 212.689 26.0238 213.28 26.3818H213.602C213.674 26.3818 213.709 26.346 213.709 26.2744C216.431 26.9189 217.792 27.3844 217.792 27.6709L220.477 39.3799C220.531 39.4336 220.781 40.293 221.229 41.958H221.444V41.0986C221.444 40.1139 221.48 38.8249 221.551 37.2314C221.551 37.1598 221.515 37.124 221.444 37.124L221.551 36.5869C221.551 33.8656 221.301 32.5049 220.799 32.5049C220.943 31.0726 222.661 28.2438 225.956 24.0186C226.332 23.929 226.725 23.75 227.137 23.4814ZM222.84 30.4639C222.84 30.6429 222.876 31.6097 222.948 33.3643C222.59 39.9528 222.124 43.2471 221.551 43.2471V43.3545C221.551 44.0169 221.659 45.0911 221.874 46.5771H221.981C222.5 46.2907 223.073 44.8584 223.7 42.2803C223.986 39.5052 224.38 36.9271 224.881 34.5459C224.881 33.7581 225.311 30.8577 226.17 25.8447H226.063C225.168 26.9548 224.094 28.4945 222.84 30.4639ZM226.815 26.8115C226.099 30.0342 225.741 32.2542 225.741 33.4717C225.741 33.8835 225.383 35.9245 224.667 39.5947C224.667 42.1191 223.879 44.9837 222.303 48.1885C222.142 48.1885 221.891 48.4391 221.551 48.9404C221.301 48.6361 220.835 46.7741 220.155 43.3545C220.155 43.1934 219.653 41.6895 218.651 38.8428C217.863 35.0651 217.183 32.2721 216.61 30.4639C215.894 28.8525 215.536 27.9215 215.536 27.6709C215.357 27.6709 214.712 27.9932 213.602 28.6377H213.495C213.119 28.6377 211.937 28.4229 209.95 27.9932C209.663 27.9932 209.126 29.2106 208.338 31.6455C206.19 38.7354 204.793 43.5335 204.149 46.04C203.451 47.5439 202.985 48.3317 202.752 48.4033H202.645C201.571 45.8252 200.711 42.5309 200.067 38.5205C199.118 33.6507 198.402 30.4997 197.918 29.0674C197.739 28.9242 197.596 28.8525 197.489 28.8525C196.826 29.0674 196.218 29.1748 195.663 29.1748C195.215 29.1748 194.284 29.139 192.87 29.0674C192.744 29.139 192.601 29.1748 192.44 29.1748C193.228 32.8988 194.051 38.1982 194.911 45.0732C195.108 45.6462 195.358 46.6488 195.663 48.0811C196.379 50.6771 196.88 53.0404 197.167 55.1709L197.381 55.2783L199.1 54.9561C201.32 54.9561 203.146 55.3499 204.579 56.1377C205.044 56.2809 205.366 56.3525 205.545 56.3525H206.512C207.228 56.3525 207.73 55.3499 208.016 53.3447C208.428 51.1605 209.323 48.2601 210.702 44.6436C210.899 44.2139 211.364 42.0296 212.098 38.0908C212.277 37.6611 212.42 37.4463 212.528 37.4463H212.958C213.405 39.2367 214.3 41.5999 215.643 44.5361C215.643 44.6077 216.109 46.8278 217.04 51.1963C217.38 53.5596 217.845 54.7412 218.436 54.7412C218.919 54.7412 219.6 55.0277 220.477 55.6006C220.817 55.6006 221.712 55.9945 223.163 56.7822C224.631 56.6748 225.526 56.5674 225.848 56.46L226.063 56.5674H226.815C227.066 56.5674 227.352 54.9202 227.674 51.626C228.283 48.5645 228.892 46.4518 229.5 45.2881C229.787 43.7663 230.431 41.6895 231.434 39.0576C231.721 39.0576 232.544 35.2262 233.905 27.5635C233.797 27.277 233.69 27.1338 233.583 27.1338H233.475C233.224 27.4202 232.831 27.6351 232.293 27.7783C231.201 27.4919 229.662 27.2054 227.674 26.9189C227.674 26.8473 227.567 26.8115 227.352 26.8115H226.815ZM208.446 27.8857C208.446 28.2617 207.407 29.5866 205.331 31.8604C204.042 35.8708 203.397 39.917 203.397 43.999C203.182 43.999 203.003 44.3213 202.86 44.9658C202.931 45.109 202.967 45.2165 202.967 45.2881H203.075C203.415 45.2881 204.095 43.2829 205.116 39.2725C206.709 34.2236 208.034 30.4997 209.09 28.1006C208.858 27.9574 208.643 27.8857 208.446 27.8857ZM189.217 31.2158V31.6455L191.366 43.3545C191.581 45.7357 191.688 47.6335 191.688 49.0479L191.795 49.585C191.724 49.7103 191.688 49.8535 191.688 50.0146C192.189 53.291 192.762 55.9766 193.407 58.0713H193.622C194.982 56.7106 195.877 56.0303 196.307 56.0303H196.737L196.844 55.4932C196.594 55.2604 196.056 53.6491 195.233 50.6592C194.911 50.6592 194.445 48.7972 193.836 45.0732C193.192 40.5257 192.153 35.262 190.721 29.2822H190.614C190.524 29.2822 190.059 29.9268 189.217 31.2158ZM214.032 60.4346V60.7568C218.042 62.0638 220.298 62.8874 220.799 63.2275H221.229C221.874 61.9922 222.518 61.097 223.163 60.542C223.306 60.6136 223.413 60.6494 223.485 60.6494C223.628 60.6494 223.986 60.2197 224.559 59.3604V59.1455H224.452C223.592 59.2887 223.091 59.3604 222.948 59.3604C222.482 59.3604 221.874 59.0739 221.122 58.501H219.833C217.827 57.8385 216.825 57.373 216.825 57.1045V56.8896H216.717C216.109 57.4805 215.213 58.6621 214.032 60.4346ZM195.233 59.1455C195.09 59.0739 194.982 59.0381 194.911 59.0381L194.159 59.79V60.0049C194.248 60.166 195.466 60.4525 197.811 60.8643L200.282 62.0459C200.819 62.3145 201.249 62.5651 201.571 62.7979H201.678C203.397 61.1507 204.256 59.9691 204.256 59.2529C203.093 58.5368 201.839 58.1787 200.497 58.1787C200.21 58.2324 200.067 58.304 200.067 58.3936C199.959 58.3219 199.387 58.2503 198.348 58.1787C196.486 58.2145 195.555 58.501 195.555 59.0381C195.484 59.0381 195.376 59.0739 195.233 59.1455ZM262.237 24.8242H262.667C262.882 24.8242 263.025 25.1107 263.097 25.6836H263.204C264.135 25.6836 264.601 25.9342 264.601 26.4355C263.58 27.0264 263.007 27.4919 262.882 27.832V27.9395L262.345 33.7402C262.488 34.0088 262.56 34.2952 262.56 34.5996V34.9219C262.56 35.4232 262.201 36.0319 261.485 36.748C260.984 36.748 260.733 36.4616 260.733 35.8887H259.337L258.692 35.9961L253.858 35.1367C253.572 35.2083 253.429 35.4232 253.429 35.7812V36.8555L253.321 37.9297C256.956 38.6458 259.212 39.0397 260.089 39.1113C260.375 39.0397 260.662 39.0039 260.948 39.0039H261.378C261.539 39.0039 261.646 38.8249 261.7 38.4668H262.022C262.076 38.4668 262.184 38.5742 262.345 38.7891C262.345 39.1292 262.094 41.2777 261.593 45.2344V45.4492C261.593 45.6104 261.629 45.7536 261.7 45.8789C261.432 47.0247 261.002 47.5977 260.411 47.5977V47.4902C260.25 47.5618 259.426 47.7051 257.94 47.9199C256.383 47.8483 255.273 47.7051 254.61 47.4902H253.858C253.715 47.5081 253.644 47.5798 253.644 47.7051V48.8867C253.644 49.4954 253.608 50.3906 253.536 51.5723C254.485 51.8587 255.523 52.1094 256.651 52.3242L257.081 52.2168C259.391 52.4854 261.002 52.9508 261.915 53.6133L262.022 53.8281L261.808 54.1504V55.4395C260.16 55.0098 259.265 54.7949 259.122 54.7949C259.05 54.7949 259.015 54.8307 259.015 54.9023L258.263 54.7949H257.081C256.365 54.8128 256.007 54.8844 256.007 55.0098C255.917 55.0098 255.094 54.9023 253.536 54.6875C252.892 54.7233 252.569 54.9023 252.569 55.2246H252.462C252.319 55.2246 252.247 55.153 252.247 55.0098C252.319 53.1836 252.39 52.1452 252.462 51.8945L251.925 46.7383C252.193 45.0195 252.516 44.1602 252.892 44.1602C253.25 44.2676 253.429 44.7331 253.429 45.5566L254.181 45.3418L257.618 45.7715H258.692C259.981 45.7715 260.626 45.3776 260.626 44.5898C260.912 41.8506 261.056 40.4183 261.056 40.293H260.841C260.286 41.0807 259.176 41.4746 257.511 41.4746H256.759C256.687 41.4746 256.651 41.5104 256.651 41.582C255.756 41.3672 254.861 41.2598 253.966 41.2598H253.429C253.303 41.2777 252.838 41.8864 252.032 43.0859H251.71C251.71 42.8711 251.674 42.7637 251.603 42.7637L251.71 42.5488C251.853 39.6126 251.925 37.9297 251.925 37.5C251.925 36.5869 251.746 35.9066 251.388 35.459C251.817 34.0804 252.319 33.1494 252.892 32.666H253.321C253.321 32.8809 255.434 33.2031 259.659 33.6328H260.841C261.056 32.5944 261.163 31.0189 261.163 28.9062V28.3691H260.411C259.391 28.8704 256.096 29.6224 250.528 30.625C248.702 30.4102 247.27 30.1595 246.231 29.873H246.017V29.9805L245.909 30.9473C245.909 31.0905 245.945 31.1621 246.017 31.1621C245.587 41.5104 245.05 48.0273 244.405 50.7129C244.334 52.2884 244.298 53.3268 244.298 53.8281C244.298 54.5264 244.62 55.6006 245.265 57.0508C245.372 57.0508 245.694 56.9792 246.231 56.8359L251.388 57.5879C251.424 57.5879 251.567 57.5521 251.817 57.4805C255.72 57.7132 258.657 57.9997 260.626 58.3398L261.7 56.9434C261.772 56.818 261.808 56.639 261.808 56.4062C261.951 56.4242 262.022 56.4958 262.022 56.6211C262.022 57.7311 261.629 58.4473 260.841 58.7695C260.626 59.1276 260.519 59.4141 260.519 59.6289V60.8105C260.519 61.1328 260.053 61.3477 259.122 61.4551C259.122 61.7773 257.797 62.1712 255.147 62.6367C255.13 62.8516 254.342 63.138 252.784 63.4961C252.408 63.6751 251.441 63.89 249.884 64.1406C248.738 64.6419 247.628 64.8926 246.554 64.8926H244.62C244.549 64.8926 244.513 64.9284 244.513 65C243.779 64.7852 242.812 64.6777 241.612 64.6777H240.538C240.108 64.6777 239.894 64.3913 239.894 63.8184H239.786C239.607 63.9616 239.5 64.0332 239.464 64.0332C239.321 64.0332 239.249 63.9616 239.249 63.8184C239.249 63.6214 239.535 62.9411 240.108 61.7773L239.571 52.3242C239.643 51.9482 239.679 51.7334 239.679 51.6797C239.464 50.6055 239.356 49.6387 239.356 48.7793L239.464 48.3496C239.321 48.0811 239.249 47.7946 239.249 47.4902V46.2012C239.249 46.1296 239.213 46.0938 239.142 46.0938L239.249 45.8789L238.712 35.2441C239.177 32.9525 239.607 31.8066 240.001 31.8066H240.108L240.431 32.0215H240.538C243.618 28.96 245.3 26.9189 245.587 25.8984L245.802 25.791C248.398 26.9368 250.009 27.5098 250.636 27.5098C252.498 27.5098 256.186 26.9727 261.7 25.8984C261.7 25.8089 261.879 25.4508 262.237 24.8242ZM240.538 33.9551C240.538 35.2083 240.502 35.9961 240.431 36.3184C240.502 37.6432 240.538 38.9323 240.538 40.1855V43.1934C240.538 43.265 240.574 43.3008 240.646 43.3008L240.538 43.5156V43.7305C240.538 44.0169 240.574 44.1602 240.646 44.1602L240.538 44.9121V52.1094C240.538 52.4137 240.502 52.8076 240.431 53.291C240.502 53.3984 240.538 53.6133 240.538 53.9355C240.538 54.0967 240.502 54.2399 240.431 54.3652L240.646 58.2324C240.574 58.5189 240.538 58.7695 240.538 58.9844C240.592 59.7005 240.699 60.0586 240.86 60.0586C241.075 59.056 241.433 58.3398 241.935 57.9102C242.06 57.9102 242.49 57.5521 243.224 56.8359C243.224 56.6569 243.188 56.3704 243.116 55.9766C243.116 55.2425 243.438 51.4827 244.083 44.6973C244.083 43.8737 244.155 42.513 244.298 40.6152C244.298 40.5436 244.262 40.5078 244.19 40.5078L244.298 39.4336V37.2852C244.298 36.2288 244.334 35.2262 244.405 34.2773C244.334 33.6507 244.262 32.5049 244.19 30.8398C244.334 30.6071 244.405 30.3923 244.405 30.1953V30.0879H244.19C244.011 30.2669 242.794 31.556 240.538 33.9551ZM256.759 59.5215H256.114C255.989 59.5215 255.667 59.6289 255.147 59.8438C254.915 59.8438 254.736 59.8079 254.61 59.7363C254.127 59.8079 253.733 59.8438 253.429 59.8438H252.569C252.211 59.8438 251.782 59.7721 251.28 59.6289C251.119 59.6289 250.976 59.6647 250.851 59.7363L248.595 59.5215L248.38 59.6289C247.467 59.5573 246.5 59.4499 245.479 59.3066C244.889 59.5036 243.779 60.0049 242.149 60.8105V60.7031C242.006 60.7747 241.899 60.8105 241.827 60.8105V61.1328C244.745 61.849 246.894 62.207 248.272 62.207C249.902 62.207 252.193 61.9206 255.147 61.3477L255.362 61.4551L259.444 60.7031L260.089 59.6289V59.4141L259.552 59.3066H258.263L257.726 59.1992L257.618 59.4141C257.69 59.4141 257.726 59.4499 257.726 59.5215L257.511 59.6289H257.403V59.5215L257.511 59.3066L256.974 59.1992C256.83 59.1992 256.759 59.3066 256.759 59.5215ZM279.747 25.5762C283.757 26.0775 286.192 26.6862 287.052 27.4023C287.553 27.8678 288.842 28.3691 290.919 28.9062C295.037 30.5892 297.472 31.6634 298.224 32.1289C298.564 32.5049 298.814 33.042 298.976 33.7402C298.438 35.9603 297.472 37.6074 296.075 38.6816C295.986 38.6816 295.735 38.9681 295.323 39.541V39.6484C295.431 40.0065 296.326 40.4362 298.009 40.9375C298.618 41.4209 299.047 42.4235 299.298 43.9453L299.513 46.5234C298.868 49.6745 298.546 51.4648 298.546 51.8945V52.9688C298.546 53.4521 298.152 54.1683 297.364 55.1172C297.275 56.4958 296.38 58.1787 294.679 60.166C291.886 62.0638 289.558 63.1738 287.696 63.4961C285.637 64.4987 284.241 65 283.507 65C283.346 65 282.2 64.6777 280.069 64.0332H279.962L279.747 64.1406C279.514 64.069 278.798 63.9616 277.599 63.8184C277.312 63.9437 276.524 64.0869 275.235 64.248C272.944 63.9079 271.798 63.1559 271.798 61.9922H271.476C271.476 62.028 271.44 62.1712 271.368 62.4219H271.261C270.938 62.4219 270.58 61.2044 270.187 58.7695C270.133 58.7516 269.775 58.1787 269.112 57.0508C269.112 56.7822 269.47 56.3883 270.187 55.8691V50.498C270.187 50.3906 270.115 49.8177 269.972 48.7793V48.0273C269.972 47.8662 269.936 47.723 269.864 47.5977C269.936 47.4723 269.972 47.3291 269.972 47.168C269.757 45.3239 269.578 44.1781 269.435 43.7305L269.542 43.5156C269.184 39.6305 268.826 36.4795 268.468 34.0625C268.468 33.3105 268.826 32.5228 269.542 31.6992C270.025 31.6992 270.348 32.2363 270.509 33.3105L270.724 33.418C272.568 31.1442 274.609 29.139 276.847 27.4023C277.097 27.4023 277.455 26.9368 277.921 26.0059L278.458 25.6836L279.103 25.791L279.747 25.5762ZM278.673 28.9062C278.673 28.9779 278.637 29.0137 278.565 29.0137C278.565 31.6455 278.1 38.1266 277.169 48.457H277.276L277.169 48.6719C277.097 51.1068 277.062 52.6465 277.062 53.291H277.169C277.169 53.3626 277.133 53.3984 277.062 53.3984C277.062 55.6185 277.312 56.7285 277.813 56.7285C277.813 56.8359 277.921 56.9434 278.136 57.0508H278.458C278.53 55.7617 278.673 55.1172 278.888 55.1172C279.067 55.1172 279.246 55.9049 279.425 57.4805C280.159 58.6979 281.054 59.3066 282.11 59.3066C282.11 59.4499 282.361 59.5215 282.862 59.5215C284.778 59.5215 287.571 58.8053 291.241 57.373C293.085 56.1914 294.947 55.153 296.827 54.2578L297.794 53.291V52.8613C297.794 52.2705 298.045 50.3369 298.546 47.0605V46.0938C298.546 43.5156 297.83 42.2266 296.397 42.2266C295.699 42.2266 295.234 41.9043 295.001 41.2598C294.285 40.8838 293.927 40.4899 293.927 40.0781V39.9707C293.927 39.541 294.607 38.7891 295.968 37.7148C297.257 36.4616 297.901 35.4232 297.901 34.5996C297.901 33.8835 297.364 33.5254 296.29 33.5254C296.004 33.2031 295.108 32.8809 293.604 32.5586C291.778 31.556 289.451 30.8398 286.622 30.4102C285.727 29.4076 283.22 28.9062 279.103 28.9062H278.673ZM270.831 34.5996V34.707C270.831 35.1009 270.795 35.6022 270.724 36.2109C270.867 36.4437 270.938 36.6227 270.938 36.748C271.01 38.4847 271.046 39.5947 271.046 40.0781L270.938 40.8301C271.01 40.9733 271.046 41.0807 271.046 41.1523L270.938 41.3672L271.046 42.0117C271.046 42.1012 271.01 42.4593 270.938 43.0859C271.082 43.3187 271.153 43.5335 271.153 43.7305C271.153 43.9811 271.118 44.3034 271.046 44.6973L271.153 44.9121L271.046 45.3418L271.153 46.3086C271.153 46.5771 271.082 47.3649 270.938 48.6719C270.938 48.7435 270.974 48.7793 271.046 48.7793C270.974 49.4059 270.938 49.7998 270.938 49.9609C270.938 51.5544 270.867 53.5954 270.724 56.084C270.867 56.4779 271.153 57.8743 271.583 60.2734V61.1328H271.905C271.905 60.9896 273.194 59.9154 275.772 57.9102C276.274 57.3372 276.524 56.9076 276.524 56.6211C276.381 55.6543 276.31 55.0456 276.31 54.7949V53.291C276.31 52.36 276.238 51.7155 276.095 51.3574C276.166 49.5492 276.274 47.6156 276.417 45.5566C276.417 45.485 276.381 45.4492 276.31 45.4492L276.417 44.6973V44.4824C276.417 42.9606 276.489 41.2061 276.632 39.2188H276.524C276.668 38.7891 276.739 37.8581 276.739 36.4258C276.739 36.3542 276.703 36.3184 276.632 36.3184L276.739 36.1035V33.0957C276.739 32.7555 276.775 32.3975 276.847 32.0215C276.775 31.7529 276.739 31.4307 276.739 31.0547V29.1211H276.524C275.755 30.1237 274.43 31.3411 272.55 32.7734L270.831 34.5996ZM285.118 32.666H285.333C285.476 32.666 285.584 32.9167 285.655 33.418C285.512 34.7428 285.44 35.9245 285.44 36.9629C285.44 37.3926 285.87 37.6074 286.729 37.6074C287.285 37.6074 288.395 37.2135 290.06 36.4258C290.274 36.4258 290.382 36.2826 290.382 35.9961C290.382 35.4232 290.131 35.1367 289.63 35.1367H288.985C288.806 35.2799 288.699 35.3516 288.663 35.3516H288.556C287.446 34.3132 286.622 33.7402 286.085 33.6328V33.418C286.085 33.3105 286.443 33.0599 287.159 32.666H287.481C288.663 33.1673 289.845 33.5254 291.026 33.7402C291.277 33.973 291.563 34.7249 291.886 35.9961C292.244 36.3184 292.423 36.569 292.423 36.748C292.244 37.3747 291.814 37.9476 291.134 38.4668H290.919C290.919 38.1803 290.776 38.0371 290.489 38.0371C289.845 38.0371 289.343 38.252 288.985 38.6816V38.7891H289.2V39.1113C288.771 39.1113 288.556 39.1829 288.556 39.3262C288.341 39.3262 288.233 39.2188 288.233 39.0039H288.019C286.479 39.8633 285.548 40.293 285.226 40.293C284.295 40.293 283.829 39.6484 283.829 38.3594C283.829 35.5664 284.259 33.6686 285.118 32.666ZM288.126 41.3672C288.126 41.8148 289.129 42.1729 291.134 42.4414C291.134 42.6742 291.707 43.0322 292.853 43.5156C293.64 44.0706 294.034 44.4645 294.034 44.6973C293.73 45.6462 293.515 47.2933 293.39 49.6387C292.853 50.9993 291.957 51.6797 290.704 51.6797C290.364 51.6797 289.433 52.2168 287.911 53.291C287.356 53.6491 286.998 53.8281 286.837 53.8281C284.832 53.8281 283.829 53.1836 283.829 51.8945C283.829 50.9814 283.793 50.3727 283.722 50.0684C284.133 46.5234 284.527 44.554 284.903 44.1602L284.796 43.623C285.655 42.1908 286.479 41.4746 287.267 41.4746C287.786 41.403 288.072 41.3672 288.126 41.3672ZM285.655 43.1934C285.655 43.2471 285.691 43.5335 285.763 44.0527C285.763 44.3392 285.548 45.8431 285.118 48.5645C285.118 49.9072 285.44 50.7666 286.085 51.1426C286.604 51.3574 286.926 51.4648 287.052 51.4648H287.589C288.036 51.4648 288.86 51.1068 290.06 50.3906C291.617 49.9788 292.441 49.6924 292.53 49.5312V48.3496C292.53 48.278 292.494 48.2422 292.423 48.2422L292.96 45.9863C290.722 43.9811 289.003 42.9785 287.804 42.9785C287.589 42.9785 287.231 42.9069 286.729 42.7637H286.515C286.282 42.9427 285.995 43.0859 285.655 43.1934ZM291.134 44.9121C291.205 45.127 291.277 45.2344 291.349 45.2344C291.188 45.9147 290.615 46.6667 289.63 47.4902C289.487 47.6693 289.415 47.8125 289.415 47.9199H289.2C289.057 47.9199 288.985 47.8483 288.985 47.7051C289.558 46.3265 290.06 45.4671 290.489 45.127C290.722 44.9837 290.937 44.9121 291.134 44.9121ZM283.829 61.0254L283.399 60.8105L282.433 60.918C280.141 60.5062 278.995 59.7542 278.995 58.6621L277.813 58.125L277.276 58.2324L276.739 58.125C276.095 58.7516 274.841 59.8258 272.979 61.3477C273.57 61.9922 275.11 62.3145 277.599 62.3145H278.78C279.461 62.3145 281.215 62.7799 284.044 63.7109H284.151C288.502 62.4935 291.438 61.3118 292.96 60.166C294.016 60.166 295.162 58.8411 296.397 56.1914C296.612 55.708 296.72 55.4215 296.72 55.332H296.612C295.753 55.887 294.5 56.5674 292.853 57.373L290.167 59.3066C286.174 60.3092 284.062 60.8822 283.829 61.0254ZM326.395 25.5762C329.188 26.3281 330.584 26.9727 330.584 27.5098V28.4766L331.229 28.9062V29.0137C330.423 30.804 329.564 33.0957 328.651 35.8887C328.579 35.8887 328.543 35.9245 328.543 35.9961V36.1035C328.543 36.3363 328.579 36.5153 328.651 36.6406C328.526 37.5179 328.347 38.055 328.114 38.252V38.3594C328.114 38.8786 328.006 39.9528 327.792 41.582C329.474 43.5693 330.334 44.6794 330.37 44.9121C330.37 44.9479 330.799 46.3444 331.659 49.1016C331.659 52.0378 330.584 54.8307 328.436 57.4805C328.078 57.9102 327.899 58.1608 327.899 58.2324L328.114 58.3398H328.221C328.436 58.3398 328.543 58.1966 328.543 57.9102H328.758C328.758 58.125 328.973 58.2324 329.403 58.2324V58.5547C327.792 60.0228 326.144 61.1328 324.461 61.8848C324.461 62.4577 320.63 63.1022 312.967 63.8184C312.967 63.9795 312.905 64.0601 312.779 64.0601C312.743 64.0601 312.654 64.0422 312.511 64.0063C312.385 63.9705 312.323 63.8721 312.323 63.7109H311.786C311.607 63.7109 311.392 63.7288 311.141 63.7646C310.89 63.8005 310.497 63.8184 309.959 63.8184L309.422 63.9258C309.422 63.8005 308.849 63.6572 307.704 63.4961C307.704 63.3529 307.632 63.2812 307.489 63.2812H307.167C307.095 63.2812 307.059 63.3171 307.059 63.3887C306.343 63.1738 305.985 62.7441 305.985 62.0996L305.555 60.918C305.484 58.0534 305.34 56.6211 305.125 56.6211C305.412 54.043 305.734 52.7539 306.092 52.7539C308.599 51.8766 309.852 51.1963 309.852 50.7129C310.21 49.4238 310.389 48.7077 310.389 48.5645H310.711C311.034 48.8867 311.857 49.388 313.182 50.0684H314.042L315.116 49.9609V49.8535C314.901 49.4238 313.54 48.8151 311.034 48.0273C310.371 47.4544 309.512 46.416 308.456 44.9121C306.576 42.6383 305.501 40.096 305.233 37.2852C305.108 37.2852 305.036 36.9271 305.018 36.2109V35.459C305.018 34.0267 305.269 33.3105 305.77 33.3105C307.739 31.7708 309.709 30.5534 311.678 29.6582C312.538 28.3691 313.182 27.7246 313.612 27.7246C315.116 26.722 316.906 26.2207 318.983 26.2207C318.983 26.1491 319.234 26.0417 319.735 25.8984L319.95 26.0059L326.395 25.5762ZM321.883 28.6914H320.487C318.482 29.1927 316.476 29.5508 314.471 29.7656C312.824 30.3564 312 31.1442 312 32.1289C311.499 33.418 311.249 34.8145 311.249 36.3184C311.249 37.679 311.965 38.9323 313.397 40.0781C315.76 42.3698 317.014 43.5156 317.157 43.5156C318.213 44.2676 319.681 44.9121 321.561 45.4492C322.42 45.9505 323.029 46.8457 323.387 48.1348V48.7793C323.387 50.8203 322.707 52.2168 321.346 52.9688L319.627 53.291H317.694C316.87 53.291 315.545 53.1836 313.719 52.9688C313.433 53.0404 313.182 53.0762 312.967 53.0762L311.034 52.4316L310.926 53.5059V55.0098C310.926 55.2246 312.788 55.9766 316.512 57.2656C318.75 57.7669 320.147 58.0176 320.702 58.0176H322.098C322.259 58.0176 322.403 58.0534 322.528 58.125C326.825 56.818 328.973 55.708 328.973 54.7949C330.047 53.6491 330.584 52.4316 330.584 51.1426C329.564 47.7767 328.776 46.0938 328.221 46.0938C326.574 43.8379 325.213 42.6204 324.139 42.4414C322.814 41.1882 321.203 40.293 319.305 39.7559C318.661 38.7891 318.338 38.0371 318.338 37.5V37.0703C318.643 35.7633 319.037 34.5101 319.52 33.3105C320.218 32.4512 320.755 32.0215 321.131 32.0215C322.814 32.0215 324.39 32.8451 325.858 34.4922C326.359 34.6175 326.61 34.7249 326.61 34.8145C327.756 34.8145 328.329 34.3132 328.329 33.3105C329.26 31.4486 329.725 30.3385 329.725 29.9805C329.528 29.9805 329.063 29.694 328.329 29.1211L325.428 28.3691H323.709C323.011 28.584 322.403 28.6914 321.883 28.6914ZM308.348 33.7402V35.9961C308.76 38.4847 309.225 40.3109 309.745 41.4746C311.929 45.3418 313.827 47.2754 315.438 47.2754C317.175 48.3496 318.177 48.8867 318.446 48.8867C318.446 49.1732 318.804 49.5312 319.52 49.9609H320.165C320.952 49.9609 321.382 49.8535 321.454 49.6387C321.454 49.1553 320.2 48.5465 317.694 47.8125C316.423 47.1322 314.632 45.6283 312.323 43.3008C310.461 42.0296 309.53 40.1318 309.53 37.6074C309.816 35.6917 310.246 33.7581 310.819 31.8066V31.6992H310.711C309.136 32.9346 308.348 33.6149 308.348 33.7402ZM319.842 35.9961C320.039 36.5332 320.827 37.0345 322.206 37.5L323.817 38.3594C324.873 39.362 325.697 39.8633 326.288 39.8633C326.431 39.0039 326.502 38.3236 326.502 37.8223V37.7148C326.323 37.7148 326.001 37.8223 325.536 38.0371C325.231 38.0371 324.372 37.3926 322.958 36.1035C322.313 35.7454 321.847 35.5664 321.561 35.5664C320.415 35.6201 319.842 35.7633 319.842 35.9961ZM306.522 38.4668C306.594 38.9681 306.701 39.2188 306.844 39.2188V39.1113L306.737 38.4668H306.522ZM306.844 54.043C306.844 54.3652 306.952 54.8665 307.167 55.5469C307.095 55.6722 307.059 55.8154 307.059 55.9766V56.084C307.059 56.1556 307.095 56.1914 307.167 56.1914L306.952 56.7285C307.238 56.7285 307.489 57.8027 307.704 59.9512H307.811C307.668 60.1839 307.596 60.3988 307.596 60.5957C307.596 60.7031 308.097 60.8822 309.1 61.1328V61.0254C310.049 61.3118 310.622 61.4551 310.819 61.4551V61.3477C311.159 61.3477 311.768 61.4909 312.645 61.7773H315.868C315.939 61.7773 315.975 61.7415 315.975 61.6699L316.19 61.7773C317.067 61.7057 317.783 61.5983 318.338 61.4551L318.768 61.6699C318.768 61.4551 319.019 61.3477 319.52 61.3477V61.1328L318.983 61.2402H318.446C317.157 60.8105 316.262 60.5957 315.76 60.5957C311.821 59.432 309.852 58.7516 309.852 58.5547C309.78 58.5547 309.709 57.8027 309.637 56.2988C309.709 55.2246 309.745 54.4727 309.745 54.043H309.637L309.745 53.8281V52.4316C307.811 52.915 306.844 53.4521 306.844 54.043ZM328.329 58.6621V58.7695H328.651V58.4473H328.543C328.4 58.4652 328.329 58.5368 328.329 58.6621ZM369.391 23.374C370.035 23.374 370.357 24.484 370.357 26.7041C370.357 28.0827 370.25 30.2311 370.035 33.1494L370.143 33.3643C370.143 33.5075 370.107 33.5791 370.035 33.5791C370.107 34.2057 370.143 34.5638 370.143 34.6533C370.071 37.3926 370.035 38.8965 370.035 39.165L370.143 39.3799C370.143 39.4515 370.107 39.4873 370.035 39.4873C370.178 41.2598 370.25 42.4414 370.25 43.0322C370.107 44.6436 370.035 45.8252 370.035 46.5771C370.035 47.7409 370.107 48.8151 370.25 49.7998C369.946 55.2425 369.516 57.9639 368.961 57.9639C368.836 57.8923 368.692 57.8564 368.531 57.8564C368.227 58.8053 367.511 60.1302 366.383 61.8311C366.096 62.3861 365.953 62.7799 365.953 63.0127C366.669 63.6035 367.027 63.9258 367.027 63.9795C366.956 64.1943 366.884 64.3018 366.812 64.3018L367.027 64.7314C366.92 65.0179 366.812 65.1611 366.705 65.1611H366.598C364.592 63.6572 362.408 62.7979 360.045 62.583C359.4 62.5472 359.078 62.4756 359.078 62.3682L358.541 61.5088C358.541 61.0612 358.72 60.7389 359.078 60.542C359.078 57.5163 358.72 55.2246 358.004 53.667V53.5596C358.004 53.1299 358.827 51.3753 360.475 48.2959L360.582 47.6514C359.562 47.3649 358.595 47.2217 357.682 47.2217H357.574C357.234 47.2217 356.876 47.2575 356.5 47.3291C355.748 47.1859 354.996 47.1143 354.244 47.1143C353.814 48.2243 353.6 49.2985 353.6 50.3369V52.7002C353.313 55.8691 352.883 57.7669 352.311 58.3936C352.024 58.3936 351.666 59.3604 351.236 61.2939C350.502 63.2275 349.464 65.3044 348.121 67.5244V67.7393H348.229L349.195 67.6318C349.339 67.8109 349.41 67.9541 349.41 68.0615L349.303 69.0283H349.41C349.41 70.2458 348.551 70.8545 346.832 70.8545C344.684 70.6934 343.609 70.5143 343.609 70.3174L343.395 70.4248L339.312 69.6729C338.382 65.9489 337.916 60.8285 337.916 54.3115L337.809 53.5596L337.916 53.3447C337.361 48.1169 337.003 43.641 336.842 39.917C336.77 39.917 336.734 39.6663 336.734 39.165L337.379 37.9834L337.594 38.0908H337.701L338.775 35.835C341.354 31.7529 342.643 29.139 342.643 27.9932C342.857 26.5609 343.323 25.8447 344.039 25.8447C344.737 25.8447 346.42 25.6299 349.088 25.2002C349.983 25.3434 350.592 25.415 350.914 25.415L352.74 24.9854C352.812 25.1286 352.848 25.236 352.848 25.3076C352.49 26.8294 352.311 28.5482 352.311 30.4639V33.1494C352.311 33.5075 352.275 34.0446 352.203 34.7607C352.919 35.262 353.886 35.5127 355.104 35.5127H355.426C355.891 35.5127 356.249 35.0114 356.5 34.0088C358.505 30.4102 359.508 28.2975 359.508 27.6709C359.633 27.0264 359.776 26.7041 359.938 26.7041H360.045L360.367 28.208C360.17 29.3359 359.168 31.0905 357.359 33.4717C356.858 34.3311 356.464 34.904 356.178 35.1904C356.196 35.3337 356.267 35.4053 356.393 35.4053C356.625 35.4053 357.27 35.3337 358.326 35.1904C358.451 35.262 358.631 35.2979 358.863 35.2979C359.866 35.1725 360.367 34.7428 360.367 34.0088L360.689 32.9346C360.618 32.4512 360.582 32.0573 360.582 31.7529V31.1084C360.922 27.1696 361.388 25.2002 361.979 25.2002C362.945 25.2002 364.807 24.7705 367.564 23.9111C368.066 23.6963 368.674 23.5173 369.391 23.374ZM361.979 28.96C362.014 29.6761 362.086 30.0342 362.193 30.0342C362.193 31.001 361.728 33.1136 360.797 36.3721C360.493 37.9476 360.17 38.7354 359.83 38.7354L359.186 38.6279C358.792 38.6995 358.505 38.7354 358.326 38.7354C358.111 38.7354 357.861 38.6995 357.574 38.6279C357.234 38.6279 356.124 38.7354 354.244 38.9502C353.725 38.8786 353.438 38.8428 353.385 38.8428C353.242 38.9144 353.134 38.9502 353.062 38.9502C351.702 38.61 351.021 38.252 351.021 37.876C351.093 34.7965 351.129 32.4333 351.129 30.7861V30.1416C351.147 29.2822 351.218 28.8525 351.344 28.8525C351.272 28.7093 351.236 28.6019 351.236 28.5303C351.004 28.5303 350.825 28.5661 350.699 28.6377C349.732 28.5661 349.016 28.5303 348.551 28.5303C347.727 28.5303 346.546 28.6735 345.006 28.96C345.292 30.9294 345.471 33.1494 345.543 35.6201L345.436 36.1572C345.436 36.3184 345.471 36.4616 345.543 36.5869C345.543 37.124 345.436 39.5589 345.221 43.8916V46.1475C345.221 46.2191 345.257 46.2549 345.328 46.2549L345.221 46.4697V46.8994C345.221 48.0811 345.185 49.012 345.113 49.6924C345.113 49.8535 345.149 50.2474 345.221 50.874C345.149 52.4674 345.113 53.9714 345.113 55.3857V56.3525C345.113 56.4242 345.149 56.46 345.221 56.46L345.113 56.6748V57.3193C345.131 57.4626 345.203 57.5342 345.328 57.5342C347.906 56.6032 349.231 56.1377 349.303 56.1377L351.881 54.8486C352.149 53.846 352.364 51.5902 352.525 48.0811C353.242 45.1449 353.779 43.6768 354.137 43.6768C354.441 43.8737 355.444 44.0527 357.145 44.2139C357.61 44.1423 358.076 44.1064 358.541 44.1064C361.334 44.4108 362.73 44.9479 362.73 45.7178C362.802 46.3981 362.838 47.0426 362.838 47.6514C362.838 48.1169 362.802 48.7256 362.73 49.4775C363.071 52.9867 363.321 54.7412 363.482 54.7412C363.644 54.7412 365.434 54.9202 368.854 55.2783C369.068 54.5264 369.212 53.4163 369.283 51.9482L368.961 48.7256L369.176 45.2881L368.746 40.2393C368.818 40.1318 368.854 39.917 368.854 39.5947C368.854 39.4515 368.818 39.3799 368.746 39.3799C368.746 39.2367 368.782 39.165 368.854 39.165C368.782 37.876 368.746 37.0166 368.746 36.5869C368.746 34.9398 368.782 32.3258 368.854 28.7451C368.674 27.5277 368.46 26.9189 368.209 26.9189H367.994C367.493 26.9189 365.882 27.4202 363.16 28.4229C362.408 28.4229 362.014 28.6019 361.979 28.96ZM343.287 30.0342C342.302 32.3079 340.548 35.4948 338.023 39.5947V39.917C338.023 41.958 338.453 48.9404 339.312 60.8643C339.312 60.9359 339.277 60.9717 339.205 60.9717C339.277 62.2607 339.492 64.1585 339.85 66.665H340.064C340.226 66.665 340.44 66.2712 340.709 65.4834C340.494 65.4297 340.351 65.2865 340.279 65.0537C340.548 62.9053 340.906 61.8311 341.354 61.8311C342.356 60.7031 342.857 60.0228 342.857 59.79C342.786 59.3962 342.75 59.0739 342.75 58.8232V58.7158C343.609 58.304 344.039 57.9102 344.039 57.5342C344.039 57.373 344.075 57.2298 344.146 57.1045C344.146 57.0508 344.111 56.7643 344.039 56.2451C344.111 54.1325 344.146 52.557 344.146 51.5186H344.039L344.146 51.3037V50.9814C344.146 50.695 344.111 50.5518 344.039 50.5518L344.146 49.7998V45.2881C344.29 43.5514 344.361 42.5846 344.361 42.3877V42.2803C344.361 42.2087 344.326 42.1729 344.254 42.1729C344.326 42.0296 344.361 41.9222 344.361 41.8506L344.254 40.3467C344.326 40.0602 344.361 39.8096 344.361 39.5947H344.254L344.361 39.3799V38.6279C344.361 38.252 344.397 37.9297 344.469 37.6611C344.326 34.5817 344.039 32.0394 343.609 30.0342H343.287ZM361.549 48.1885C361.083 49.4596 360.582 50.5339 360.045 51.4111C359.329 52.557 358.971 53.2373 358.971 53.4521C359.472 55.5827 359.723 57.373 359.723 58.8232H359.83C360.045 58.6442 360.833 57.4268 362.193 55.1709V54.7412C361.835 52.6465 361.656 51.3932 361.656 50.9814C361.728 50.2295 361.764 49.4059 361.764 48.5107V48.4033C361.764 48.2601 361.692 48.1885 361.549 48.1885ZM362.193 57.4268L359.938 60.542C359.938 60.6852 359.973 60.7568 360.045 60.7568C362.337 61.3298 364.02 61.8669 365.094 62.3682C366.598 59.9333 367.35 58.4294 367.35 57.8564L367.135 57.749H366.705C364.915 57.6058 363.984 57.5342 363.912 57.5342V57.6416L363.697 57.5342H363.59C363.339 57.5342 363.017 57.57 362.623 57.6416L362.193 57.4268ZM341.783 66.8799C343.502 67.4528 345.257 67.7393 347.047 67.7393C347.208 66.3428 347.745 65.0179 348.658 63.7646C350.162 61.2223 350.914 59.5752 350.914 58.8232H350.484L346.188 60.3271C345.042 60.7031 344.469 61.2402 344.469 61.9385C344.093 62.583 343.591 63.335 342.965 64.1943C342.965 64.3734 342.571 65.2686 341.783 66.8799ZM393.346 19.7754C393.489 19.847 393.596 19.8828 393.668 19.8828C394.026 19.8828 394.563 19.9186 395.279 19.9902L396.246 19.8828C396.819 20.0977 397.965 20.3125 399.684 20.5273C401.277 20.8138 402.602 21.3509 403.658 22.1387C405.574 23.6068 407.543 25.6478 409.566 28.2617C410.336 29.1032 411.124 31.2516 411.93 34.707C412.431 35.6738 412.682 36.9629 412.682 38.5742C412.682 40.0423 412.324 42.3698 411.607 45.5566C411.679 45.6999 411.715 45.8073 411.715 45.8789L411.5 46.416H411.607C410.981 49.4238 410.336 50.9277 409.674 50.9277C409.065 51.9124 408.17 53.7386 406.988 56.4062C405.735 58.3219 403.622 59.8975 400.65 61.1328C398.538 62.8158 396.926 63.7109 395.816 63.8184C394.402 64.5345 393.113 64.8926 391.949 64.8926H390.982C390.911 64.8926 390.875 64.9284 390.875 65L390.66 64.8926H390.23C388.798 64.8926 386.9 64.1048 384.537 62.5293C382.729 61.1865 381.332 59.5752 380.348 57.6953C379.381 56.1377 378.414 53.2373 377.447 48.9941C377.376 48.7256 377.268 47.5081 377.125 45.3418C377.68 39.2367 378.611 34.4743 379.918 31.0547C382.245 24.681 384.537 21.4941 386.793 21.4941C386.829 21.7806 386.936 21.9238 387.115 21.9238H387.223C387.688 21.5658 388.046 21.3867 388.297 21.3867H388.404C388.709 21.6732 388.995 21.8164 389.264 21.8164C390.911 20.4557 392.271 19.7754 393.346 19.7754ZM386.578 26.4355L386.686 25.3613H386.471C384.913 27.0085 383.875 29.0853 383.355 31.5918C383.069 32.7018 382.854 33.8477 382.711 35.0293C382.711 40.5257 383.176 44.0706 384.107 45.6641C384.68 47.723 385.611 49.2627 386.9 50.2832C389.21 51.6439 391.215 52.3242 392.916 52.3242C394.026 52.3242 395.279 52.4316 396.676 52.6465C397.983 52.2347 399.737 51.8766 401.939 51.5723C405.305 49.943 407.167 48.9762 407.525 48.6719C410.247 44.7331 411.607 42.0833 411.607 40.7227C411.679 40.3825 411.715 39.8812 411.715 39.2188C411.715 38.9502 411.035 36.6227 409.674 32.2363C408.385 30.446 406.666 28.4408 404.518 26.2207C402.763 24.6452 400.579 23.8574 397.965 23.8574C396.765 23.4993 395.226 23.2845 393.346 23.2129C391.376 23.2129 389.299 24.2871 387.115 26.4355H386.578ZM378.521 43.7305V45.127C378.521 46.792 379.202 49.585 380.562 53.5059C381.404 55.2962 382.693 57.0508 384.43 58.7695C386.292 59.8796 387.223 60.5241 387.223 60.7031H387.652L390.338 61.3477C393.668 61.3477 397.464 60.0944 401.725 57.5879C403.372 57.1761 404.41 56.6032 404.84 55.8691C405.878 55.3499 407.096 53.7386 408.492 51.0352C408.85 50.5339 409.029 50.2116 409.029 50.0684H408.814C407.311 52.1273 405.52 53.4521 403.443 54.043C402.262 55.0456 400.65 55.5469 398.609 55.5469C397.786 55.9766 396.962 56.1914 396.139 56.1914C392.647 55.9766 390.571 55.6543 389.908 55.2246C387.563 54.2399 385.808 53.0225 384.645 51.5723C382.639 48.4033 381.637 44.2855 381.637 39.2188C381.565 38.7354 381.493 38.4131 381.422 38.252C381.422 34.5638 382.281 30.446 384 25.8984C384.072 25.8984 384.107 25.8626 384.107 25.791V25.5762H383.893C383.391 25.7194 382.245 28.1543 380.455 32.8809C379.166 37.6074 378.521 41.224 378.521 43.7305ZM396.354 25.791C396.801 25.8984 397.589 26.3281 398.717 27.0801C399.791 27.6351 401.008 28.8167 402.369 30.625C402.745 31.2874 403.246 33.1136 403.873 36.1035C403.945 36.4795 403.98 36.8376 403.98 37.1777C403.622 43.4082 402.477 46.9173 400.543 47.7051C399.397 48.3496 398.215 48.6719 396.998 48.6719C395.763 48.6719 394.259 47.3828 392.486 44.8047C390.553 42.9785 389.586 41.2598 389.586 39.6484V39.4336C389.586 35.3874 390.624 31.8424 392.701 28.7988C393.507 27.653 394.116 27.0801 394.527 27.0801H394.635L394.85 27.1875C395.261 26.2565 395.763 25.791 396.354 25.791ZM394.85 29.6582V30.0879C396.031 31.1979 397.141 33.7402 398.18 37.7148C398.323 39.0755 398.395 40.2214 398.395 41.1523H398.502C398.359 42.5309 398.144 43.8558 397.857 45.127V45.3418C398.985 45.3418 400.274 44.8405 401.725 43.8379C402.656 41.7611 403.121 39.9349 403.121 38.3594C403.121 37.3568 402.656 35.6022 401.725 33.0957C400.077 30.8757 398.287 29.4792 396.354 28.9062H395.709C395.297 29.139 395.011 29.3896 394.85 29.6582ZM390.875 38.1445V38.4668C392.809 41.3314 394.456 43.3724 395.816 44.5898H396.031C396.031 44.4466 396.425 43.7305 397.213 42.4414V41.6895C397.213 40.1676 396.568 37.9118 395.279 34.9219C394.706 34.0267 393.847 33.1673 392.701 32.3438V32.2363H392.594C391.448 33.8298 390.875 35.7992 390.875 38.1445ZM430.702 20.3125C431.668 20.3125 432.743 20.4915 433.924 20.8496C434.068 20.778 434.175 20.7422 434.247 20.7422C434.354 21.0107 435.5 21.4046 437.684 21.9238C439.958 22.819 441.784 24.0723 443.163 25.6836C445.239 28.2438 446.278 30.7145 446.278 33.0957C445.83 36.6764 445.078 38.9323 444.022 39.8633C443.485 41.2419 442.697 42.2087 441.659 42.7637C441.014 43.1038 439.403 43.3903 436.825 43.623C435.249 44.3392 434.39 44.6973 434.247 44.6973H433.602C433.351 51.2142 433.065 54.4727 432.743 54.4727C432.098 54.7591 431.776 55.1172 431.776 55.5469C431.561 55.8691 430.917 57.3372 429.842 59.9512C430.129 60.542 430.272 60.8643 430.272 60.918C430.272 61.1328 430.129 61.6341 429.842 62.4219C428.625 62.4219 427.193 62.8874 425.545 63.8184C424.597 64.6061 423.594 65 422.538 65L420.389 64.5703C420.156 64.7135 419.977 64.7852 419.852 64.7852C419.852 64.2839 419.315 63.6393 418.241 62.8516C418.42 60.8464 418.635 59.8438 418.885 59.8438H419.1V59.7363C419.1 58.7516 419.243 57.1045 419.53 54.7949C419.458 54.3115 419.422 53.9176 419.422 53.6133V50.1758C419.422 50.1042 419.387 50.0684 419.315 50.0684C419.315 49.9967 419.351 49.9609 419.422 49.9609L419.315 48.6719V45.5566C419.315 45.3955 419.279 45.2523 419.208 45.127C419.208 45.0553 419.243 45.0195 419.315 45.0195C419.243 44.3034 419.208 43.7663 419.208 43.4082V42.5488C419.064 38.7533 418.993 36.6406 418.993 36.2109V34.9219C418.993 34.8503 418.957 34.8145 418.885 34.8145L418.993 34.5996V34.3848L418.885 33.7402C419.19 31.7708 419.583 30.4818 420.067 29.873C420.067 29.4255 420.676 27.8857 421.893 25.2539C422.681 24.0365 423.504 22.4967 424.364 20.6348H424.471C424.793 20.8496 425.008 20.957 425.116 20.957C425.474 20.7601 425.975 20.6169 426.62 20.5273C426.763 20.599 426.87 20.6348 426.942 20.6348L427.479 20.5273L428.016 20.6348C429.484 20.4199 430.379 20.3125 430.702 20.3125ZM424.901 24.7168C424.614 30.4639 424.471 34.2594 424.471 36.1035L424.364 37.0703C424.435 37.2135 424.471 37.321 424.471 37.3926C424.471 37.4642 424.435 37.5 424.364 37.5L424.471 38.4668C424.185 42.6025 424.042 46.613 424.042 50.498V53.291H424.256L427.694 52.3242C428.141 52.0736 429.645 51.6439 432.206 51.0352C432.206 50.8919 432.313 49.0299 432.528 45.4492C432.528 45.2881 432.456 44.6077 432.313 43.4082L432.528 41.6895L432.42 41.4746C432.528 40.6868 432.778 40.293 433.172 40.293C433.387 40.6152 433.495 40.9017 433.495 41.1523H433.709C433.871 41.1523 434.014 41.1165 434.139 41.0449C434.264 41.1165 434.408 41.1523 434.569 41.1523C436.485 40.3646 438.669 39.8275 441.122 39.541C442.017 39.541 443.306 38.0371 444.989 35.0293C444.989 33.9909 444.523 32.5586 443.592 30.7324C443.037 29.7119 441.963 28.5303 440.37 27.1875C438.239 25.612 436.485 24.8242 435.106 24.8242C433.19 24.1081 431.579 23.75 430.272 23.75C426.691 24.0365 424.901 24.3587 424.901 24.7168ZM420.282 33.2031C420.425 44.8942 420.497 52.1631 420.497 55.0098C420.497 56.7643 420.246 58.5905 419.745 60.4883C419.816 60.7747 420.031 60.918 420.389 60.918C422.323 56.9792 423.29 54.9023 423.29 54.6875L423.075 53.9355C423.075 53.112 423.111 52.36 423.182 51.6797C423.111 50.3906 423.075 49.5312 423.075 49.1016C423.075 48.5645 423.146 47.1322 423.29 44.8047H423.182L423.29 44.5898C423.361 41.8685 423.433 40.3288 423.504 39.9707C423.433 39.8275 423.397 39.7201 423.397 39.6484C423.397 39.5052 423.433 39.4336 423.504 39.4336C423.433 38.7174 423.397 38.1803 423.397 37.8223C423.397 35.4053 423.504 32.3975 423.719 28.7988C423.719 28.7272 423.683 28.6914 423.612 28.6914L423.934 25.3613C423.862 25.2181 423.827 25.1107 423.827 25.0391H423.719C421.642 28.1901 420.604 30.625 420.604 32.3438C420.497 32.3438 420.389 32.6302 420.282 33.2031ZM433.387 27.5098C434.855 27.5098 436.323 28.6556 437.792 30.9473C438.006 31.6992 438.114 32.2363 438.114 32.5586C437.863 35.8529 436.968 37.5 435.428 37.5C434.658 37.7148 433.906 37.8223 433.172 37.8223H433.065C432.922 37.8223 432.778 38.1087 432.635 38.6816H432.528L431.454 37.2852C431.597 36.2646 431.668 35.5485 431.668 35.1367C431.454 33.8656 431.346 32.4691 431.346 30.9473C431.346 28.8704 431.776 27.832 432.635 27.832C432.635 27.7604 432.886 27.653 433.387 27.5098ZM432.743 30.7324C432.886 32.9704 432.958 34.2594 432.958 34.5996L433.172 34.707C435.464 34.6533 436.61 34.3669 436.61 33.8477C436.502 32.9167 435.357 31.8783 433.172 30.7324H432.743ZM421.786 61.2402V61.4551H421.893C422.108 61.4551 422.359 61.4909 422.645 61.5625C423.433 61.5625 424.758 61.097 426.62 60.166C427.246 59.8796 427.891 59.7005 428.553 59.6289C429.986 56.5316 430.702 54.9202 430.702 54.7949V54.4727C430.361 54.4727 428.141 55.0814 424.042 56.2988C423.54 57.6058 422.788 59.2529 421.786 61.2402Z" fill="#FEFFE6"/>
</svg>
