<svg width="168" height="65" viewBox="0 0 168 65" fill="none" xmlns="http://www.w3.org/2000/svg">
<g filter="url(#filter0_d_15_1293)">
<rect x="4" width="160" height="57" rx="3" fill="#F4A258"/>
<path d="M37.0306 22.768V24.96H32.4546V27.328H35.8786V29.456H32.4546V34H29.7186V22.768H37.0306ZM46.0686 26.448C46.7832 27.28 47.1406 28.3093 47.1406 29.536C47.1406 30.4533 46.9326 31.264 46.5166 31.968C46.1112 32.6613 45.5512 33.1947 44.8366 33.568C44.1326 33.9413 43.3432 34.128 42.4686 34.128C41.4339 34.128 40.5272 33.872 39.7486 33.36L39.1566 34H37.6846L38.9326 32.64C38.2179 31.808 37.8606 30.7733 37.8606 29.536C37.8606 28.6187 38.0632 27.8133 38.4686 27.12C38.8739 26.416 39.4286 25.8773 40.1326 25.504C40.8366 25.1307 41.6259 24.944 42.5006 24.944C43.5566 24.944 44.4739 25.2053 45.2526 25.728L45.8606 25.072H47.3326L46.0686 26.448ZM40.6446 29.536C40.6446 29.9307 40.7032 30.2773 40.8206 30.576L43.5246 27.632C43.2366 27.4187 42.8952 27.312 42.5006 27.312C41.9672 27.312 41.5246 27.504 41.1726 27.888C40.8206 28.2613 40.6446 28.8107 40.6446 29.536ZM44.3566 29.536C44.3566 29.152 44.2979 28.8107 44.1806 28.512L41.4766 31.472C41.7646 31.664 42.0952 31.76 42.4686 31.76C42.9912 31.76 43.4339 31.568 43.7966 31.184C44.1699 30.8 44.3566 30.2507 44.3566 29.536ZM49.8911 24.144C49.4111 24.144 49.0164 24.0053 48.7071 23.728C48.4084 23.44 48.2591 23.088 48.2591 22.672C48.2591 22.2453 48.4084 21.8933 48.7071 21.616C49.0164 21.328 49.4111 21.184 49.8911 21.184C50.3604 21.184 50.7444 21.328 51.0431 21.616C51.3524 21.8933 51.5071 22.2453 51.5071 22.672C51.5071 23.088 51.3524 23.44 51.0431 23.728C50.7444 24.0053 50.3604 24.144 49.8911 24.144ZM51.2671 35.152C51.2671 36.2507 50.9897 37.04 50.4351 37.52C49.8804 38.0107 49.1071 38.256 48.1151 38.256H47.0431V35.936H47.6991C47.9977 35.936 48.2111 35.8773 48.3391 35.76C48.4671 35.6427 48.5311 35.4507 48.5311 35.184V25.072H51.2671V35.152ZM61.6008 31.68V34H60.2088C59.2168 34 58.4435 33.76 57.8888 33.28C57.3341 32.7893 57.0568 31.9947 57.0568 30.896V27.344H55.9688V25.072H57.0568V22.896H59.7928V25.072H61.5848V27.344H59.7928V30.928C59.7928 31.1947 59.8568 31.3867 59.9848 31.504C60.1128 31.6213 60.3261 31.68 60.6248 31.68H61.6008ZM64.5008 24.144C64.0208 24.144 63.6261 24.0053 63.3168 23.728C63.0181 23.44 62.8688 23.088 62.8688 22.672C62.8688 22.2453 63.0181 21.8933 63.3168 21.616C63.6261 21.328 64.0208 21.184 64.5008 21.184C64.9701 21.184 65.3541 21.328 65.6528 21.616C65.9621 21.8933 66.1168 22.2453 66.1168 22.672C66.1168 23.088 65.9621 23.44 65.6528 23.728C65.3541 24.0053 64.9701 24.144 64.5008 24.144ZM65.8608 25.072V34H63.1248V25.072H65.8608ZM70.5796 22.16V34H67.8436V22.16H70.5796ZM83.5529 26.448C84.2676 27.28 84.6249 28.3093 84.6249 29.536C84.6249 30.4533 84.4169 31.264 84.0009 31.968C83.5956 32.6613 83.0356 33.1947 82.3209 33.568C81.6169 33.9413 80.8276 34.128 79.9529 34.128C78.9183 34.128 78.0116 33.872 77.2329 33.36L76.6409 34H75.1689L76.4169 32.64C75.7023 31.808 75.3449 30.7733 75.3449 29.536C75.3449 28.6187 75.5476 27.8133 75.9529 27.12C76.3583 26.416 76.9129 25.8773 77.6169 25.504C78.3209 25.1307 79.1103 24.944 79.9849 24.944C81.0409 24.944 81.9583 25.2053 82.7369 25.728L83.3449 25.072H84.8169L83.5529 26.448ZM78.1289 29.536C78.1289 29.9307 78.1876 30.2773 78.3049 30.576L81.0089 27.632C80.7209 27.4187 80.3796 27.312 79.9849 27.312C79.4516 27.312 79.0089 27.504 78.6569 27.888C78.3049 28.2613 78.1289 28.8107 78.1289 29.536ZM81.8409 29.536C81.8409 29.152 81.7823 28.8107 81.6649 28.512L78.9609 31.472C79.2489 31.664 79.5796 31.76 79.9529 31.76C80.4756 31.76 80.9183 31.568 81.2809 31.184C81.6543 30.8 81.8409 30.2507 81.8409 29.536ZM88.7514 22.16V34H86.0154V22.16H88.7514ZM96.1902 34L93.4702 30.256V34H90.7342V22.16H93.4702V28.704L96.1742 25.072H99.5502L95.8382 29.552L99.5822 34H96.1902ZM109.441 25.072V34H106.705V32.784C106.427 33.1787 106.049 33.4987 105.569 33.744C105.099 33.9787 104.577 34.096 104.001 34.096C103.318 34.096 102.715 33.9467 102.193 33.648C101.67 33.3387 101.265 32.896 100.977 32.32C100.689 31.744 100.545 31.0667 100.545 30.288V25.072H103.265V29.92C103.265 30.5173 103.419 30.9813 103.729 31.312C104.038 31.6427 104.454 31.808 104.977 31.808C105.51 31.808 105.931 31.6427 106.241 31.312C106.55 30.9813 106.705 30.5173 106.705 29.92V25.072H109.441ZM114.142 26.56C114.462 26.0693 114.862 25.6853 115.342 25.408C115.822 25.12 116.355 24.976 116.942 24.976V27.872H116.19C115.507 27.872 114.995 28.0213 114.654 28.32C114.313 28.608 114.142 29.12 114.142 29.856V34H111.406V25.072H114.142V26.56ZM122.266 31.44L124.202 25.072H127.114L123.946 34H120.57L117.402 25.072H120.33L122.266 31.44Z" fill="white"/>
</g>
<defs>
<filter id="filter0_d_15_1293" x="0" y="0" width="168" height="65" filterUnits="userSpaceOnUse" color-interpolation-filters="sRGB">
<feFlood flood-opacity="0" result="BackgroundImageFix"/>
<feColorMatrix in="SourceAlpha" type="matrix" values="0 0 0 0 0 0 0 0 0 0 0 0 0 0 0 0 0 0 127 0" result="hardAlpha"/>
<feOffset dy="4"/>
<feGaussianBlur stdDeviation="2"/>
<feComposite in2="hardAlpha" operator="out"/>
<feColorMatrix type="matrix" values="0 0 0 0 0 0 0 0 0 0 0 0 0 0 0 0 0 0 0.25 0"/>
<feBlend mode="normal" in2="BackgroundImageFix" result="effect1_dropShadow_15_1293"/>
<feBlend mode="normal" in="SourceGraphic" in2="effect1_dropShadow_15_1293" result="shape"/>
</filter>
</defs>
</svg>
