<svg width="106" height="68" viewBox="0 0 106 68" fill="none" xmlns="http://www.w3.org/2000/svg">
<g clip-path="url(#clip0_15_1296)">
<path d="M46.1144 2.03291C48.1669 2.01976 48.8025 2.17765 51.5303 2.36844C68.1884 3.55265 74.028 -0.164454 87.3889 1.36186C95.3405 2.26976 99.313 2.7237 101.935 5.73028C108.284 13.0066 104.305 30.1579 94.493 39.3487C88.2562 45.1842 84.7604 43.0395 63.0307 51.7895C51.1198 56.5855 51.4111 57.5329 42.7311 60.5329C27.0397 65.9474 16.0755 69.7303 8.56087 64.5658C-1.18504 57.8619 1.14551 40.4474 1.45669 38.3421C4.27055 19.1053 22.0807 9.40791 25.1395 7.75002C27.907 6.24344 35.7263 2.0987 46.1144 2.03291Z" stroke="black" stroke-width="3" stroke-miterlimit="10"/>
<path d="M46.7897 2.90788C48.6369 2.89473 49.213 3.03946 51.6693 3.21052C66.692 4.27631 71.9556 0.927621 84.0056 2.30262C91.176 3.11841 94.7579 3.52631 97.1215 6.24341C102.842 12.8026 99.2601 28.2697 90.408 36.5592C84.7869 41.8224 81.6353 39.8882 62.0376 47.7763C51.2985 52.0987 51.5634 52.9539 43.7309 55.6579C29.5821 60.5395 19.6972 63.9539 12.9174 59.296C4.13151 53.2566 6.23032 37.5526 6.5084 35.6513C9.06405 18.3026 25.1196 9.5592 27.8739 8.0592C30.37 6.70394 37.4212 2.96709 46.7897 2.90788Z" stroke="black" stroke-width="3" stroke-miterlimit="10"/>
<path opacity="0.5" d="M12.6194 34L28.7677 51.4079" stroke="black" stroke-width="3" stroke-miterlimit="10"/>
<path opacity="0.5" d="M22.9612 21.9408L42.9231 45.829" stroke="black" stroke-width="3" stroke-miterlimit="10"/>
<path opacity="0.5" d="M38.9971 10.6645L64.0372 40.8026" stroke="black" stroke-width="3" stroke-miterlimit="10"/>
<path opacity="0.5" d="M64.0437 13.7764L75.8818 29.5264" stroke="black" stroke-width="3" stroke-miterlimit="10"/>
<path opacity="0.5" d="M83.4758 11.7763L87.9184 17.6842" stroke="black" stroke-width="3" stroke-miterlimit="10"/>
</g>
<defs>
<clipPath id="clip0_15_1296">
<rect width="106" height="68" fill="white"/>
</clipPath>
</defs>
</svg>
