<svg width="489" height="44" viewBox="0 0 489 44" fill="none" xmlns="http://www.w3.org/2000/svg">
<path d="M0 22C0 17.5817 3.58172 14 8 14H184.5C185.605 14 186.5 14.8954 186.5 16V28C186.5 29.1046 185.605 30 184.5 30H8C3.58172 30 0 26.4183 0 22V22Z" fill="#F4A258"/>
<circle cx="6" cy="22.0002" r="2" fill="#013D5A"/>
<rect x="193" width="4" height="44" rx="2" fill="#013D5A"/>
<path d="M212.5 16C212.5 14.8954 213.395 14 214.5 14H391C395.418 14 399 17.5817 399 22V22C399 26.4183 395.418 30 391 30H214.5C213.395 30 212.5 29.1046 212.5 28V16Z" fill="#F4A258"/>
<circle cx="393.5" cy="22.0002" r="2" fill="#013D5A"/>
<rect x="202.5" width="4" height="44" rx="2" fill="#013D5A"/>
<rect x="445" y="2" width="44" height="40.0597" rx="3" fill="#013D5A"/>
<path d="M461.839 26.5618C463.507 25.2221 464.814 24.1254 465.759 23.2716C466.705 22.4048 467.5 21.5051 468.143 20.5725C468.8 19.6269 469.128 18.7009 469.128 17.7946C469.128 16.9409 468.918 16.271 468.498 15.7851C468.091 15.286 467.427 15.0364 466.508 15.0364C465.615 15.0364 464.919 15.3188 464.42 15.8836C463.934 16.4352 463.671 17.1773 463.632 18.1099H461.898C461.95 16.6388 462.397 15.5027 463.237 14.7015C464.078 13.9003 465.162 13.4997 466.488 13.4997C467.841 13.4997 468.912 13.874 469.7 14.6227C470.501 15.3713 470.901 16.4024 470.901 17.7158C470.901 18.806 470.573 19.8699 469.916 20.9075C469.273 21.9319 468.537 22.8382 467.71 23.6263C466.882 24.4012 465.825 25.3075 464.538 26.3451H471.315V27.8424H461.839V26.5618Z" fill="white"/>
</svg>
