<svg width="24" height="91" viewBox="0 0 24 91" fill="none" xmlns="http://www.w3.org/2000/svg">
<path d="M1.76677 91C1.45588 90.2495 0.803009 89.76 0.834098 88.7811C0.989543 74.8152 0.585387 60.7514 0.958454 46.8507C1.02063 44.5665 1.1139 43.0329 1.89112 40.8467C2.73052 38.4972 5.06219 35.6584 5.40417 33.2111C6.11922 28.0554 6.30575 22.7693 6.80317 17.5483C6.89644 16.6673 7.17624 15.6231 7.26951 14.7747C7.39386 13.2085 7.17624 11.7075 7.42495 10.1086C7.61148 8.80332 7.89128 7.46547 7.8602 6.09498C7.8602 5.24658 7.54931 5.18132 7.33168 4.69186C7.08297 4.13714 8.01564 3.354 7.98455 2.57087C7.98455 2.04878 7.45604 1.82036 7.51822 1.26564C7.5804 0.613025 8.54415 0.188827 9.07266 0.123565C10.4095 -0.0722188 14.5443 -0.00695745 15.9122 0.123565C16.3475 0.188827 17.1558 0.482503 17.2491 1.00459C17.3423 1.52668 16.9071 1.88562 16.9071 2.44034C16.9071 3.19085 17.6843 3.90872 17.4667 4.59397C17.4356 4.75712 17.2491 4.82238 17.218 4.92027C16.9071 5.70341 17.6221 11.0548 17.7154 12.3274C18.1817 17.9073 18.5859 23.4871 19.2077 29.067C19.4253 30.8617 19.6118 33.7332 20.2336 35.3321C20.9175 37.1594 22.13 38.7909 22.814 40.6835C24.4306 45.2192 23.6845 51.1579 23.6223 55.9547C23.529 65.7439 23.3736 75.4678 23.529 85.2244C23.529 87.2801 23.8088 89.6621 21.9746 90.9674H1.76677V91ZM15.819 1.36353C15.819 0.645656 15.2283 0.580395 14.6687 0.645656C14.6998 1.29827 15.2904 1.42879 15.819 1.36353ZM10.223 1.36353C10.223 1.06985 10.223 0.939332 9.94315 0.874071C9.29029 0.743548 8.63742 1.42879 9.50791 1.42879C9.75662 1.42879 9.97424 1.3309 10.223 1.36353ZM10.3473 2.21193L9.44573 2.08141V2.57087C9.78771 2.57087 10.3784 2.73402 10.3473 2.21193ZM15.477 2.08141H14.6998L14.5754 2.5056C14.6998 2.76665 14.9485 2.73402 15.1661 2.66876C15.4148 2.57087 15.5081 2.37508 15.477 2.08141ZM14.9174 4.23503H15.9433C15.6635 3.84346 15.2283 3.61505 14.793 3.64768L14.9174 4.23503ZM10.0986 4.00662C9.88098 3.7782 8.82395 3.87609 8.94831 4.49608C9.13484 4.56134 10.3473 4.30029 10.0986 4.00662ZM10.4406 5.08343H9.29029C9.22811 9.19489 8.82395 13.339 8.48197 17.4505C8.29544 19.7672 8.07782 22.084 7.92237 24.4334C7.73584 27.0112 7.26951 30.6006 7.45604 33.1132C7.51822 33.7984 7.61148 34.5816 8.4198 34.6142C9.88098 34.6795 9.44573 32.5911 9.50791 31.6448C9.50791 31.2532 9.69444 30.829 9.72553 30.4375C10.1297 25.5102 9.8188 20.5504 9.94315 15.6231C10.0053 13.2411 10.2851 10.7612 10.4095 8.41176C10.4717 7.30231 10.4095 6.19287 10.4095 5.08343H10.4406ZM14.6998 5.08343C14.6998 6.6497 14.7308 8.18334 14.8241 9.71698C15.135 16.341 15.7879 22.965 15.9744 29.5891C16.0055 30.8943 15.6324 34.7773 15.9744 35.6584C16.0677 35.9194 16.3475 36.1478 16.4718 36.4741C16.5651 36.7026 17.1247 38.1057 17.1247 38.2036C17.1869 38.5299 16.6894 39.6067 16.6894 40.0961C16.6894 40.9772 17.5288 42.8045 17.7465 43.816C18.3682 46.7528 17.8087 49.6896 17.7154 52.659C17.4667 60.5229 17.7776 68.5501 17.8397 76.4141C17.8397 79.6445 17.4978 83.9518 17.8397 87.0191C17.9019 87.7369 18.2128 87.2801 18.617 87.2148C19.2077 87.117 19.7673 87.2148 20.1092 86.497C20.4201 85.8117 20.0471 83.9518 20.1092 83.0055C20.3269 80.3624 20.4512 77.5888 20.5756 74.9457C21.0108 64.9281 20.2647 54.6168 20.5756 44.5665C19.9227 42.2171 19.1144 39.7698 17.4045 38.073C17.591 28.2186 16.2231 18.3641 15.7568 8.54228C15.7257 7.62862 15.9122 6.2255 15.7568 5.40973C15.7568 5.27921 15.7257 5.18132 15.5702 5.11606H14.6998V5.08343ZM4.03626 87.9001C4.7513 87.6717 4.90675 88.0306 5.43526 88.3895C5.74615 88.0632 6.24357 87.6717 6.36793 87.1822C6.61664 86.2033 6.05704 85.257 6.55446 84.376C6.77208 84.017 7.14515 83.8865 7.20733 83.397C7.51822 81.2434 6.67882 78.5677 7.67366 76.5446V42.8045L6.80317 40.3572C6.18139 40.194 5.0311 42.8045 4.87566 43.3592C4.72021 43.9139 4.53368 44.795 4.4715 45.3497C3.94299 51.8432 4.87566 59.1198 4.4715 65.7112C4.1917 72.1395 4.22279 78.6656 4.12952 85.0938C4.12952 86.1054 4.40932 86.9864 4.00517 87.9327L4.03626 87.9001Z" fill="black"/>
<path d="M3.29008 45.5781C4.37819 46.6222 4.99997 47.9275 5.03106 49.4937L6.33679 48.4495C5.40412 48.1885 5.06215 47.1117 4.84452 46.2307C4.72017 45.7412 4.56472 45.0886 4.75126 44.5991C5.21759 43.4897 5.31086 45.1212 5.31086 45.5454C5.43521 48.2211 5.55957 50.9295 5.68392 53.6052C5.7461 55.0083 7.7047 55.0083 7.76688 53.6052C7.92233 49.3306 8.04668 45.0233 8.20213 40.7487C8.20213 39.5414 6.36788 39.2477 6.18135 40.455C5.37304 45.3496 4.78235 50.2442 4.40928 55.1715H6.49224C6.5855 49.6895 6.8653 44.2076 7.39382 38.7582C7.51817 37.5509 5.62175 37.2899 5.37304 38.4646C3.53879 46.8506 3.16572 55.4651 2.9481 64.0144C2.82374 68.5174 2.69939 73.0204 2.60612 77.5235C2.54394 79.7424 2.48177 81.9613 2.41959 84.1801C2.41959 85.2569 2.35741 86.3338 2.32632 87.3779C2.32632 88.259 2.20197 89.0095 3.04137 89.4989C4.59581 90.4126 6.05699 89.0421 6.61659 87.6064C7.45599 85.4854 7.95342 83.1686 8.29539 80.9171C8.51302 79.5792 6.67877 78.9592 6.3057 80.3297C5.49739 83.1686 4.22275 85.779 2.51285 88.1611L4.31601 89.2705L7.82906 80.5908C8.79282 78.2087 9.94311 75.6635 9.1348 73.0531C8.79282 71.9763 7.51817 72.0742 7.1451 73.0531C5.93264 76.1204 4.72017 79.2203 3.53879 82.2876C3.07246 83.4623 4.84452 84.1475 5.43521 83.136C7.51817 79.3508 9.01044 75.272 9.84984 70.9647C10.0675 69.79 8.57519 69.0395 7.95342 70.1163C5.83937 73.771 4.09839 77.6214 2.69939 81.6349L4.68908 82.2223C5.80828 77.1972 7.33164 72.3026 9.29024 67.6038L7.39382 66.7554C6.61659 69.6595 5.43521 72.3678 3.91186 74.913C3.19681 76.0877 4.99997 77.1972 5.71501 76.0225C7.33164 73.3141 8.54411 70.41 9.38351 67.3427C9.6944 66.2006 7.95342 65.3522 7.48708 66.4943C5.4663 71.3889 3.81859 76.4467 2.6683 81.6349C2.35741 83.0054 4.22275 83.5275 4.65799 82.2223C5.96373 78.3719 7.67362 74.7172 9.6944 71.2258L7.79797 70.3774C7.02075 74.4888 5.62175 78.4045 3.60097 82.0265L5.49739 82.8749C6.70986 79.8076 7.92233 76.7077 9.10371 73.6404H7.11402C7.86015 76.0877 6.36788 78.6982 5.4663 80.8844L2.51285 88.1937C1.98434 89.4989 3.5077 90.4126 4.31601 89.3032C6.11917 86.7906 7.45599 83.9844 8.32648 80.9497L6.33679 80.3623C6.11917 81.7002 5.87046 83.0054 5.52848 84.3107C5.37304 84.898 4.68908 88.0958 3.88077 87.4432L4.40928 88.3895C4.6269 80.036 4.84452 71.6826 5.06215 63.2965C5.27977 54.9104 5.65284 46.9812 7.39382 39.0519L5.37304 38.7582C4.84452 44.2076 4.53363 49.6895 4.47146 55.1715C4.47146 56.5746 6.43006 56.542 6.55441 55.1715C6.92748 50.44 7.48708 45.7086 8.23322 41.0098L6.21244 40.7161C6.05699 44.9907 5.93264 49.2979 5.77719 53.5726H7.86015C7.73579 50.8968 7.61144 48.1885 7.48708 45.5128C7.48708 44.5012 7.48708 43.2939 6.77204 42.5434C6.21244 41.956 5.37304 41.7929 4.6269 42.0213C0.896231 43.0981 2.97919 49.6569 5.87046 50.5379C6.49224 50.7337 7.20728 50.2116 7.17619 49.4937C7.11402 47.3727 6.3057 45.4802 4.81344 44.0444C3.84968 43.0981 2.35741 44.6318 3.35226 45.5781H3.29008Z" fill="black"/>
<path d="M8.76194 62.4154C6.05721 65.6785 5.96394 70.2141 3.8188 73.8035L5.74632 74.3582C6.30592 69.0068 7.61165 63.7532 9.50808 58.7608L7.51839 58.1734C6.6479 62.3828 5.77741 66.5921 4.90692 70.7688L6.9277 71.0625C7.26967 63.8838 7.73601 56.705 8.41997 49.5589C8.54432 48.3189 6.67899 48.1232 6.39918 49.2652C4.68929 56.0198 3.44574 62.8722 2.63743 69.8226C2.51307 70.9646 4.06752 71.193 4.56494 70.3773C4.90692 69.8226 5.21781 69.2678 5.55978 68.7131C6.27483 67.5058 4.47167 66.429 3.75663 67.6037C3.41465 68.1584 3.10376 68.7131 2.76178 69.2678L4.68929 69.8226C5.46652 63.1006 6.71007 56.4113 8.38888 49.8526L6.3681 49.5589C5.71523 56.705 5.21781 63.8838 4.87583 71.0625C4.81365 72.2699 6.6479 72.5635 6.89661 71.3562C7.7671 67.1468 8.63759 62.9375 9.50808 58.7608C9.78788 57.3576 7.98472 56.9008 7.51839 58.1734C5.5287 63.3617 4.25405 68.7784 3.66336 74.3582C3.539 75.5003 5.09345 75.7613 5.59087 74.9129C6.6479 73.1509 7.2075 71.1604 7.82928 69.2026C8.38888 67.3752 8.97957 65.45 10.2231 63.9817C11.0936 62.9375 9.63243 61.3712 8.76194 62.448V62.4154Z" fill="black"/>
<path d="M15.5392 38.693L15.6636 50.5379C15.6636 51.941 17.6533 51.941 17.7466 50.5379C17.8398 48.5801 17.9642 46.5896 18.0574 44.6317C18.1507 43.0328 18.0885 41.1729 19.1145 39.9003L17.3424 39.1172C17.4668 42.8044 17.56 46.4917 17.6844 50.1463C17.7155 51.4516 19.2699 51.5168 19.7052 50.44C20.7622 47.8295 21.0109 45.1212 20.6378 42.3476C20.4824 41.1076 18.586 41.4339 18.617 42.6413C18.6481 49.1021 18.617 55.5957 18.4305 62.0565L20.4513 61.7629L18.9279 50.5379C18.7725 49.4937 17.0937 49.5263 16.9382 50.5379C15.8812 56.5093 15.3527 62.5786 15.3838 68.6479C15.3838 69.8553 17.187 70.1816 17.4046 68.9416C18.0264 65.7112 18.4616 62.4481 18.7414 59.1524H16.6584C16.3165 66.5596 15.9745 73.9341 15.6325 81.3413C15.5703 82.5486 17.4978 82.8423 17.6533 81.6349C18.7414 73.7057 19.7984 65.7764 20.8865 57.8472L18.8658 57.5535C18.617 67.8974 16.0367 78.0456 16.503 88.3895C16.5341 89.401 17.9642 89.9558 18.4305 88.9442C21.5083 82.4181 20.1404 75.0762 20.5135 68.0932H18.4305V86.9537C18.4305 88.1937 20.1093 88.3895 20.4513 87.2474C21.757 82.9402 21.384 78.0456 21.4772 73.5752C21.5705 68.6806 21.6948 63.8186 21.7881 58.924C21.7881 57.5209 19.7362 57.5209 19.7052 58.924C19.6119 63.6554 19.4875 68.3542 19.3943 73.0857C19.3321 75.3698 19.301 77.654 19.2388 79.9055C19.1766 82.157 19.1145 84.4738 18.4305 86.6601L20.4513 86.9537V68.0932C20.4513 66.6901 18.4616 66.6901 18.3683 68.0932C18.0264 74.6193 19.4254 81.7655 16.5652 87.8348L18.4927 88.3895C18.0574 78.0129 20.6378 67.8648 20.8554 57.5535C20.8554 56.3462 18.9901 56.0198 18.8347 57.2598C17.7466 65.1891 16.6895 73.1183 15.6014 81.0476L17.6222 81.3413C17.9642 73.9341 18.3062 66.5596 18.6481 59.1524C18.7103 57.7493 16.6895 57.7819 16.5652 59.1524C16.3165 62.2523 15.8812 65.3196 15.2905 68.3542L17.3113 68.6479C17.3113 62.7744 17.7776 56.9009 18.8036 51.1252H16.8139L18.3372 62.3502C18.4927 63.5902 20.3269 63.2312 20.358 62.0565C20.5135 55.5957 20.5756 49.1021 20.5446 42.6413L18.5238 42.9349C18.8347 45.317 18.4616 47.6664 17.5911 49.8853L19.6119 50.179C19.4875 46.4917 19.3943 42.8044 19.2699 39.1498C19.2699 38.2688 18.1196 37.6161 17.4978 38.3667C16.3165 39.8024 16.0056 41.5318 15.8812 43.3918C15.7258 45.7738 15.6325 48.1885 15.5082 50.5705H17.5911L17.4668 38.7256C17.4668 37.3225 15.3838 37.3225 15.3838 38.7256H15.5392V38.693Z" fill="black"/>
<path d="M13.2986 48.3279C14.0908 48.3279 15.47 48.8267 17.436 49.8244C19.2259 50.2645 20.4584 50.9101 21.1333 51.7611C21.7788 52.8174 22.1016 54.2553 22.1016 56.0746C22.0429 56.1773 22.0136 56.2946 22.0136 56.4267H22.1016C21.9109 57.7618 21.5587 58.7595 21.0452 59.4197C20.341 60.8722 18.6978 62.5448 16.1155 64.4374C15.646 64.8629 15.4113 65.2151 15.4113 65.4938V66.2861L15.3233 66.8143L15.4113 66.9903C15.3526 67.4305 15.2646 67.812 15.1472 68.1347L15.2352 68.3108C15.2352 68.4575 14.8538 69.0444 14.0908 70.0714V70.2475C14.3109 70.2475 14.575 70.4822 14.8831 70.9517C15.7781 70.9517 16.4823 71.6266 16.9958 72.9764C16.9958 73.2112 17.0252 73.4459 17.0839 73.6806C16.8051 75.6173 16.3649 76.9378 15.7634 77.642C15.6754 77.642 15.0005 78.3756 13.7387 79.8428C13.3279 80.1215 13.1225 80.2976 13.1225 80.371C13.1225 80.4296 13.1812 80.6644 13.2986 81.0752C13.1078 81.0752 12.521 81.31 11.5379 81.7794H11.2739C10.3935 81.6621 9.92405 81.6034 9.86537 81.6034V81.6914C9.10244 81.5007 8.25147 80.7671 7.31248 79.4907C6.7843 78.6984 6.52021 77.9941 6.52021 77.3779C6.52021 76.2482 7.37117 74.5756 9.07309 72.3602C9.07309 72.0961 8.86769 71.5679 8.45688 70.7756V70.6876L8.54491 70.2475C8.42754 69.4552 8.36885 68.7803 8.36885 68.2228H8.28082C8.16344 68.2228 8.10476 68.3108 8.10476 68.4869H8.01673C7.97271 68.4869 7.88468 68.3988 7.75264 68.2228C7.75264 66.7409 8.66228 64.5695 10.4816 61.7085C10.731 61.7085 10.9071 61.239 11.0098 60.3H10.9217C10.8044 60.3 9.74799 60.9749 7.75264 62.3247C7.70862 62.3247 7.53256 62.2954 7.22445 62.2367C6.72561 62.5301 6.37349 62.6768 6.16809 62.6768C6.02137 62.6768 5.55187 61.7672 4.7596 59.9479L3.6152 58.0112C4.04068 55.9572 4.59821 54.0499 5.28778 52.2892C5.46384 51.6877 5.55187 51.2769 5.55187 51.0568C5.49319 50.9394 5.46384 50.8514 5.46384 50.7927C5.62523 50.7927 5.83064 50.47 6.08006 49.8244C8.14877 49.1201 9.64529 48.6507 10.5696 48.4159C11.3032 48.4159 12.2128 48.3866 13.2986 48.3279ZM6.60824 52.6414C7.07774 54.446 7.48854 55.6491 7.84067 56.2506H7.9287C8.14877 56.2506 8.64761 55.8398 9.42521 55.0182C11.1418 53.8445 12.9904 53.2576 14.9711 53.2576C14.9711 53.1989 15.0592 53.1696 15.2352 53.1696C16.2916 53.1696 16.9078 53.9912 17.0839 55.6344V56.1626C17.0839 57.2483 16.5557 58.6861 15.4993 60.4761C15.3819 61.195 14.0615 62.1927 11.5379 63.4691C11.2445 64.4668 11.0978 65.1417 11.0978 65.4938V65.6699C13.2105 65.6552 14.2669 65.5378 14.2669 65.3178C14.2082 64.5842 14.1789 64.2027 14.1789 64.1734C14.575 62.8236 15.8955 61.3857 18.1402 59.8599C19.2993 58.9649 20.297 57.6444 21.1333 55.8985V55.5464C21.1333 54.9888 20.6051 54.3139 19.5487 53.5217C17.7441 52.9495 16.0715 52.2746 14.531 51.497C14.0321 51.3796 13.7094 51.3209 13.5626 51.3209C10.7457 51.3209 8.83834 51.5557 7.84067 52.0252C7.01905 52.2159 6.60824 52.4213 6.60824 52.6414ZM5.6399 53.2576L4.58354 56.7788V56.9549C5.17041 58.1873 5.66925 59.3317 6.08006 60.388H6.16809C6.30013 60.2707 6.62291 59.3904 7.13642 57.7471C7.19511 57.7471 7.22445 57.7178 7.22445 57.6591C6.32948 54.8128 5.83064 53.3456 5.72793 53.2576H5.6399ZM13.2105 55.9865L13.0345 56.2506C13.3279 57.1309 13.5333 57.5711 13.6507 57.5711C14.1202 57.6884 14.5016 57.8645 14.7951 58.0993C15.4406 57.4977 15.7634 56.9108 15.7634 56.3386C15.6314 56.2213 15.1032 56.1039 14.1789 55.9865L13.7387 56.0746L13.2105 55.9865ZM7.40051 59.7718H7.48854C7.59125 59.7718 7.88468 59.6545 8.36885 59.4197L8.54491 59.6838V59.7718L8.45688 59.9479L8.63294 60.0359H8.809C9.52792 59.2143 10.4963 58.5394 11.714 58.0112V57.7471C10.8337 57.6151 10.3935 57.2923 10.3935 56.7788C9.86537 56.9402 8.98506 57.6738 7.75264 58.9796C7.60592 58.9796 7.48854 59.2437 7.40051 59.7718ZM11.714 59.9479V60.124H11.802C11.9194 60.0653 12.0074 60.0359 12.0661 60.0359V59.9479H11.714ZM9.86537 64.7896C9.2785 65.6405 8.98506 66.7262 8.98506 68.0467C9.04375 68.1641 9.07309 68.2521 9.07309 68.3108H9.33718C9.33718 68.0907 9.63062 67.7973 10.2175 67.4305C10.1001 66.5208 10.0414 65.6405 10.0414 64.7896H9.86537ZM9.86537 69.9834C9.86537 70.1007 10.3642 70.2475 11.3619 70.4235H13.1225C13.2839 69.4699 13.5186 68.6776 13.8267 68.0467H13.0345C12.7264 68.0467 12.4623 68.076 12.2422 68.1347C11.9341 68.076 11.6406 68.0467 11.3619 68.0467H10.9217C10.819 68.0467 10.7017 68.4575 10.5696 69.2791C10.1001 69.7193 9.86537 69.954 9.86537 69.9834ZM10.3055 74.4729C11.2005 75.8814 12.2569 76.5857 13.4746 76.5857C14.0908 76.5857 14.9711 75.9401 16.1155 74.649V74.561C15.8661 73.6806 14.8391 73.2405 13.0345 73.2405C13.0345 73.1671 12.7997 73.1084 12.3302 73.0644C11.5673 73.0644 11.1858 73.3285 11.1858 73.8567C10.599 73.8567 10.3055 74.0621 10.3055 74.4729ZM7.57657 76.5857C7.9287 77.642 8.98506 78.7864 10.7457 80.0188V80.1949H11.0098C11.0538 80.1949 11.2885 80.2536 11.714 80.371H11.802C11.9341 80.371 12.1101 79.9602 12.3302 79.1385C10.2762 78.3609 9.24915 77.2752 9.24915 75.8814V75.6173C9.36653 74.7664 9.42521 74.3262 9.42521 74.2969H9.33718C8.39819 75.2652 7.81132 76.0281 7.57657 76.5857Z" fill="white"/>
</svg>
