<svg width="61" height="91" viewBox="0 0 61 91" fill="none" xmlns="http://www.w3.org/2000/svg">
<path d="M19.5278 91C19.2026 90.2496 18.5197 89.7602 18.5522 88.7814C18.7148 74.8172 18.2921 60.7551 18.6823 46.8562C18.7473 44.5723 18.8449 43.0389 19.6578 40.8529C20.5358 38.5038 22.9747 35.6653 23.3324 33.2183C24.0803 28.0632 24.2754 22.7777 24.7957 17.5575C24.8932 16.6766 25.1859 15.6325 25.2835 14.7842C25.4135 13.2181 25.1859 11.7173 25.4461 10.1186C25.6412 8.81354 25.9338 7.47585 25.9013 6.10553C25.9013 5.25724 25.5761 5.19199 25.3485 4.70259C25.0884 4.14794 26.0639 3.3649 26.0314 2.58186C26.0314 2.05983 25.4786 1.83145 25.5436 1.27679C25.6086 0.624261 26.6167 0.200115 27.1695 0.134862C28.5678 -0.060898 32.8927 -0.0282714 34.3235 0.134862C34.7788 0.200115 35.6242 0.493755 35.7218 1.01578C35.8194 1.53781 35.3641 1.8967 35.3641 2.45135C35.3641 3.20176 36.177 3.91955 35.9494 4.60471C35.9169 4.76784 35.7218 4.8331 35.6893 4.93097C35.3641 5.71401 36.112 11.0648 36.2096 12.3372C36.6973 17.9164 37.1201 23.4955 37.7704 29.0747C37.9981 30.8691 38.1932 33.7403 38.8435 35.339C39.5589 37.1661 40.8271 38.7974 41.5425 40.6898C43.2335 45.2248 42.4531 51.1629 42.388 55.959C42.2905 65.747 42.1279 75.4697 42.2905 85.2251C42.2905 87.2806 42.5831 89.6623 40.6646 90.9674H19.5603L19.5278 91ZM34.226 1.37467C34.226 0.656888 33.6081 0.591634 33.0228 0.656888C33.0553 1.30942 33.6732 1.43993 34.226 1.37467ZM28.3727 1.37467C28.4052 1.08103 28.3727 0.950527 28.08 0.885274C27.3971 0.754767 26.7143 1.43993 27.6248 1.43993C27.8849 1.43993 28.1125 1.34205 28.3727 1.37467ZM28.5028 2.22297L27.5597 2.09246V2.58186C27.9174 2.58186 28.5353 2.74499 28.5028 2.22297ZM33.8683 2.09246H33.0553L32.9252 2.51661C33.0553 2.77762 33.3155 2.74499 33.5431 2.67974C33.8032 2.58186 33.9008 2.3861 33.8683 2.09246ZM33.2829 4.24582H34.356C34.0634 3.8543 33.6081 3.62591 33.1529 3.65854L33.2829 4.24582ZM28.2426 4.01743C28.015 3.78904 26.9094 3.88692 27.0394 4.50683C27.2346 4.57208 28.5028 4.31107 28.2426 4.01743ZM28.6003 5.09411H27.3971C27.3321 9.20506 26.9094 13.3486 26.5517 17.4596C26.3566 19.7761 26.1289 22.0926 25.9663 24.4417C25.7712 27.0192 25.2835 30.6081 25.4786 33.1204C25.5436 33.8055 25.6412 34.5886 26.4866 34.6212C28.015 34.6865 27.5597 32.5983 27.6248 31.6522C27.6248 31.2607 27.8199 30.8365 27.8524 30.445C28.2751 25.5184 27.95 20.5591 28.08 15.6325C28.1451 13.2508 28.4377 10.7711 28.5678 8.42202C28.6328 7.31272 28.5678 6.20341 28.5678 5.09411H28.6003ZM33.0553 5.09411C33.0553 6.66019 33.0878 8.19364 33.1854 9.72709C33.5106 16.3503 34.1934 22.9735 34.3885 29.5967C34.4211 30.9018 34.0309 34.7843 34.3885 35.6653C34.4861 35.9263 34.7788 36.1547 34.9088 36.4809C35.0064 36.7093 35.5917 38.1122 35.5917 38.2101C35.6568 38.5364 35.1365 39.6131 35.1365 40.1025C35.1365 40.9834 36.0145 42.8105 36.2421 43.8219C36.8925 46.7583 36.3071 49.6947 36.2096 52.6637C35.9494 60.5267 36.2746 68.5529 36.3396 76.4159C36.3396 79.6459 35.9819 83.9527 36.3396 87.0196C36.4047 87.7373 36.7299 87.2806 37.1526 87.2153C37.7704 87.1174 38.3558 87.2153 38.7135 86.4975C39.0386 85.8124 38.6484 83.9527 38.7135 83.0065C38.9411 80.3637 39.0712 77.5905 39.2012 74.9477C39.6565 64.9313 38.8761 54.6213 39.2012 44.5723C38.5184 42.2232 37.6729 39.7762 35.8844 38.0796C36.0795 28.2264 34.6487 18.3731 34.1609 8.55253C34.1284 7.63898 34.3235 6.23604 34.1609 5.42037C34.1609 5.28987 34.1284 5.19199 33.9658 5.12673H33.0878L33.0553 5.09411ZM21.9016 87.9005C22.6495 87.6721 22.8121 88.031 23.3649 88.3899C23.6901 88.0636 24.2104 87.6721 24.3404 87.1827C24.6006 86.2039 24.0153 85.2577 24.5355 84.3768C24.7632 84.0179 25.1534 83.8874 25.2184 83.398C25.5436 81.2446 24.6656 78.5693 25.7062 76.5464V42.8105L24.7957 40.3635C24.1453 40.2004 22.9422 42.8105 22.7796 43.3651C22.617 43.9198 22.4219 44.8007 22.3568 45.3554C21.804 51.8481 22.7796 59.1238 22.3568 65.7144C22.0642 72.1418 22.0967 78.6671 21.9991 85.0946C21.9991 86.106 22.2918 86.9869 21.8691 87.9331L21.9016 87.9005Z" fill="black"/>
<path d="M41.5853 84.9641C41.3252 84.3442 40.7724 83.9527 40.7724 83.1696C40.9024 71.7829 40.5447 60.2984 40.8699 48.9443C40.935 47.0846 41 45.8121 41.6829 44.0503C42.3983 42.1253 44.3819 39.8415 44.6745 37.8186C45.2599 33.6098 45.4225 29.2704 45.8452 25.029C45.9102 24.3112 46.1704 23.4629 46.2354 22.7777C46.333 21.5053 46.1704 20.2655 46.3655 18.9604C46.5281 17.8838 46.7557 16.8071 46.7232 15.6978C46.7232 15.0126 46.463 14.9474 46.2679 14.5558C46.0403 14.0991 46.8533 13.4465 46.8207 12.8266C46.8207 12.4025 46.3655 12.2067 46.4305 11.75C46.4956 11.2279 47.3085 10.869 47.7638 10.8038C48.9019 10.6406 52.4139 10.6733 53.617 10.8038C54.0072 10.8364 54.6901 11.0974 54.7552 11.5216C54.8202 11.9457 54.4625 12.2394 54.4625 12.6961C54.4625 13.2834 55.1129 13.9033 54.9503 14.458C54.9178 14.5885 54.7552 14.6537 54.7226 14.719C54.4625 15.3715 55.0803 19.7435 55.1454 20.7549C55.5356 25.3226 55.8933 29.8904 56.4136 34.4255C56.5762 35.8937 56.7713 38.2101 57.2916 39.5478C57.8769 41.0487 58.9175 42.3863 59.5028 43.9198C60.9011 47.6066 60.2507 52.468 60.2182 56.3832C60.1207 64.3767 60.0231 72.305 60.1207 80.2985C60.1207 81.9951 60.3483 83.92 58.7874 84.9641H41.5528H41.5853ZM53.617 11.75C53.617 11.1627 53.1293 11.0974 52.6415 11.1627C52.674 11.7173 53.1618 11.8152 53.617 11.75ZM48.8043 11.75C48.8043 11.5216 48.8043 11.3911 48.5442 11.3584C47.9914 11.2606 47.4386 11.8152 48.1865 11.8152C48.3816 11.8152 48.6092 11.7173 48.8043 11.75ZM48.9019 12.4677L48.1215 12.3699V12.7614C48.4141 12.7614 48.9019 12.8919 48.9019 12.4677ZM53.3244 12.3699H52.6415L52.5439 12.6961C52.6415 12.8919 52.8691 12.8919 53.0642 12.8266C53.2593 12.7288 53.3569 12.5656 53.3244 12.3372V12.3699ZM52.8366 14.0991H53.7146C53.4544 13.7728 53.1293 13.577 52.739 13.6097L52.8366 14.0991ZM48.7068 13.9359C48.5117 13.7402 47.6337 13.8381 47.7312 14.3275C47.8938 14.3927 48.9344 14.1643 48.7068 13.9359ZM48.9995 14.8169H48.0239C47.9589 18.1774 47.6012 21.5379 47.341 24.8985C47.1784 26.7908 46.9833 28.6832 46.8533 30.6081C46.6907 32.6962 46.3004 35.6326 46.463 37.6881C46.5281 38.2754 46.5931 38.8953 47.3085 38.9279C48.5767 38.9932 48.1865 37.264 48.2515 36.5136C48.2515 36.1873 48.4141 35.861 48.4466 35.5348C48.8043 31.5217 48.5442 27.476 48.6418 23.4303C48.7068 21.4727 48.9344 19.4825 49.032 17.5249C49.0645 16.6113 49.032 15.6978 49.032 14.8169H48.9995ZM52.6415 14.8169C52.6415 16.0893 52.674 17.3291 52.739 18.6015C52.9992 24.0176 53.552 29.4336 53.7146 34.817C53.7146 35.8937 53.4219 39.0584 53.7146 39.7762C53.7796 39.972 54.0398 40.2004 54.1373 40.4287C54.2024 40.6245 54.6901 41.7664 54.6901 41.8317C54.7552 42.0927 54.2999 42.9736 54.3324 43.3651C54.3324 44.0829 55.0478 45.5838 55.2429 46.3994C55.7957 48.7812 55.2755 51.1955 55.2104 53.6099C54.9828 60.0373 55.2755 66.5953 55.308 72.9901C55.308 75.6329 55.0153 79.1565 55.308 81.6688C55.373 82.2561 55.6332 81.8972 55.9583 81.8319C56.4786 81.7667 56.9339 81.8319 57.2265 81.2446C57.5192 80.69 57.1615 79.1565 57.2265 78.4061C57.3891 76.2528 57.5192 74.0015 57.6168 71.8156C57.9745 63.6589 57.3566 55.2086 57.6168 47.0193C57.064 45.0944 56.3811 43.1041 54.9178 41.7012C55.0803 33.6424 53.9097 25.6163 53.5195 17.5901C53.487 16.8397 53.6496 15.6978 53.5195 15.0452C53.5195 14.9474 53.487 14.8495 53.3569 14.8169H52.6415ZM43.5364 82.4192C44.1542 82.2234 44.2843 82.5171 44.7396 82.8107C44.9997 82.5497 45.455 82.2234 45.5525 81.8319C45.7476 81.0163 45.2924 80.2659 45.7151 79.5154C45.8777 79.2218 46.2029 79.1239 46.2679 78.6998C46.5606 76.9379 45.8127 74.7846 46.6581 73.088V45.5185L45.9102 43.5283C45.3899 43.3978 44.3819 45.5185 44.2518 45.9753C44.1217 46.432 43.9591 47.1498 43.9266 47.6066C43.4714 52.9247 44.2518 58.8628 43.9266 64.2462C43.699 69.4991 43.7315 74.8172 43.634 80.0701C43.634 80.9184 43.8941 81.6035 43.5364 82.3866V82.4192Z" fill="black"/>
<path d="M1.59459 84.964C1.33445 84.3441 0.781639 83.9526 0.781639 83.1696C0.911711 71.7829 0.554012 60.2983 0.879193 48.9442C0.94423 47.0845 1.00927 45.8121 1.69215 44.0503C2.40755 42.1253 4.39115 39.8414 4.68382 37.8186C5.26914 33.6097 5.43174 29.2704 5.85447 25.0289C5.91951 24.3112 6.17965 23.4629 6.24469 22.7777C6.34224 21.5053 6.17965 20.2655 6.37476 18.9604C6.53735 17.8837 6.76498 16.807 6.73246 15.6977C6.73246 15.0126 6.47232 14.9473 6.27721 14.5558C6.04958 14.099 6.86253 13.4465 6.83002 12.8266C6.83002 12.4024 6.37476 12.2067 6.4398 11.7499C6.50483 11.2279 7.31779 10.869 7.77304 10.8037C8.91118 10.6406 12.4231 10.6732 13.6263 10.8037C14.0165 10.8364 14.6994 11.0974 14.7644 11.5215C14.8295 11.9457 14.4718 12.2393 14.4718 12.6961C14.4718 13.2834 15.1221 13.9033 14.9596 14.4579C14.927 14.5884 14.7644 14.6537 14.7319 14.7189C14.4718 15.3715 15.0896 19.7434 15.1547 20.7548C15.5449 25.3226 15.9026 29.8903 16.4229 34.4254C16.5855 35.8936 16.7806 38.2101 17.3009 39.5478C17.8862 41.0486 18.9268 42.3863 19.5121 43.9197C20.9104 47.6066 20.26 52.4679 20.2275 56.3831C20.1299 64.3766 20.0324 72.3049 20.1299 80.2984C20.1299 81.995 20.3576 83.92 18.7967 84.964H1.59459ZM13.6263 11.7499C13.6263 11.1626 13.1385 11.0974 12.6508 11.1626C12.6833 11.7173 13.1711 11.8152 13.6263 11.7499ZM8.81362 11.7499C8.81362 11.5215 8.81362 11.391 8.55348 11.3584C8.00067 11.2605 7.44786 11.8152 8.19578 11.8152C8.39089 11.8152 8.61851 11.7173 8.81362 11.7499ZM8.91118 12.4677L8.13074 12.3698V12.7613C8.4234 12.7613 8.91118 12.8918 8.91118 12.4677ZM13.3336 12.3698H12.6508L12.5532 12.6961C12.6508 12.8918 12.8784 12.8918 13.0735 12.8266C13.2686 12.7287 13.3662 12.5656 13.3336 12.3372V12.3698ZM12.8459 14.099H13.7239C13.4637 13.7728 13.1385 13.577 12.7483 13.6096L12.8459 14.099ZM8.71607 13.9359C8.52096 13.7401 7.64297 13.838 7.74052 14.3274C7.90311 14.3927 8.9437 14.1643 8.71607 13.9359ZM9.00873 14.8168H8.03319C7.96815 18.1773 7.61045 21.5379 7.35031 24.8984C7.18772 26.7908 6.99261 28.6831 6.86253 30.6081C6.69994 32.6962 6.30972 35.6326 6.47232 37.6881C6.53735 38.2753 6.60239 38.8952 7.31779 38.9279C8.586 38.9931 8.19578 37.2639 8.26081 36.5135C8.26081 36.1872 8.42341 35.861 8.45592 35.5347C8.81362 31.5216 8.55348 27.4759 8.65103 23.4302C8.71607 21.4726 8.9437 19.4824 9.04125 17.5248C9.07377 16.6113 9.04125 15.6977 9.04125 14.8168H9.00873ZM12.6508 14.8168C12.6508 16.0892 12.6833 17.3291 12.7483 18.6015C13.0085 24.0175 13.5613 29.4335 13.7239 34.8169C13.7239 35.8936 13.4312 39.0584 13.7239 39.7762C13.7889 39.9719 14.049 40.2003 14.1466 40.4287C14.2116 40.6245 14.6994 41.7664 14.6994 41.8316C14.7644 42.0927 14.3092 42.9736 14.3417 43.3651C14.3417 44.0829 15.0571 45.5837 15.2522 46.3994C15.805 48.7811 15.2847 51.1955 15.2197 53.6099C14.9921 60.0373 15.2847 66.5953 15.3173 72.9901C15.3173 75.6328 15.0246 79.1565 15.3173 81.6688C15.3823 82.256 15.6424 81.8971 15.9676 81.8319C16.4879 81.7666 16.9432 81.8319 17.2358 81.2446C17.5285 80.6899 17.1708 79.1565 17.2358 78.4061C17.3984 76.2527 17.5285 74.0015 17.626 71.8155C17.9837 63.6589 17.3659 55.2086 17.626 47.0193C17.0732 45.0943 16.3904 43.1041 14.927 41.7011C15.0896 33.6424 13.919 25.6162 13.5288 17.5901C13.4962 16.8397 13.6588 15.6977 13.5288 15.0452C13.5288 14.9473 13.4962 14.8494 13.3662 14.8168H12.6508ZM3.54568 82.4192C4.16353 82.2234 4.2936 82.517 4.74885 82.8107C5.009 82.5497 5.46425 82.2234 5.56181 81.8319C5.75692 81.0162 5.30166 80.2658 5.7244 79.5154C5.88699 79.2218 6.21217 79.1239 6.27721 78.6997C6.56987 76.9379 5.82195 74.7845 6.66742 73.0879V45.5185L5.91951 43.5282C5.39922 43.3977 4.39115 45.5185 4.26108 45.9752C4.13101 46.432 3.96842 47.1498 3.9359 47.6066C3.48065 52.9247 4.26108 58.8627 3.9359 64.2461C3.70827 69.499 3.74079 74.8172 3.64324 80.07C3.64324 80.9183 3.90338 81.6035 3.54568 82.3865V82.4192Z" fill="black"/>
</svg>
