<svg width="85" height="85" viewBox="0 0 85 85" fill="none" xmlns="http://www.w3.org/2000/svg">
<path d="M79.0236 27.4689C78.775 27.185 78.4687 26.9573 78.1252 26.801C77.7817 26.6447 77.4088 26.5634 77.0314 26.5625H62.2992L44.4924 6.21895C44.2431 5.9363 43.9365 5.70994 43.5931 5.55488C43.2496 5.39983 42.877 5.31964 42.5002 5.31964C42.1233 5.31964 41.7508 5.39983 41.4073 5.55488C41.0638 5.70994 40.7573 5.9363 40.508 6.21895L22.7012 26.5625H7.96893C7.59036 26.5625 7.21617 26.6434 6.87141 26.7998C6.52666 26.9562 6.21932 27.1844 5.96999 27.4693C5.72066 27.7541 5.5351 28.089 5.42574 28.4514C5.31639 28.8139 5.28576 29.1955 5.33592 29.5707L10.3396 67.1102C10.5142 68.3842 11.1432 69.5522 12.1109 70.3991C13.0786 71.246 14.3197 71.7146 15.6056 71.7188H69.3947C70.6806 71.7146 71.9217 71.246 72.8894 70.3991C73.8571 69.5522 74.4862 68.3842 74.6607 67.1102L79.6644 29.5707C79.7137 29.1949 79.6821 28.813 79.5715 28.4505C79.461 28.0879 79.2742 27.7533 79.0236 27.4689ZM27.0939 61.0938C27.0044 61.0989 26.9146 61.0989 26.825 61.0938C26.1642 61.0971 25.5259 60.854 25.0347 60.4119C24.5436 59.9699 24.2348 59.3606 24.1687 58.7031L22.3094 40.1094C22.2389 39.4084 22.4498 38.7082 22.8956 38.1627C23.3415 37.6173 23.9857 37.2712 24.6867 37.2008C25.3877 37.1303 26.0879 37.3412 26.6334 37.7871C27.1788 38.2329 27.5248 38.8772 27.5953 39.5781L29.4547 58.1719C29.5291 58.8724 29.3221 59.5738 28.8794 60.1217C28.4367 60.6697 27.7944 61.0193 27.0939 61.0938ZM45.1564 58.4375C45.1564 59.142 44.8766 59.8176 44.3784 60.3158C43.8803 60.8139 43.2047 61.0938 42.5002 61.0938C41.7957 61.0938 41.1201 60.8139 40.6219 60.3158C40.1238 59.8176 39.8439 59.142 39.8439 58.4375V39.8438C39.8439 39.1393 40.1238 38.4636 40.6219 37.9655C41.1201 37.4674 41.7957 37.1875 42.5002 37.1875C43.2047 37.1875 43.8803 37.4674 44.3784 37.9655C44.8766 38.4636 45.1564 39.1393 45.1564 39.8438V58.4375ZM29.7601 26.5625L42.5002 12.0029L55.2402 26.5625H29.7601ZM62.6744 40.1094L60.815 58.7031C60.7492 59.3578 60.4428 59.9647 59.9552 60.4063C59.4675 60.848 58.8333 61.0929 58.1754 61.0938C58.0858 61.0989 57.996 61.0989 57.9064 61.0938C57.5593 61.0589 57.2225 60.956 56.9152 60.7909C56.6079 60.6259 56.3361 60.4019 56.1153 60.1318C55.8946 59.8617 55.7292 59.5508 55.6286 59.2168C55.528 58.8828 55.4942 58.5322 55.5291 58.1852L57.3885 39.5914C57.4589 38.8904 57.8049 38.2462 58.3504 37.8003C58.8959 37.3545 59.5961 37.1436 60.297 37.2141C60.998 37.2845 61.6423 37.6305 62.0881 38.176C62.5339 38.7215 62.7448 39.4217 62.6744 40.1227V40.1094Z" fill="black"/>
</svg>
