<svg width="133" height="133" viewBox="0 0 133 133" fill="none" xmlns="http://www.w3.org/2000/svg">
<path d="M16.625 20.7812C16.625 19.6789 17.0629 18.6218 17.8423 17.8423C18.6218 17.0629 19.6789 16.625 20.7812 16.625H112.219C113.321 16.625 114.378 17.0629 115.158 17.8423C115.937 18.6218 116.375 19.6789 116.375 20.7812C116.375 21.8836 115.937 22.9407 115.158 23.7202C114.378 24.4996 113.321 24.9375 112.219 24.9375H20.7812C19.6789 24.9375 18.6218 24.4996 17.8423 23.7202C17.0629 22.9407 16.625 21.8836 16.625 20.7812ZM16.625 62.3438C16.625 61.2414 17.0629 60.1843 17.8423 59.4048C18.6218 58.6254 19.6789 58.1875 20.7812 58.1875H112.219C113.321 58.1875 114.378 58.6254 115.158 59.4048C115.937 60.1843 116.375 61.2414 116.375 62.3438C116.375 63.4461 115.937 64.5032 115.158 65.2827C114.378 66.0621 113.321 66.5 112.219 66.5H20.7812C19.6789 66.5 18.6218 66.0621 17.8423 65.2827C17.0629 64.5032 16.625 63.4461 16.625 62.3438ZM20.7812 99.75C19.6789 99.75 18.6218 100.188 17.8423 100.967C17.0629 101.747 16.625 102.804 16.625 103.906C16.625 105.009 17.0629 106.066 17.8423 106.845C18.6218 107.625 19.6789 108.062 20.7812 108.062H112.219C113.321 108.062 114.378 107.625 115.158 106.845C115.937 106.066 116.375 105.009 116.375 103.906C116.375 102.804 115.937 101.747 115.158 100.967C114.378 100.188 113.321 99.75 112.219 99.75H20.7812Z" fill="#311E11"/>
</svg>
