<svg width="48" height="48" viewBox="0 0 48 48" fill="none" xmlns="http://www.w3.org/2000/svg">
<path d="M26.1209 4.49994C25.5584 3.93753 24.7954 3.62158 23.9999 3.62158C23.2044 3.62158 22.4415 3.93753 21.8789 4.49994L1.93794 24.4379C1.79848 24.5774 1.68785 24.743 1.61237 24.9252C1.53689 25.1074 1.49805 25.3027 1.49805 25.4999C1.49805 25.6972 1.53689 25.8925 1.61237 26.0747C1.68785 26.2569 1.79848 26.4225 1.93794 26.5619C2.2196 26.8436 2.60161 27.0018 2.99994 27.0018C3.19717 27.0018 3.39247 26.963 3.57469 26.8875C3.75691 26.812 3.92248 26.7014 4.06194 26.5619L5.99994 24.6209V40.4999C5.99994 41.6934 6.47405 42.838 7.31796 43.6819C8.16187 44.5258 9.30647 44.9999 10.4999 44.9999H37.4999C38.6934 44.9999 39.838 44.5258 40.6819 43.6819C41.5258 42.838 41.9999 41.6934 41.9999 40.4999V24.6209L43.9379 26.5619C44.2196 26.8436 44.6016 27.0018 44.9999 27.0018C45.3983 27.0018 45.7803 26.8436 46.0619 26.5619C46.3436 26.2803 46.5018 25.8983 46.5018 25.4999C46.5018 25.1016 46.3436 24.7196 46.0619 24.4379L38.9999 17.3789V7.49994C38.9999 7.10212 38.8419 6.72059 38.5606 6.43928C38.2793 6.15798 37.8978 5.99994 37.4999 5.99994H34.4999C34.1021 5.99994 33.7206 6.15798 33.4393 6.43928C33.158 6.72059 32.9999 7.10212 32.9999 7.49994V11.3789L26.1209 4.49994ZM38.9999 21.6209V40.4999C38.9999 40.8978 38.8419 41.2793 38.5606 41.5606C38.2793 41.8419 37.8978 41.9999 37.4999 41.9999H10.4999C10.1021 41.9999 9.72059 41.8419 9.43928 41.5606C9.15798 41.2793 8.99994 40.8978 8.99994 40.4999V21.6209L23.9999 6.62094L38.9999 21.6209Z" fill="white"/>
</svg>
