<svg width="48" height="48" viewBox="0 0 48 48" fill="none" xmlns="http://www.w3.org/2000/svg">
<path d="M33.2579 27.782L34.1699 26.876L32.0519 24.748L31.1439 25.654L33.2579 27.782ZM37.2279 26.496L41.0499 28.574L42.4799 25.938L38.6599 23.862L37.2279 26.496ZM41.7839 32.702L38.9439 35.528L41.0579 37.654L43.8979 34.83L41.7839 32.702ZM37.2119 36.436C34.3119 36.708 26.8119 36.466 18.6879 28.39L16.5719 30.516C25.4359 39.33 33.8739 39.762 37.4919 39.424L37.2119 36.436ZM18.6879 28.39C10.9459 20.69 9.66186 14.216 9.50186 11.406L6.50586 11.576C6.70586 15.112 8.29586 22.288 16.5719 30.516L18.6879 28.39ZM21.4379 16.03L22.0119 15.458L19.8999 13.332L19.3259 13.902L21.4379 16.03ZM22.4679 8.18804L19.9479 4.82004L17.5459 6.62004L20.0659 9.98604L22.4679 8.18804ZM11.4659 4.08604L8.32586 7.20604L10.4419 9.33404L13.5799 6.21404L11.4659 4.08604ZM20.3819 14.966C19.3219 13.902 19.3219 13.902 19.3219 13.906H19.3179L19.3119 13.914C19.2168 14.0099 19.1317 14.1151 19.0579 14.228C18.9499 14.388 18.8319 14.598 18.7319 14.864C18.4884 15.5507 18.4278 16.2889 18.5559 17.006C18.8239 18.736 20.0159 21.022 23.0679 24.058L25.1839 21.93C22.3259 19.09 21.6459 17.362 21.5199 16.546C21.4599 16.158 21.5219 15.966 21.5399 15.922C21.5519 15.8954 21.5519 15.8914 21.5399 15.91C21.522 15.9376 21.502 15.9637 21.4799 15.988L21.4599 16.008L21.4399 16.026L20.3819 14.966ZM23.0679 24.058C26.1219 27.094 28.4199 28.278 30.1519 28.542C31.0379 28.678 31.7519 28.57 32.2939 28.368C32.5975 28.257 32.8811 28.0976 33.1339 27.896L33.2339 27.806L33.2479 27.794L33.2539 27.788L33.2559 27.784C33.2559 27.784 33.2579 27.782 32.1999 26.718C31.1399 25.654 31.1459 25.652 31.1459 25.652L31.1499 25.648L31.1539 25.644L31.1659 25.634L31.1859 25.614L31.2619 25.554C31.2805 25.542 31.2759 25.5434 31.2479 25.558C31.1979 25.576 31.0019 25.638 30.6079 25.578C29.7799 25.45 28.0399 24.77 25.1839 21.93L23.0679 24.058ZM19.9479 4.81804C17.9079 2.09804 13.8999 1.66604 11.4659 4.08604L13.5799 6.21404C14.6439 5.15604 16.5319 5.26604 17.5459 6.62004L19.9479 4.81804ZM9.50386 11.408C9.46386 10.716 9.78186 9.99204 10.4419 9.33604L8.32386 7.20804C7.24986 8.27604 6.40386 9.78804 6.50586 11.576L9.50386 11.408ZM38.9439 35.528C38.3959 36.076 37.8039 36.384 37.2139 36.438L37.4919 39.424C38.9619 39.286 40.1639 38.546 41.0599 37.656L38.9439 35.528ZM22.0119 15.458C23.9819 13.5 24.1279 10.406 22.4699 8.19004L20.0679 9.98804C20.8739 11.066 20.7539 12.48 19.8979 13.334L22.0119 15.458ZM41.0519 28.576C42.6859 29.464 42.9399 31.556 41.7859 32.704L43.9019 34.83C46.5819 32.164 45.7559 27.718 42.4819 25.94L41.0519 28.576ZM34.1699 26.878C34.9379 26.114 36.1739 25.926 37.2299 26.498L38.6619 23.864C36.4939 22.684 33.8059 23.01 32.0539 24.75L34.1699 26.878Z" fill="white"/>
</svg>
