<svg width="48" height="48" viewBox="0 0 48 48" fill="none" xmlns="http://www.w3.org/2000/svg">
<g clip-path="url(#clip0_15_1418)">
<path d="M35.0591 29.2128C35.0591 31.2288 35.6327 32.0328 37.1327 32.0328C40.4759 32.0328 42.6047 27.7728 42.6047 20.688C42.6047 9.85925 34.7135 4.67525 24.8615 4.67525C14.7263 4.67525 5.50788 11.472 5.50788 24.3168C5.50788 36.5856 13.5719 43.2673 25.9559 43.2673C30.1607 43.2673 32.9831 42.8064 37.3007 41.3665L38.2271 45.2233C33.9647 46.6081 29.4095 47.0089 25.8983 47.0089C9.65508 47.0089 0.955078 38.0808 0.955078 24.3144C0.955078 10.4328 11.0375 0.98645 24.9191 0.98645C39.3767 0.98645 47.0351 9.62645 47.0351 20.2248C47.0351 29.2104 44.2151 36.0648 35.3447 36.0648C31.3103 36.0648 28.6631 34.452 28.3175 30.8784C27.2807 34.8528 24.5159 36.0648 20.7695 36.0648C15.7583 36.0648 11.5535 32.2032 11.5535 24.4296C11.5535 16.596 15.2423 11.7576 21.8663 11.7576C25.3799 11.7576 27.5687 13.14 28.5431 15.3288L30.2159 12.276H35.0543V29.2128H35.0591ZM27.9767 21.6096C27.9767 18.444 25.6127 17.1168 23.6543 17.1168C21.5231 17.1168 19.1639 18.8424 19.1639 23.9136C19.1639 27.9456 20.9495 30.192 23.6543 30.192C25.5551 30.192 27.9767 28.9824 27.9767 25.6416V21.6096Z" fill="white"/>
</g>
<defs>
<clipPath id="clip0_15_1418">
<rect width="48" height="48" rx="10" fill="white"/>
</clipPath>
</defs>
</svg>
