<svg width="48" height="48" viewBox="0 0 48 48" fill="none" xmlns="http://www.w3.org/2000/svg">
<g clip-path="url(#clip0_15_1431)">
<path d="M12 32C10.9 32 9.95867 31.6087 9.176 30.826C8.39333 30.0433 8.00133 29.1013 8 28V4C8 2.9 8.392 1.95867 9.176 1.176C9.96 0.393333 10.9013 0.00133333 12 0H44C45.1 0 46.042 0.392 46.826 1.176C47.61 1.96 48.0013 2.90133 48 4V28C48 29.1 47.6087 30.042 46.826 30.826C46.0433 31.61 45.1013 32.0013 44 32H12ZM44 8L29.05 17.35C28.8833 17.45 28.7087 17.5253 28.526 17.576C28.3433 17.6267 28.168 17.6513 28 17.65C27.832 17.6487 27.6573 17.624 27.476 17.576C27.2947 17.528 27.1193 17.4527 26.95 17.35L12 8V28H44V8ZM28 14L44 4H12L28 14ZM12 8.5V5.55V5.6V5.576V8.5Z" fill="white"/>
</g>
<defs>
<clipPath id="clip0_15_1431">
<rect width="48" height="48" fill="white"/>
</clipPath>
</defs>
</svg>
