<svg width="306" height="65" viewBox="0 0 306 65" fill="none" xmlns="http://www.w3.org/2000/svg">
<g filter="url(#filter0_d_15_1038)">
<g clip-path="url(#clip0_15_1038)">
<rect x="4" width="298" height="57" rx="3" fill="#311E11"/>
<path d="M139.44 24.48C139.44 25.8933 139.107 27.2267 138.44 28.48C137.773 29.7333 136.707 30.76 135.24 31.56C133.773 32.3333 131.893 32.72 129.6 32.72H124.56V44H120V16.2H129.6C131.733 16.2 133.533 16.5733 135 17.32C136.493 18.04 137.6 19.0267 138.32 20.28C139.067 21.5333 139.44 22.9333 139.44 24.48ZM129.6 29C131.333 29 132.627 28.6133 133.48 27.84C134.333 27.04 134.76 25.92 134.76 24.48C134.76 21.44 133.04 19.92 129.6 19.92H124.56V29H129.6ZM148.349 25.16C149.016 24.04 149.896 23.1733 150.989 22.56C152.109 21.92 153.429 21.6 154.949 21.6V26.32H153.789C152.002 26.32 150.642 26.7733 149.709 27.68C148.802 28.5867 148.349 30.16 148.349 32.4V44H143.789V21.96H148.349V25.16ZM161.461 19.04C160.634 19.04 159.941 18.76 159.381 18.2C158.821 17.64 158.541 16.9467 158.541 16.12C158.541 15.2933 158.821 14.6 159.381 14.04C159.941 13.48 160.634 13.2 161.461 13.2C162.261 13.2 162.941 13.48 163.501 14.04C164.061 14.6 164.341 15.2933 164.341 16.12C164.341 16.9467 164.061 17.64 163.501 18.2C162.941 18.76 162.261 19.04 161.461 19.04ZM163.701 21.96V44H159.141V21.96H163.701ZM177.688 44.36C175.954 44.36 174.394 44.0533 173.008 43.44C171.648 42.8 170.568 41.9467 169.768 40.88C168.968 39.7867 168.541 38.5733 168.488 37.24H173.208C173.288 38.1733 173.728 38.96 174.528 39.6C175.354 40.2133 176.381 40.52 177.608 40.52C178.888 40.52 179.874 40.28 180.568 39.8C181.288 39.2933 181.648 38.6533 181.648 37.88C181.648 37.0533 181.248 36.44 180.448 36.04C179.674 35.64 178.434 35.2 176.728 34.72C175.074 34.2667 173.728 33.8267 172.688 33.4C171.648 32.9733 170.741 32.32 169.968 31.44C169.221 30.56 168.848 29.4 168.848 27.96C168.848 26.7867 169.194 25.72 169.888 24.76C170.581 23.7733 171.568 23 172.848 22.44C174.154 21.88 175.648 21.6 177.328 21.6C179.834 21.6 181.848 22.24 183.368 23.52C184.914 24.7733 185.741 26.4933 185.848 28.68H181.288C181.208 27.6933 180.808 26.9067 180.088 26.32C179.368 25.7333 178.394 25.44 177.168 25.44C175.968 25.44 175.048 25.6667 174.408 26.12C173.768 26.5733 173.448 27.1733 173.448 27.92C173.448 28.5067 173.661 29 174.088 29.4C174.514 29.8 175.034 30.12 175.648 30.36C176.261 30.5733 177.168 30.8533 178.368 31.2C179.968 31.6267 181.274 32.0667 182.288 32.52C183.328 32.9467 184.221 33.5867 184.968 34.44C185.714 35.2933 186.101 36.4267 186.128 37.84C186.128 39.0933 185.781 40.2133 185.088 41.2C184.394 42.1867 183.408 42.96 182.128 43.52C180.874 44.08 179.394 44.36 177.688 44.36Z" fill="white"/>
</g>
</g>
<defs>
<filter id="filter0_d_15_1038" x="0" y="0" width="306" height="65" filterUnits="userSpaceOnUse" color-interpolation-filters="sRGB">
<feFlood flood-opacity="0" result="BackgroundImageFix"/>
<feColorMatrix in="SourceAlpha" type="matrix" values="0 0 0 0 0 0 0 0 0 0 0 0 0 0 0 0 0 0 127 0" result="hardAlpha"/>
<feOffset dy="4"/>
<feGaussianBlur stdDeviation="2"/>
<feComposite in2="hardAlpha" operator="out"/>
<feColorMatrix type="matrix" values="0 0 0 0 0 0 0 0 0 0 0 0 0 0 0 0 0 0 0.25 0"/>
<feBlend mode="normal" in2="BackgroundImageFix" result="effect1_dropShadow_15_1038"/>
<feBlend mode="normal" in="SourceGraphic" in2="effect1_dropShadow_15_1038" result="shape"/>
</filter>
<clipPath id="clip0_15_1038">
<rect x="4" width="298" height="57" rx="3" fill="white"/>
</clipPath>
</defs>
</svg>
