<svg width="306" height="65" viewBox="0 0 306 65" fill="none" xmlns="http://www.w3.org/2000/svg">
<g filter="url(#filter0_d_15_1042)">
<g clip-path="url(#clip0_15_1042)">
<rect x="4" width="298" height="57" rx="3" fill="#311E11"/>
<path d="M37.56 40.32H46.96V44H33V16.2H37.56V40.32ZM49.2534 32.88C49.2534 30.6667 49.7068 28.7067 50.6134 27C51.5468 25.2933 52.8001 23.9733 54.3734 23.04C55.9734 22.08 57.7334 21.6 59.6534 21.6C61.3868 21.6 62.8934 21.9467 64.1734 22.64C65.4801 23.3067 66.5201 24.1467 67.2934 25.16V21.96H71.8934V44H67.2934V40.72C66.5201 41.76 65.4668 42.6267 64.1334 43.32C62.8001 44.0133 61.2801 44.36 59.5734 44.36C57.6801 44.36 55.9468 43.88 54.3734 42.92C52.8001 41.9333 51.5468 40.5733 50.6134 38.84C49.7068 37.08 49.2534 35.0933 49.2534 32.88ZM67.2934 32.96C67.2934 31.44 66.9734 30.12 66.3334 29C65.7201 27.88 64.9068 27.0267 63.8934 26.44C62.8801 25.8533 61.7868 25.56 60.6134 25.56C59.4401 25.56 58.3468 25.8533 57.3334 26.44C56.3201 27 55.4934 27.84 54.8534 28.96C54.2401 30.0533 53.9334 31.36 53.9334 32.88C53.9334 34.4 54.2401 35.7333 54.8534 36.88C55.4934 38.0267 56.3201 38.9067 57.3334 39.52C58.3734 40.1067 59.4668 40.4 60.6134 40.4C61.7868 40.4 62.8801 40.1067 63.8934 39.52C64.9068 38.9333 65.7201 38.08 66.3334 36.96C66.9734 35.8133 67.2934 34.48 67.2934 32.96ZM86.7628 21.6C88.4695 21.6 89.9761 21.9467 91.2828 22.64C92.6161 23.3067 93.6561 24.1467 94.4028 25.16V21.96H99.0028V44.36C99.0028 46.3867 98.5761 48.1867 97.7228 49.76C96.8695 51.36 95.6295 52.6133 94.0028 53.52C92.4028 54.4267 90.4828 54.88 88.2428 54.88C85.2561 54.88 82.7761 54.1733 80.8028 52.76C78.8295 51.3733 77.7095 49.48 77.4428 47.08H81.9628C82.3095 48.2267 83.0428 49.1467 84.1628 49.84C85.3095 50.56 86.6695 50.92 88.2428 50.92C90.0828 50.92 91.5628 50.36 92.6828 49.24C93.8295 48.12 94.4028 46.4933 94.4028 44.36V40.68C93.6295 41.72 92.5761 42.6 91.2428 43.32C89.9361 44.0133 88.4428 44.36 86.7628 44.36C84.8428 44.36 83.0828 43.88 81.4828 42.92C79.9095 41.9333 78.6561 40.5733 77.7228 38.84C76.8161 37.08 76.3628 35.0933 76.3628 32.88C76.3628 30.6667 76.8161 28.7067 77.7228 27C78.6561 25.2933 79.9095 23.9733 81.4828 23.04C83.0828 22.08 84.8428 21.6 86.7628 21.6ZM94.4028 32.96C94.4028 31.44 94.0828 30.12 93.4428 29C92.8295 27.88 92.0161 27.0267 91.0028 26.44C89.9895 25.8533 88.8961 25.56 87.7228 25.56C86.5495 25.56 85.4561 25.8533 84.4428 26.44C83.4295 27 82.6028 27.84 81.9628 28.96C81.3495 30.0533 81.0428 31.36 81.0428 32.88C81.0428 34.4 81.3495 35.7333 81.9628 36.88C82.6028 38.0267 83.4295 38.9067 84.4428 39.52C85.4828 40.1067 86.5761 40.4 87.7228 40.4C88.8961 40.4 89.9895 40.1067 91.0028 39.52C92.0161 38.9333 92.8295 38.08 93.4428 36.96C94.0828 35.8133 94.4028 34.48 94.4028 32.96ZM125.192 32.44C125.192 33.2667 125.139 34.0133 125.032 34.68H108.192C108.326 36.44 108.979 37.8533 110.152 38.92C111.326 39.9867 112.766 40.52 114.472 40.52C116.926 40.52 118.659 39.4933 119.672 37.44H124.592C123.926 39.4667 122.712 41.1333 120.952 42.44C119.219 43.72 117.059 44.36 114.472 44.36C112.366 44.36 110.472 43.8933 108.792 42.96C107.139 42 105.832 40.6667 104.872 38.96C103.939 37.2267 103.472 35.2267 103.472 32.96C103.472 30.6933 103.926 28.7067 104.832 27C105.766 25.2667 107.059 23.9333 108.712 23C110.392 22.0667 112.312 21.6 114.472 21.6C116.552 21.6 118.406 22.0533 120.032 22.96C121.659 23.8667 122.926 25.1467 123.832 26.8C124.739 28.4267 125.192 30.3067 125.192 32.44ZM120.432 31C120.406 29.32 119.806 27.9733 118.632 26.96C117.459 25.9467 116.006 25.44 114.272 25.44C112.699 25.44 111.352 25.9467 110.232 26.96C109.112 27.9467 108.446 29.2933 108.232 31H120.432ZM134.24 25.16C134.906 24.04 135.786 23.1733 136.88 22.56C138 21.92 139.32 21.6 140.84 21.6V26.32H139.68C137.893 26.32 136.533 26.7733 135.6 27.68C134.693 28.5867 134.24 30.16 134.24 32.4V44H129.68V21.96H134.24V25.16ZM153.031 44.36C151.298 44.36 149.738 44.0533 148.351 43.44C146.991 42.8 145.911 41.9467 145.111 40.88C144.311 39.7867 143.885 38.5733 143.831 37.24H148.551C148.631 38.1733 149.071 38.96 149.871 39.6C150.698 40.2133 151.725 40.52 152.951 40.52C154.231 40.52 155.218 40.28 155.911 39.8C156.631 39.2933 156.991 38.6533 156.991 37.88C156.991 37.0533 156.591 36.44 155.791 36.04C155.018 35.64 153.778 35.2 152.071 34.72C150.418 34.2667 149.071 33.8267 148.031 33.4C146.991 32.9733 146.085 32.32 145.311 31.44C144.565 30.56 144.191 29.4 144.191 27.96C144.191 26.7867 144.538 25.72 145.231 24.76C145.925 23.7733 146.911 23 148.191 22.44C149.498 21.88 150.991 21.6 152.671 21.6C155.178 21.6 157.191 22.24 158.711 23.52C160.258 24.7733 161.085 26.4933 161.191 28.68H156.631C156.551 27.6933 156.151 26.9067 155.431 26.32C154.711 25.7333 153.738 25.44 152.511 25.44C151.311 25.44 150.391 25.6667 149.751 26.12C149.111 26.5733 148.791 27.1733 148.791 27.92C148.791 28.5067 149.005 29 149.431 29.4C149.858 29.8 150.378 30.12 150.991 30.36C151.605 30.5733 152.511 30.8533 153.711 31.2C155.311 31.6267 156.618 32.0667 157.631 32.52C158.671 32.9467 159.565 33.5867 160.311 34.44C161.058 35.2933 161.445 36.4267 161.471 37.84C161.471 39.0933 161.125 40.2133 160.431 41.2C159.738 42.1867 158.751 42.96 157.471 43.52C156.218 44.08 154.738 44.36 153.031 44.36ZM171.718 25.68V37.88C171.718 38.7067 171.905 39.3067 172.278 39.68C172.678 40.0267 173.345 40.2 174.278 40.2H177.078V44H173.478C171.425 44 169.852 43.52 168.758 42.56C167.665 41.6 167.118 40.04 167.118 37.88V25.68H164.518V21.96H167.118V16.48H171.718V21.96H177.078V25.68H171.718ZM179.761 32.88C179.761 30.6667 180.215 28.7067 181.121 27C182.055 25.2933 183.308 23.9733 184.881 23.04C186.481 22.08 188.241 21.6 190.161 21.6C191.895 21.6 193.401 21.9467 194.681 22.64C195.988 23.3067 197.028 24.1467 197.801 25.16V21.96H202.401V44H197.801V40.72C197.028 41.76 195.975 42.6267 194.641 43.32C193.308 44.0133 191.788 44.36 190.081 44.36C188.188 44.36 186.455 43.88 184.881 42.92C183.308 41.9333 182.055 40.5733 181.121 38.84C180.215 37.08 179.761 35.0933 179.761 32.88ZM197.801 32.96C197.801 31.44 197.481 30.12 196.841 29C196.228 27.88 195.415 27.0267 194.401 26.44C193.388 25.8533 192.295 25.56 191.121 25.56C189.948 25.56 188.855 25.8533 187.841 26.44C186.828 27 186.001 27.84 185.361 28.96C184.748 30.0533 184.441 31.36 184.441 32.88C184.441 34.4 184.748 35.7333 185.361 36.88C186.001 38.0267 186.828 38.9067 187.841 39.52C188.881 40.1067 189.975 40.4 191.121 40.4C192.295 40.4 193.388 40.1067 194.401 39.52C195.415 38.9333 196.228 38.08 196.841 36.96C197.481 35.8133 197.801 34.48 197.801 32.96ZM213.711 25.68V37.88C213.711 38.7067 213.897 39.3067 214.271 39.68C214.671 40.0267 215.337 40.2 216.271 40.2H219.071V44H215.471C213.417 44 211.844 43.52 210.751 42.56C209.657 41.6 209.111 40.04 209.111 37.88V25.68H206.511V21.96H209.111V16.48H213.711V21.96H219.071V25.68H213.711ZM243.233 21.96V44H238.673V41.4C237.953 42.3067 237.007 43.0267 235.833 43.56C234.687 44.0667 233.46 44.32 232.153 44.32C230.42 44.32 228.86 43.96 227.473 43.24C226.113 42.52 225.033 41.4533 224.233 40.04C223.46 38.6267 223.073 36.92 223.073 34.92V21.96H227.593V34.24C227.593 36.2133 228.087 37.7333 229.073 38.8C230.06 39.84 231.407 40.36 233.113 40.36C234.82 40.36 236.167 39.84 237.153 38.8C238.167 37.7333 238.673 36.2133 238.673 34.24V21.96H243.233ZM257.25 44.36C255.517 44.36 253.957 44.0533 252.57 43.44C251.21 42.8 250.13 41.9467 249.33 40.88C248.53 39.7867 248.103 38.5733 248.05 37.24H252.77C252.85 38.1733 253.29 38.96 254.09 39.6C254.917 40.2133 255.943 40.52 257.17 40.52C258.45 40.52 259.437 40.28 260.13 39.8C260.85 39.2933 261.21 38.6533 261.21 37.88C261.21 37.0533 260.81 36.44 260.01 36.04C259.237 35.64 257.997 35.2 256.29 34.72C254.637 34.2667 253.29 33.8267 252.25 33.4C251.21 32.9733 250.303 32.32 249.53 31.44C248.783 30.56 248.41 29.4 248.41 27.96C248.41 26.7867 248.757 25.72 249.45 24.76C250.143 23.7733 251.13 23 252.41 22.44C253.717 21.88 255.21 21.6 256.89 21.6C259.397 21.6 261.41 22.24 262.93 23.52C264.477 24.7733 265.303 26.4933 265.41 28.68H260.85C260.77 27.6933 260.37 26.9067 259.65 26.32C258.93 25.7333 257.957 25.44 256.73 25.44C255.53 25.44 254.61 25.6667 253.97 26.12C253.33 26.5733 253.01 27.1733 253.01 27.92C253.01 28.5067 253.223 29 253.65 29.4C254.077 29.8 254.597 30.12 255.21 30.36C255.823 30.5733 256.73 30.8533 257.93 31.2C259.53 31.6267 260.837 32.0667 261.85 32.52C262.89 32.9467 263.783 33.5867 264.53 34.44C265.277 35.2933 265.663 36.4267 265.69 37.84C265.69 39.0933 265.343 40.2133 264.65 41.2C263.957 42.1867 262.97 42.96 261.69 43.52C260.437 44.08 258.957 44.36 257.25 44.36Z" fill="white"/>
</g>
</g>
<defs>
<filter id="filter0_d_15_1042" x="0" y="0" width="306" height="65" filterUnits="userSpaceOnUse" color-interpolation-filters="sRGB">
<feFlood flood-opacity="0" result="BackgroundImageFix"/>
<feColorMatrix in="SourceAlpha" type="matrix" values="0 0 0 0 0 0 0 0 0 0 0 0 0 0 0 0 0 0 127 0" result="hardAlpha"/>
<feOffset dy="4"/>
<feGaussianBlur stdDeviation="2"/>
<feComposite in2="hardAlpha" operator="out"/>
<feColorMatrix type="matrix" values="0 0 0 0 0 0 0 0 0 0 0 0 0 0 0 0 0 0 0.25 0"/>
<feBlend mode="normal" in2="BackgroundImageFix" result="effect1_dropShadow_15_1042"/>
<feBlend mode="normal" in="SourceGraphic" in2="effect1_dropShadow_15_1042" result="shape"/>
</filter>
<clipPath id="clip0_15_1042">
<rect x="4" width="298" height="57" rx="3" fill="white"/>
</clipPath>
</defs>
</svg>
