<svg width="168" height="65" viewBox="0 0 168 65" fill="none" xmlns="http://www.w3.org/2000/svg">
<g filter="url(#filter0_d_15_1409)">
<rect x="4" width="160" height="57" rx="3" fill="#F4A258"/>
<path d="M33.948 26.32C33.7453 25.9467 33.452 25.664 33.068 25.472C32.6947 25.2693 32.252 25.168 31.74 25.168C30.8547 25.168 30.1453 25.4613 29.612 26.048C29.0787 26.624 28.812 27.3973 28.812 28.368C28.812 29.4027 29.0893 30.2133 29.644 30.8C30.2093 31.376 30.9827 31.664 31.964 31.664C32.636 31.664 33.2013 31.4933 33.66 31.152C34.1293 30.8107 34.4707 30.32 34.684 29.68H31.212V27.664H37.164V30.208C36.9613 30.8907 36.6147 31.5253 36.124 32.112C35.644 32.6987 35.0307 33.1733 34.284 33.536C33.5373 33.8987 32.6947 34.08 31.756 34.08C30.6467 34.08 29.6547 33.84 28.78 33.36C27.916 32.8693 27.2387 32.192 26.748 31.328C26.268 30.464 26.028 29.4773 26.028 28.368C26.028 27.2587 26.268 26.272 26.748 25.408C27.2387 24.5333 27.916 23.856 28.78 23.376C29.644 22.8853 30.6307 22.64 31.74 22.64C33.084 22.64 34.2147 22.9653 35.132 23.616C36.06 24.2667 36.6733 25.168 36.972 26.32H33.948ZM38.1355 29.52C38.1355 28.6027 38.3062 27.7973 38.6475 27.104C38.9995 26.4107 39.4742 25.8773 40.0715 25.504C40.6688 25.1307 41.3355 24.944 42.0715 24.944C42.7008 24.944 43.2502 25.072 43.7195 25.328C44.1995 25.584 44.5675 25.92 44.8235 26.336V25.072H47.5595V34H44.8235V32.736C44.5568 33.152 44.1835 33.488 43.7035 33.744C43.2342 34 42.6848 34.128 42.0555 34.128C41.3302 34.128 40.6688 33.9413 40.0715 33.568C39.4742 33.184 38.9995 32.6453 38.6475 31.952C38.3062 31.248 38.1355 30.4373 38.1355 29.52ZM44.8235 29.536C44.8235 28.8533 44.6315 28.3147 44.2475 27.92C43.8742 27.5253 43.4155 27.328 42.8715 27.328C42.3275 27.328 41.8635 27.5253 41.4795 27.92C41.1062 28.304 40.9195 28.8373 40.9195 29.52C40.9195 30.2027 41.1062 30.7467 41.4795 31.152C41.8635 31.5467 42.3275 31.744 42.8715 31.744C43.4155 31.744 43.8742 31.5467 44.2475 31.152C44.6315 30.7573 44.8235 30.2187 44.8235 29.536ZM45.1435 22.48C45.1435 23.0667 44.9515 23.536 44.5675 23.888C44.1942 24.24 43.7302 24.416 43.1755 24.416C42.6208 24.416 42.1568 24.24 41.7835 23.888C41.4102 23.536 41.2235 23.0667 41.2235 22.48C41.2235 21.8933 41.4102 21.424 41.7835 21.072C42.1568 20.72 42.6208 20.544 43.1755 20.544C43.7302 20.544 44.1942 20.72 44.5675 21.072C44.9515 21.424 45.1435 21.8933 45.1435 22.48ZM43.9435 22.48C43.9435 22.2453 43.8688 22.0587 43.7195 21.92C43.5808 21.7707 43.3995 21.696 43.1755 21.696C42.9622 21.696 42.7808 21.7707 42.6315 21.92C42.4928 22.0587 42.4235 22.2453 42.4235 22.48C42.4235 22.704 42.4928 22.8907 42.6315 23.04C42.7808 23.1893 42.9622 23.264 43.1755 23.264C43.3995 23.264 43.5808 23.1893 43.7195 23.04C43.8688 22.8907 43.9435 22.704 43.9435 22.48ZM57.9055 31.68V34H56.5135C55.5215 34 54.7482 33.76 54.1935 33.28C53.6388 32.7893 53.3615 31.9947 53.3615 30.896V27.344H52.2735V25.072H53.3615V22.896H56.0975V25.072H57.8895V27.344H56.0975V30.928C56.0975 31.1947 56.1615 31.3867 56.2895 31.504C56.4175 31.6213 56.6308 31.68 56.9295 31.68H57.9055ZM60.8055 24.144C60.3255 24.144 59.9308 24.0053 59.6215 23.728C59.3228 23.44 59.1735 23.088 59.1735 22.672C59.1735 22.2453 59.3228 21.8933 59.6215 21.616C59.9308 21.328 60.3255 21.184 60.8055 21.184C61.2748 21.184 61.6588 21.328 61.9575 21.616C62.2668 21.8933 62.4215 22.2453 62.4215 22.672C62.4215 23.088 62.2668 23.44 61.9575 23.728C61.6588 24.0053 61.2748 24.144 60.8055 24.144ZM62.1655 25.072V34H59.4295V25.072H62.1655ZM66.8843 22.16V34H64.1483V22.16H66.8843ZM77.7136 34L74.9936 30.256V34H72.2576V22.16H74.9936V28.704L77.6976 25.072H81.0736L77.3616 29.552L81.1056 34H77.7136ZM81.6043 29.52C81.6043 28.6027 81.7749 27.7973 82.1163 27.104C82.4683 26.4107 82.9429 25.8773 83.5403 25.504C84.1376 25.1307 84.8043 24.944 85.5403 24.944C86.1696 24.944 86.7189 25.072 87.1883 25.328C87.6683 25.584 88.0363 25.92 88.2923 26.336V25.072H91.0283V34H88.2923V32.736C88.0256 33.152 87.6523 33.488 87.1723 33.744C86.7029 34 86.1536 34.128 85.5243 34.128C84.7989 34.128 84.1376 33.9413 83.5403 33.568C82.9429 33.184 82.4683 32.6453 82.1163 31.952C81.7749 31.248 81.6043 30.4373 81.6043 29.52ZM88.2923 29.536C88.2923 28.8533 88.1003 28.3147 87.7163 27.92C87.3429 27.5253 86.8843 27.328 86.3403 27.328C85.7963 27.328 85.3323 27.5253 84.9483 27.92C84.5749 28.304 84.3883 28.8373 84.3883 29.52C84.3883 30.2027 84.5749 30.7467 84.9483 31.152C85.3323 31.5467 85.7963 31.744 86.3403 31.744C86.8843 31.744 87.3429 31.5467 87.7163 31.152C88.1003 30.7573 88.2923 30.2187 88.2923 29.536ZM96.6396 34.128C95.861 34.128 95.1676 33.9947 94.5596 33.728C93.9516 33.4613 93.4716 33.0987 93.1196 32.64C92.7676 32.1707 92.5703 31.648 92.5276 31.072H95.2316C95.2636 31.3813 95.4076 31.632 95.6636 31.824C95.9196 32.016 96.2343 32.112 96.6076 32.112C96.949 32.112 97.2103 32.048 97.3916 31.92C97.5836 31.7813 97.6796 31.6053 97.6796 31.392C97.6796 31.136 97.5463 30.9493 97.2796 30.832C97.013 30.704 96.581 30.5653 95.9836 30.416C95.3436 30.2667 94.8103 30.112 94.3836 29.952C93.957 29.7813 93.589 29.52 93.2796 29.168C92.9703 28.8053 92.8156 28.32 92.8156 27.712C92.8156 27.2 92.9543 26.736 93.2316 26.32C93.5196 25.8933 93.9356 25.5573 94.4796 25.312C95.0343 25.0667 95.6903 24.944 96.4476 24.944C97.5676 24.944 98.4476 25.2213 99.0876 25.776C99.7383 26.3307 100.112 27.0667 100.208 27.984H97.6796C97.637 27.6747 97.4983 27.4293 97.2636 27.248C97.0396 27.0667 96.741 26.976 96.3676 26.976C96.0476 26.976 95.8023 27.04 95.6316 27.168C95.461 27.2853 95.3756 27.4507 95.3756 27.664C95.3756 27.92 95.509 28.112 95.7756 28.24C96.053 28.368 96.4796 28.496 97.0556 28.624C97.717 28.7947 98.2556 28.9653 98.6716 29.136C99.0876 29.296 99.4503 29.5627 99.7596 29.936C100.08 30.2987 100.245 30.7893 100.256 31.408C100.256 31.9307 100.106 32.4 99.8076 32.816C99.5196 33.2213 99.0983 33.5413 98.5436 33.776C97.9996 34.0107 97.365 34.128 96.6396 34.128ZM105.562 34.128C104.783 34.128 104.09 33.9947 103.482 33.728C102.874 33.4613 102.394 33.0987 102.042 32.64C101.69 32.1707 101.492 31.648 101.45 31.072H104.154C104.186 31.3813 104.33 31.632 104.586 31.824C104.842 32.016 105.156 32.112 105.53 32.112C105.871 32.112 106.132 32.048 106.314 31.92C106.506 31.7813 106.602 31.6053 106.602 31.392C106.602 31.136 106.468 30.9493 106.202 30.832C105.935 30.704 105.503 30.5653 104.906 30.416C104.266 30.2667 103.732 30.112 103.306 29.952C102.879 29.7813 102.511 29.52 102.202 29.168C101.892 28.8053 101.738 28.32 101.738 27.712C101.738 27.2 101.876 26.736 102.154 26.32C102.442 25.8933 102.858 25.5573 103.402 25.312C103.956 25.0667 104.612 24.944 105.37 24.944C106.49 24.944 107.37 25.2213 108.01 25.776C108.66 26.3307 109.034 27.0667 109.13 27.984H106.602C106.559 27.6747 106.42 27.4293 106.186 27.248C105.962 27.0667 105.663 26.976 105.29 26.976C104.97 26.976 104.724 27.04 104.554 27.168C104.383 27.2853 104.298 27.4507 104.298 27.664C104.298 27.92 104.431 28.112 104.698 28.24C104.975 28.368 105.402 28.496 105.978 28.624C106.639 28.7947 107.178 28.9653 107.594 29.136C108.01 29.296 108.372 29.5627 108.682 29.936C109.002 30.2987 109.167 30.7893 109.178 31.408C109.178 31.9307 109.028 32.4 108.73 32.816C108.442 33.2213 108.02 33.5413 107.466 33.776C106.922 34.0107 106.287 34.128 105.562 34.128ZM119.267 29.392C119.267 29.648 119.251 29.9147 119.219 30.192H113.027C113.07 30.7467 113.246 31.1733 113.555 31.472C113.875 31.76 114.265 31.904 114.723 31.904C115.406 31.904 115.881 31.616 116.147 31.04H119.059C118.91 31.6267 118.638 32.1547 118.243 32.624C117.859 33.0933 117.374 33.4613 116.787 33.728C116.201 33.9947 115.545 34.128 114.819 34.128C113.945 34.128 113.166 33.9413 112.483 33.568C111.801 33.1947 111.267 32.6613 110.883 31.968C110.499 31.2747 110.307 30.464 110.307 29.536C110.307 28.608 110.494 27.7973 110.867 27.104C111.251 26.4107 111.785 25.8773 112.467 25.504C113.15 25.1307 113.934 24.944 114.819 24.944C115.683 24.944 116.451 25.1253 117.123 25.488C117.795 25.8507 118.318 26.368 118.691 27.04C119.075 27.712 119.267 28.496 119.267 29.392ZM116.467 28.672C116.467 28.2027 116.307 27.8293 115.987 27.552C115.667 27.2747 115.267 27.136 114.787 27.136C114.329 27.136 113.939 27.2693 113.619 27.536C113.31 27.8027 113.118 28.1813 113.043 28.672H116.467ZM126.151 24.976C127.196 24.976 128.028 25.3173 128.647 26C129.276 26.672 129.591 27.6 129.591 28.784V34H126.871V29.152C126.871 28.5547 126.716 28.0907 126.407 27.76C126.097 27.4293 125.681 27.264 125.159 27.264C124.636 27.264 124.22 27.4293 123.911 27.76C123.601 28.0907 123.447 28.5547 123.447 29.152V34H120.711V25.072H123.447V26.256C123.724 25.8613 124.097 25.552 124.567 25.328C125.036 25.0933 125.564 24.976 126.151 24.976Z" fill="white"/>
</g>
<defs>
<filter id="filter0_d_15_1409" x="0" y="0" width="168" height="65" filterUnits="userSpaceOnUse" color-interpolation-filters="sRGB">
<feFlood flood-opacity="0" result="BackgroundImageFix"/>
<feColorMatrix in="SourceAlpha" type="matrix" values="0 0 0 0 0 0 0 0 0 0 0 0 0 0 0 0 0 0 127 0" result="hardAlpha"/>
<feOffset dy="4"/>
<feGaussianBlur stdDeviation="2"/>
<feComposite in2="hardAlpha" operator="out"/>
<feColorMatrix type="matrix" values="0 0 0 0 0 0 0 0 0 0 0 0 0 0 0 0 0 0 0.25 0"/>
<feBlend mode="normal" in2="BackgroundImageFix" result="effect1_dropShadow_15_1409"/>
<feBlend mode="normal" in="SourceGraphic" in2="effect1_dropShadow_15_1409" result="shape"/>
</filter>
</defs>
</svg>
