<svg width="445" height="128" viewBox="0 0 445 128" fill="none" xmlns="http://www.w3.org/2000/svg">
<g filter="url(#filter0_d_28_216)">
<rect x="4" width="436.984" height="120" rx="3" fill="#F4A258"/>
<path d="M64.481 57.2878L63.585 61.4798H67.425V66.4078H62.529L61.473 71.3038H56.353L57.409 66.4078H52.097L51.041 71.3038H45.921L46.977 66.4078H42.241V61.4798H48.033L48.929 57.2878H44.289V52.3598H49.953L50.977 47.6238H56.097L55.073 52.3598H60.385L61.409 47.6238H66.529L65.505 52.3598H69.473V57.2878H64.481ZM59.361 57.2878H54.049L53.153 61.4798H58.465L59.361 57.2878ZM89.3545 62.0878C89.3545 62.5998 89.3225 63.1332 89.2585 63.6878H76.8745C76.9599 64.7972 77.3119 65.6505 77.9305 66.2478C78.5705 66.8238 79.3492 67.1118 80.2665 67.1118C81.6319 67.1118 82.5812 66.5358 83.1145 65.3838H88.9385C88.6399 66.5572 88.0959 67.6132 87.3065 68.5518C86.5385 69.4905 85.5679 70.2265 84.3945 70.7598C83.2212 71.2932 81.9092 71.5598 80.4585 71.5598C78.7092 71.5598 77.1519 71.1865 75.7865 70.4398C74.4212 69.6932 73.3545 68.6265 72.5865 67.2398C71.8185 65.8532 71.4345 64.2318 71.4345 62.3758C71.4345 60.5198 71.8079 58.8985 72.5545 57.5118C73.3225 56.1252 74.3892 55.0585 75.7545 54.3118C77.1199 53.5652 78.6879 53.1918 80.4585 53.1918C82.1865 53.1918 83.7225 53.5545 85.0665 54.2798C86.4105 55.0052 87.4559 56.0398 88.2025 57.3838C88.9705 58.7278 89.3545 60.2958 89.3545 62.0878ZM83.7545 60.6478C83.7545 59.7092 83.4345 58.9625 82.7945 58.4078C82.1545 57.8532 81.3545 57.5758 80.3945 57.5758C79.4772 57.5758 78.6985 57.8425 78.0585 58.3758C77.4399 58.9092 77.0559 59.6665 76.9065 60.6478H83.7545ZM102.193 66.6638V71.3038H99.4093C97.4253 71.3038 95.8786 70.8238 94.7693 69.8638C93.66 68.8825 93.1053 67.2932 93.1053 65.0958V57.9918H90.9293V53.4478H93.1053V49.0958H98.5773V53.4478H102.161V57.9918H98.5773V65.1598C98.5773 65.6932 98.7053 66.0772 98.9613 66.3118C99.2173 66.5465 99.644 66.6638 100.241 66.6638H102.193ZM112.505 71.5598C110.948 71.5598 109.561 71.2932 108.345 70.7598C107.129 70.2265 106.169 69.5012 105.465 68.5838C104.761 67.6452 104.367 66.5998 104.281 65.4478H109.689C109.753 66.0665 110.041 66.5678 110.553 66.9518C111.065 67.3358 111.695 67.5278 112.441 67.5278C113.124 67.5278 113.647 67.3998 114.009 67.1438C114.393 66.8665 114.585 66.5145 114.585 66.0878C114.585 65.5758 114.319 65.2025 113.785 64.9678C113.252 64.7118 112.388 64.4345 111.193 64.1358C109.913 63.8372 108.847 63.5278 107.993 63.2078C107.14 62.8665 106.404 62.3438 105.785 61.6398C105.167 60.9145 104.857 59.9438 104.857 58.7278C104.857 57.7038 105.135 56.7758 105.689 55.9438C106.265 55.0905 107.097 54.4185 108.185 53.9278C109.295 53.4372 110.607 53.1918 112.121 53.1918C114.361 53.1918 116.121 53.7465 117.401 54.8558C118.703 55.9652 119.449 57.4372 119.641 59.2718H114.585C114.5 58.6532 114.223 58.1625 113.753 57.7998C113.305 57.4372 112.708 57.2558 111.961 57.2558C111.321 57.2558 110.831 57.3838 110.489 57.6398C110.148 57.8745 109.977 58.2052 109.977 58.6318C109.977 59.1438 110.244 59.5278 110.777 59.7838C111.332 60.0398 112.185 60.2958 113.337 60.5518C114.66 60.8932 115.737 61.2345 116.569 61.5758C117.401 61.8958 118.127 62.4292 118.745 63.1758C119.385 63.9012 119.716 64.8825 119.737 66.1198C119.737 67.1652 119.439 68.1038 118.841 68.9358C118.265 69.7465 117.423 70.3865 116.313 70.8558C115.225 71.3252 113.956 71.5598 112.505 71.5598ZM140.717 53.4478V71.3038H135.245V68.8718C134.69 69.6612 133.933 70.3012 132.973 70.7918C132.034 71.2612 130.989 71.4958 129.837 71.4958C128.472 71.4958 127.266 71.1972 126.221 70.5998C125.176 69.9812 124.365 69.0958 123.789 67.9438C123.213 66.7918 122.925 65.4372 122.925 63.8798V53.4478H128.365V63.1438C128.365 64.3385 128.674 65.2665 129.293 65.9278C129.912 66.5892 130.744 66.9198 131.789 66.9198C132.856 66.9198 133.698 66.5892 134.317 65.9278C134.936 65.2665 135.245 64.3385 135.245 63.1438V53.4478H140.717ZM155.528 53.2558C157.618 53.2558 159.282 53.9385 160.52 55.3038C161.778 56.6478 162.408 58.5038 162.408 60.8718V71.3038H156.968V61.6078C156.968 60.4132 156.658 59.4852 156.04 58.8238C155.421 58.1625 154.589 57.8318 153.544 57.8318C152.498 57.8318 151.666 58.1625 151.048 58.8238C150.429 59.4852 150.12 60.4132 150.12 61.6078V71.3038H144.648V53.4478H150.12V55.8158C150.674 55.0265 151.421 54.4078 152.36 53.9598C153.298 53.4905 154.354 53.2558 155.528 53.2558ZM165.122 62.3438C165.122 60.5092 165.463 58.8985 166.146 57.5118C166.85 56.1252 167.799 55.0585 168.994 54.3118C170.189 53.5652 171.522 53.1918 172.994 53.1918C174.167 53.1918 175.234 53.4372 176.194 53.9278C177.175 54.4185 177.943 55.0798 178.498 55.9118V47.6238H183.97V71.3038H178.498V68.7438C177.986 69.5972 177.25 70.2798 176.29 70.7918C175.351 71.3038 174.253 71.5598 172.994 71.5598C171.522 71.5598 170.189 71.1865 168.994 70.4398C167.799 69.6718 166.85 68.5945 166.146 67.2078C165.463 65.7998 165.122 64.1785 165.122 62.3438ZM178.498 62.3758C178.498 61.0105 178.114 59.9332 177.346 59.1438C176.599 58.3545 175.682 57.9598 174.594 57.9598C173.506 57.9598 172.578 58.3545 171.81 59.1438C171.063 59.9118 170.69 60.9785 170.69 62.3438C170.69 63.7092 171.063 64.7972 171.81 65.6078C172.578 66.3972 173.506 66.7918 174.594 66.7918C175.682 66.7918 176.599 66.3972 177.346 65.6078C178.114 64.8185 178.498 63.7412 178.498 62.3758ZM204.761 62.0878C204.761 62.5998 204.729 63.1332 204.665 63.6878H192.281C192.366 64.7972 192.718 65.6505 193.337 66.2478C193.977 66.8238 194.755 67.1118 195.673 67.1118C197.038 67.1118 197.987 66.5358 198.521 65.3838H204.345C204.046 66.5572 203.502 67.6132 202.713 68.5518C201.945 69.4905 200.974 70.2265 199.801 70.7598C198.627 71.2932 197.315 71.5598 195.865 71.5598C194.115 71.5598 192.558 71.1865 191.193 70.4398C189.827 69.6932 188.761 68.6265 187.993 67.2398C187.225 65.8532 186.841 64.2318 186.841 62.3758C186.841 60.5198 187.214 58.8985 187.961 57.5118C188.729 56.1252 189.795 55.0585 191.161 54.3118C192.526 53.5652 194.094 53.1918 195.865 53.1918C197.593 53.1918 199.129 53.5545 200.473 54.2798C201.817 55.0052 202.862 56.0398 203.609 57.3838C204.377 58.7278 204.761 60.2958 204.761 62.0878ZM199.161 60.6478C199.161 59.7092 198.841 58.9625 198.201 58.4078C197.561 57.8532 196.761 57.5758 195.801 57.5758C194.883 57.5758 194.105 57.8425 193.465 58.3758C192.846 58.9092 192.462 59.6665 192.313 60.6478H199.161ZM213.12 56.4238C213.76 55.4425 214.56 54.6745 215.52 54.1198C216.48 53.5438 217.546 53.2558 218.72 53.2558V59.0478H217.216C215.85 59.0478 214.826 59.3465 214.144 59.9438C213.461 60.5198 213.12 61.5438 213.12 63.0158V71.3038H207.648V53.4478H213.12V56.4238ZM238.167 62.0878C238.167 62.5998 238.135 63.1332 238.071 63.6878H225.687C225.772 64.7972 226.124 65.6505 226.743 66.2478C227.383 66.8238 228.162 67.1118 229.079 67.1118C230.444 67.1118 231.394 66.5358 231.927 65.3838H237.751C237.452 66.5572 236.908 67.6132 236.119 68.5518C235.351 69.4905 234.38 70.2265 233.207 70.7598C232.034 71.2932 230.722 71.5598 229.271 71.5598C227.522 71.5598 225.964 71.1865 224.599 70.4398C223.234 69.6932 222.167 68.6265 221.399 67.2398C220.631 65.8532 220.247 64.2318 220.247 62.3758C220.247 60.5198 220.62 58.8985 221.367 57.5118C222.135 56.1252 223.202 55.0585 224.567 54.3118C225.932 53.5652 227.5 53.1918 229.271 53.1918C230.999 53.1918 232.535 53.5545 233.879 54.2798C235.223 55.0052 236.268 56.0398 237.015 57.3838C237.783 58.7278 238.167 60.2958 238.167 62.0878ZM232.567 60.6478C232.567 59.7092 232.247 58.9625 231.607 58.4078C230.967 57.8532 230.167 57.5758 229.207 57.5758C228.29 57.5758 227.511 57.8425 226.871 58.3758C226.252 58.9092 225.868 59.6665 225.719 60.6478H232.567ZM239.966 62.3438C239.966 60.5092 240.307 58.8985 240.99 57.5118C241.694 56.1252 242.643 55.0585 243.838 54.3118C245.032 53.5652 246.366 53.1918 247.838 53.1918C249.096 53.1918 250.195 53.4478 251.134 53.9598C252.094 54.4718 252.83 55.1438 253.342 55.9758V53.4478H258.814V71.3038H253.342V68.7758C252.808 69.6078 252.062 70.2798 251.102 70.7918C250.163 71.3038 249.064 71.5598 247.806 71.5598C246.355 71.5598 245.032 71.1865 243.838 70.4398C242.643 69.6718 241.694 68.5945 240.99 67.2078C240.307 65.7998 239.966 64.1785 239.966 62.3438ZM253.342 62.3758C253.342 61.0105 252.958 59.9332 252.19 59.1438C251.443 58.3545 250.526 57.9598 249.438 57.9598C248.35 57.9598 247.422 58.3545 246.654 59.1438C245.907 59.9118 245.534 60.9785 245.534 62.3438C245.534 63.7092 245.907 64.7972 246.654 65.6078C247.422 66.3972 248.35 66.7918 249.438 66.7918C250.526 66.7918 251.443 66.3972 252.19 65.6078C252.958 64.8185 253.342 63.7412 253.342 62.3758ZM268.245 47.6238V71.3038H262.773V47.6238H268.245ZM282.162 66.6638V71.3038H279.378C277.394 71.3038 275.847 70.8238 274.738 69.8638C273.629 68.8825 273.074 67.2932 273.074 65.0958V57.9918H270.898V53.4478H273.074V49.0958H278.546V53.4478H282.13V57.9918H278.546V65.1598C278.546 65.6932 278.674 66.0772 278.93 66.3118C279.186 66.5465 279.613 66.6638 280.21 66.6638H282.162ZM302.042 62.0878C302.042 62.5998 302.01 63.1332 301.946 63.6878H289.562C289.647 64.7972 289.999 65.6505 290.618 66.2478C291.258 66.8238 292.037 67.1118 292.954 67.1118C294.319 67.1118 295.269 66.5358 295.802 65.3838H301.626C301.327 66.5572 300.783 67.6132 299.994 68.5518C299.226 69.4905 298.255 70.2265 297.082 70.7598C295.909 71.2932 294.597 71.5598 293.146 71.5598C291.397 71.5598 289.839 71.1865 288.474 70.4398C287.109 69.6932 286.042 68.6265 285.274 67.2398C284.506 65.8532 284.122 64.2318 284.122 62.3758C284.122 60.5198 284.495 58.8985 285.242 57.5118C286.01 56.1252 287.077 55.0585 288.442 54.3118C289.807 53.5652 291.375 53.1918 293.146 53.1918C294.874 53.1918 296.41 53.5545 297.754 54.2798C299.098 55.0052 300.143 56.0398 300.89 57.3838C301.658 58.7278 302.042 60.2958 302.042 62.0878ZM296.442 60.6478C296.442 59.7092 296.122 58.9625 295.482 58.4078C294.842 57.8532 294.042 57.5758 293.082 57.5758C292.165 57.5758 291.386 57.8425 290.746 58.3758C290.127 58.9092 289.743 59.6665 289.594 60.6478H296.442ZM310.401 56.4238C311.041 55.4425 311.841 54.6745 312.801 54.1198C313.761 53.5438 314.827 53.2558 316.001 53.2558V59.0478H314.497C313.131 59.0478 312.107 59.3465 311.425 59.9438C310.742 60.5198 310.401 61.5438 310.401 63.0158V71.3038H304.929V53.4478H310.401V56.4238ZM329.496 53.2558C331.587 53.2558 333.251 53.9385 334.488 55.3038C335.747 56.6478 336.376 58.5038 336.376 60.8718V71.3038H330.936V61.6078C330.936 60.4132 330.627 59.4852 330.008 58.8238C329.39 58.1625 328.558 57.8318 327.512 57.8318C326.467 57.8318 325.635 58.1625 325.016 58.8238C324.398 59.4852 324.088 60.4132 324.088 61.6078V71.3038H318.616V53.4478H324.088V55.8158C324.643 55.0265 325.39 54.4078 326.328 53.9598C327.267 53.4905 328.323 53.2558 329.496 53.2558ZM339.091 62.3438C339.091 60.5092 339.432 58.8985 340.115 57.5118C340.819 56.1252 341.768 55.0585 342.963 54.3118C344.157 53.5652 345.491 53.1918 346.963 53.1918C348.221 53.1918 349.32 53.4478 350.259 53.9598C351.219 54.4718 351.955 55.1438 352.467 55.9758V53.4478H357.939V71.3038H352.467V68.7758C351.933 69.6078 351.187 70.2798 350.227 70.7918C349.288 71.3038 348.189 71.5598 346.931 71.5598C345.48 71.5598 344.157 71.1865 342.963 70.4398C341.768 69.6718 340.819 68.5945 340.115 67.2078C339.432 65.7998 339.091 64.1785 339.091 62.3438ZM352.467 62.3758C352.467 61.0105 352.083 59.9332 351.315 59.1438C350.568 58.3545 349.651 57.9598 348.563 57.9598C347.475 57.9598 346.547 58.3545 345.779 59.1438C345.032 59.9118 344.659 60.9785 344.659 62.3438C344.659 63.7092 345.032 64.7972 345.779 65.6078C346.547 66.3972 347.475 66.7918 348.563 66.7918C349.651 66.7918 350.568 66.3972 351.315 65.6078C352.083 64.8185 352.467 63.7412 352.467 62.3758ZM371.85 66.6638V71.3038H369.066C367.082 71.3038 365.535 70.8238 364.426 69.8638C363.316 68.8825 362.762 67.2932 362.762 65.0958V57.9918H360.586V53.4478H362.762V49.0958H368.234V53.4478H371.818V57.9918H368.234V65.1598C368.234 65.6932 368.362 66.0772 368.618 66.3118C368.874 66.5465 369.3 66.6638 369.898 66.6638H371.85ZM377.65 51.5918C376.69 51.5918 375.9 51.3145 375.282 50.7598C374.684 50.1838 374.386 49.4798 374.386 48.6478C374.386 47.7945 374.684 47.0905 375.282 46.5358C375.9 45.9598 376.69 45.6718 377.65 45.6718C378.588 45.6718 379.356 45.9598 379.954 46.5358C380.572 47.0905 380.882 47.7945 380.882 48.6478C380.882 49.4798 380.572 50.1838 379.954 50.7598C379.356 51.3145 378.588 51.5918 377.65 51.5918ZM380.37 53.4478V71.3038H374.898V53.4478H380.37ZM392.367 66.1838L396.239 53.4478H402.063L395.727 71.3038H388.975L382.639 53.4478H388.495L392.367 66.1838Z" fill="white"/>
</g>
<defs>
<filter id="filter0_d_28_216" x="0" y="0" width="444.984" height="128" filterUnits="userSpaceOnUse" color-interpolation-filters="sRGB">
<feFlood flood-opacity="0" result="BackgroundImageFix"/>
<feColorMatrix in="SourceAlpha" type="matrix" values="0 0 0 0 0 0 0 0 0 0 0 0 0 0 0 0 0 0 127 0" result="hardAlpha"/>
<feOffset dy="4"/>
<feGaussianBlur stdDeviation="2"/>
<feComposite in2="hardAlpha" operator="out"/>
<feColorMatrix type="matrix" values="0 0 0 0 0 0 0 0 0 0 0 0 0 0 0 0 0 0 0.25 0"/>
<feBlend mode="normal" in2="BackgroundImageFix" result="effect1_dropShadow_28_216"/>
<feBlend mode="normal" in="SourceGraphic" in2="effect1_dropShadow_28_216" result="shape"/>
</filter>
</defs>
</svg>
