<svg width="121" height="30" viewBox="0 0 121 30" fill="none" xmlns="http://www.w3.org/2000/svg">
<rect width="121" height="30" rx="3" fill="#F4A258"/>
<path d="M103.039 26.7601C102.952 26.5642 102.769 26.4364 102.778 26.1808C102.821 22.5348 102.708 18.8632 102.812 15.2341C102.83 14.6378 102.856 14.2374 103.074 13.6667C103.31 13.0533 103.964 12.3122 104.06 11.6733C104.26 10.3273 104.313 8.94727 104.452 7.58426C104.478 7.35425 104.557 7.08165 104.583 6.86016C104.618 6.45126 104.557 6.05939 104.626 5.64197C104.679 5.30122 104.757 4.95194 104.749 4.59415C104.749 4.37267 104.661 4.35563 104.6 4.22785C104.531 4.08303 104.792 3.87857 104.783 3.67412C104.783 3.53782 104.635 3.47819 104.653 3.33337C104.67 3.16299 104.94 3.05225 105.089 3.03521C105.464 2.9841 106.624 2.99262 107.007 3.03521C107.129 3.05225 107.356 3.12892 107.382 3.26522C107.408 3.40152 107.286 3.49523 107.286 3.64005C107.286 3.83598 107.504 4.02339 107.443 4.20229C107.435 4.24488 107.382 4.26192 107.374 4.28748C107.286 4.49193 107.487 5.88901 107.513 6.22125C107.644 7.67796 107.757 9.13468 107.932 10.5914C107.993 11.0599 108.045 11.8096 108.22 12.227C108.411 12.7041 108.752 13.13 108.943 13.6241C109.397 14.8082 109.188 16.3586 109.17 17.6109C109.144 20.1665 109.1 22.7051 109.144 25.2523C109.144 25.789 109.222 26.4108 108.708 26.7516H103.048L103.039 26.7601ZM106.981 3.35893C106.981 3.17151 106.815 3.15448 106.658 3.17151C106.667 3.34189 106.833 3.37596 106.981 3.35893ZM105.411 3.35893C105.42 3.28226 105.411 3.24818 105.333 3.23114C105.15 3.19707 104.967 3.37596 105.211 3.37596C105.281 3.37596 105.342 3.35041 105.411 3.35893ZM105.446 3.58042L105.193 3.54634V3.67412C105.289 3.67412 105.455 3.71672 105.446 3.58042ZM106.885 3.54634H106.667L106.632 3.65709C106.667 3.72524 106.737 3.71672 106.798 3.69968C106.868 3.67412 106.894 3.62301 106.885 3.54634ZM106.728 4.10858H107.016C106.938 4.00636 106.815 3.94673 106.693 3.95524L106.728 4.10858ZM105.376 4.04895C105.315 3.98932 105.019 4.01488 105.054 4.17673C105.106 4.19377 105.446 4.12562 105.376 4.04895ZM105.472 4.33007H105.15C105.132 5.40344 105.019 6.48533 104.923 7.5587C104.871 8.16354 104.81 8.76837 104.766 9.38173C104.714 10.0547 104.583 10.9918 104.635 11.6477C104.653 11.8266 104.679 12.0311 104.906 12.0396C105.315 12.0566 105.193 11.5114 105.211 11.2644C105.211 11.1622 105.263 11.0514 105.272 10.9492C105.385 9.66285 105.298 8.36799 105.333 7.08165C105.35 6.45977 105.429 5.81234 105.464 5.19899C105.481 4.90935 105.464 4.61971 105.464 4.33007H105.472ZM106.667 4.33007C106.667 4.73897 106.676 5.13936 106.702 5.53974C106.789 7.26906 106.972 8.99838 107.025 10.7277C107.033 11.0684 106.929 12.0822 107.025 12.3122C107.051 12.3803 107.129 12.44 107.164 12.5252C107.19 12.5848 107.347 12.9511 107.347 12.9767C107.365 13.0619 107.225 13.343 107.225 13.4708C107.225 13.7008 107.461 14.1778 107.522 14.4419C107.696 15.2086 107.539 15.9753 107.513 16.7505C107.443 18.8035 107.531 20.8992 107.548 22.9522C107.548 23.7956 107.452 24.92 107.548 25.7208C107.565 25.9082 107.653 25.789 107.766 25.7719C107.932 25.7464 108.089 25.7719 108.185 25.5845C108.272 25.4056 108.167 24.92 108.185 24.673C108.246 23.983 108.281 23.2589 108.315 22.5688C108.438 19.9536 108.228 17.2616 108.315 14.6378C108.132 14.0245 107.906 13.3856 107.426 12.9426C107.478 10.3699 107.095 7.79723 106.964 5.23307C106.955 4.99454 107.007 4.62823 106.964 4.41526C106.964 4.38118 106.955 4.35563 106.911 4.33859H106.676L106.667 4.33007ZM103.676 25.9508C103.876 25.8912 103.92 25.9849 104.068 26.0786C104.156 25.9934 104.295 25.8912 104.33 25.7634C104.4 25.5078 104.243 25.2608 104.382 25.0308C104.443 24.9371 104.548 24.903 104.565 24.7752C104.653 24.213 104.417 23.5144 104.696 22.9863V14.1778L104.452 13.5389C104.278 13.4963 103.955 14.1778 103.911 14.3226C103.868 14.4675 103.815 14.6975 103.798 14.8423C103.65 16.5375 103.911 18.4372 103.798 20.158C103.719 21.8362 103.728 23.54 103.702 25.2182C103.702 25.4823 103.781 25.7123 103.667 25.9593L103.676 25.9508Z" fill="black"/>
<path d="M108.955 25.1842C108.885 25.0224 108.737 24.9201 108.737 24.7157C108.772 21.7426 108.676 18.744 108.763 15.7794C108.781 15.2939 108.798 14.9616 108.981 14.5016C109.173 13.999 109.705 13.4027 109.784 12.8745C109.941 11.7756 109.984 10.6426 110.098 9.53515C110.115 9.34774 110.185 9.12625 110.202 8.94736C110.229 8.61512 110.185 8.29141 110.237 7.95066C110.281 7.66954 110.342 7.38841 110.333 7.09878C110.333 6.91988 110.263 6.90284 110.211 6.80062C110.15 6.68135 110.368 6.51098 110.359 6.34912C110.359 6.23838 110.237 6.18726 110.255 6.068C110.272 5.9317 110.49 5.83799 110.612 5.82095C110.917 5.77836 111.859 5.78688 112.182 5.82095C112.287 5.82947 112.47 5.89762 112.487 6.00837C112.505 6.11911 112.409 6.19578 112.409 6.31504C112.409 6.46838 112.583 6.63024 112.54 6.77506C112.531 6.80914 112.487 6.82617 112.479 6.84321C112.409 7.01359 112.574 8.15511 112.592 8.41919C112.697 9.61182 112.793 10.8045 112.932 11.9886C112.976 12.3719 113.028 12.9768 113.168 13.326C113.325 13.7179 113.604 14.0672 113.761 14.4675C114.136 15.4302 113.961 16.6995 113.952 17.7217C113.926 19.8088 113.9 21.8789 113.926 23.966C113.926 24.409 113.987 24.9116 113.569 25.1842H108.947H108.955ZM112.182 6.068C112.182 5.91466 112.051 5.89762 111.92 5.91466C111.929 6.05948 112.06 6.08504 112.182 6.068ZM110.891 6.068C110.891 6.00837 110.891 5.97429 110.822 5.96577C110.673 5.94022 110.525 6.08504 110.726 6.08504C110.778 6.08504 110.839 6.05948 110.891 6.068ZM110.917 6.25541L110.708 6.22986V6.33208C110.787 6.33208 110.917 6.36616 110.917 6.25541ZM112.104 6.22986H111.92L111.894 6.31504C111.92 6.36616 111.981 6.36616 112.034 6.34912C112.086 6.32356 112.112 6.28097 112.104 6.22134V6.22986ZM111.973 6.68135H112.208C112.138 6.59617 112.051 6.54505 111.947 6.55357L111.973 6.68135ZM110.865 6.63876C110.813 6.58765 110.577 6.6132 110.604 6.74098C110.647 6.75802 110.926 6.69839 110.865 6.63876ZM110.944 6.86877H110.682C110.665 7.7462 110.569 8.62364 110.499 9.50108C110.455 9.99517 110.403 10.4893 110.368 10.9919C110.324 11.5371 110.22 12.3038 110.263 12.8405C110.281 12.9938 110.298 13.1556 110.49 13.1642C110.83 13.1812 110.726 12.7297 110.743 12.5338C110.743 12.4486 110.787 12.3634 110.795 12.2782C110.891 11.2304 110.822 10.1741 110.848 9.11773C110.865 8.6066 110.926 8.08696 110.952 7.57583C110.961 7.3373 110.952 7.09878 110.952 6.86877H110.944ZM111.92 6.86877C111.92 7.201 111.929 7.52472 111.947 7.85695C112.016 9.27107 112.165 10.6852 112.208 12.0908C112.208 12.3719 112.13 13.1982 112.208 13.3857C112.226 13.4368 112.295 13.4964 112.322 13.556C112.339 13.6071 112.47 13.9053 112.47 13.9223C112.487 13.9905 112.365 14.2205 112.374 14.3227C112.374 14.5101 112.566 14.902 112.618 15.115C112.766 15.7368 112.627 16.3672 112.609 16.9976C112.548 18.6758 112.627 20.3881 112.636 22.0578C112.636 22.7478 112.557 23.6679 112.636 24.3238C112.653 24.4771 112.723 24.3834 112.81 24.3664C112.949 24.3494 113.072 24.3664 113.15 24.2131C113.229 24.0682 113.133 23.6679 113.15 23.4719C113.194 22.9097 113.229 22.3219 113.255 21.7511C113.351 19.6214 113.185 17.4151 113.255 15.2768C113.106 14.7742 112.923 14.2546 112.531 13.8883C112.574 11.7841 112.261 9.68849 112.156 7.59287C112.147 7.39693 112.191 7.09877 112.156 6.9284C112.156 6.90284 112.147 6.87729 112.112 6.86877H111.92ZM109.479 24.5197C109.644 24.4686 109.679 24.5453 109.801 24.622C109.871 24.5538 109.993 24.4686 110.019 24.3664C110.072 24.1534 109.949 23.9575 110.063 23.7616C110.106 23.6849 110.194 23.6593 110.211 23.5486C110.29 23.0886 110.089 22.5263 110.316 22.0834V14.885L110.115 14.3653C109.976 14.3312 109.705 14.885 109.67 15.0042C109.635 15.1235 109.592 15.3109 109.583 15.4302C109.461 16.8187 109.67 18.3692 109.583 19.7748C109.522 21.1463 109.531 22.5349 109.505 23.9064C109.505 24.1279 109.574 24.3068 109.479 24.5112V24.5197Z" fill="black"/>
<path d="M98.2297 25.1841C98.1599 25.0222 98.0116 24.92 98.0116 24.7155C98.0465 21.7425 97.9506 18.7439 98.0378 15.7793C98.0552 15.2937 98.0727 14.9615 98.2558 14.5015C98.4477 13.9989 98.9797 13.4026 99.0582 12.8744C99.2151 11.7755 99.2587 10.6425 99.3721 9.53503C99.3896 9.34762 99.4593 9.12613 99.4768 8.94723C99.5029 8.615 99.4593 8.29129 99.5117 7.95053C99.5553 7.66941 99.6163 7.38829 99.6076 7.09865C99.6076 6.91976 99.5378 6.90272 99.4855 6.80049C99.4244 6.68123 99.6425 6.51086 99.6337 6.349C99.6337 6.23825 99.5117 6.18714 99.5291 6.06788C99.5465 5.93158 99.7646 5.83787 99.8867 5.82083C100.192 5.77824 101.134 5.78676 101.456 5.82083C101.561 5.82935 101.744 5.8975 101.762 6.00825C101.779 6.11899 101.683 6.19566 101.683 6.31492C101.683 6.46826 101.858 6.63012 101.814 6.77494C101.805 6.80901 101.762 6.82605 101.753 6.84309C101.683 7.01346 101.849 8.15498 101.866 8.41907C101.971 9.6117 102.067 10.8043 102.206 11.9884C102.25 12.3718 102.302 12.9766 102.442 13.3259C102.599 13.7178 102.878 14.067 103.035 14.4674C103.41 15.43 103.236 16.6994 103.227 17.7216C103.201 19.8087 103.175 21.8788 103.201 23.9659C103.201 24.4089 103.262 24.9115 102.843 25.1841H98.2297ZM101.456 6.06788C101.456 5.91454 101.326 5.8975 101.195 5.91454C101.204 6.05936 101.334 6.08491 101.456 6.06788ZM100.166 6.06788C100.166 6.00825 100.166 5.97417 100.096 5.96565C99.9477 5.94009 99.7994 6.08491 100 6.08491C100.052 6.08491 100.113 6.05936 100.166 6.06788ZM100.192 6.25529L99.9826 6.22973V6.33196C100.061 6.33196 100.192 6.36604 100.192 6.25529ZM101.378 6.22973H101.195L101.169 6.31492C101.195 6.36604 101.256 6.36604 101.308 6.349C101.361 6.32344 101.387 6.28085 101.378 6.22122V6.22973ZM101.247 6.68123H101.483C101.413 6.59604 101.326 6.54493 101.221 6.55345L101.247 6.68123ZM100.14 6.63864C100.087 6.58752 99.8518 6.61308 99.8779 6.74086C99.9215 6.7579 100.201 6.69827 100.14 6.63864ZM100.218 6.86865H99.9564C99.939 7.74608 99.8431 8.62352 99.7733 9.50096C99.7297 9.99505 99.6774 10.4891 99.6425 10.9917C99.5989 11.537 99.4942 12.3036 99.5378 12.8403C99.5553 12.9937 99.5727 13.1555 99.7646 13.164C100.105 13.1811 100 12.7296 100.017 12.5337C100.017 12.4485 100.061 12.3633 100.07 12.2781C100.166 11.2303 100.096 10.1739 100.122 9.11761C100.14 8.60648 100.201 8.08683 100.227 7.57571C100.236 7.33718 100.227 7.09865 100.227 6.86865H100.218ZM101.195 6.86865C101.195 7.20088 101.204 7.52459 101.221 7.85683C101.291 9.27095 101.439 10.6851 101.483 12.0907C101.483 12.3718 101.404 13.1981 101.483 13.3855C101.5 13.4366 101.57 13.4963 101.596 13.5559C101.613 13.607 101.744 13.9052 101.744 13.9222C101.762 13.9904 101.64 14.2204 101.648 14.3226C101.648 14.51 101.84 14.9019 101.893 15.1149C102.041 15.7367 101.901 16.3671 101.884 16.9975C101.823 18.6757 101.901 20.388 101.91 22.0577C101.91 22.7477 101.831 23.6677 101.91 24.3237C101.927 24.477 101.997 24.3833 102.084 24.3663C102.224 24.3492 102.346 24.3663 102.424 24.2129C102.503 24.0681 102.407 23.6677 102.424 23.4718C102.468 22.9096 102.503 22.3218 102.529 21.751C102.625 19.6213 102.459 17.4149 102.529 15.2767C102.381 14.7741 102.198 14.2545 101.805 13.8881C101.849 11.784 101.535 9.68837 101.43 7.59274C101.422 7.39681 101.465 7.09865 101.43 6.92828C101.43 6.90272 101.422 6.87716 101.387 6.86865H101.195ZM98.7529 24.5196C98.9186 24.4685 98.9535 24.5452 99.0756 24.6218C99.1454 24.5537 99.2675 24.4685 99.2936 24.3663C99.346 24.1533 99.2239 23.9574 99.3372 23.7614C99.3808 23.6848 99.468 23.6592 99.4855 23.5485C99.564 23.0885 99.3634 22.5262 99.5901 22.0832V14.8848L99.3896 14.3652C99.25 14.3311 98.9797 14.8848 98.9448 15.0041C98.9099 15.1234 98.8663 15.3108 98.8576 15.43C98.7355 16.8186 98.9448 18.369 98.8576 19.7746C98.7965 21.1462 98.8052 22.5347 98.7791 23.9063C98.7791 24.1278 98.8489 24.3066 98.7529 24.5111V24.5196Z" fill="black"/>
<path d="M14.2738 17.112H17.2018V18H13.1818V9.636H14.2738V17.112ZM30.0975 14.436C30.0975 14.668 30.0815 14.884 30.0495 15.084H24.6375C24.6775 15.532 24.8055 15.916 25.0215 16.236C25.2375 16.548 25.5055 16.784 25.8255 16.944C26.1455 17.104 26.4815 17.184 26.8335 17.184C27.3455 17.184 27.7695 17.076 28.1055 16.86C28.4415 16.636 28.6655 16.34 28.7775 15.972H29.9535C29.7775 16.604 29.4335 17.12 28.9215 17.52C28.4095 17.912 27.7735 18.108 27.0135 18.108C26.4775 18.108 25.9815 17.984 25.5255 17.736C25.0775 17.488 24.7375 17.152 24.5055 16.728V18H23.5575V16.74C23.3175 17.148 22.9815 17.48 22.5495 17.736C22.1175 17.984 21.6255 18.108 21.0735 18.108C20.4895 18.108 19.9575 17.964 19.4775 17.676C19.0055 17.388 18.6335 16.984 18.3615 16.464C18.0895 15.944 17.9535 15.352 17.9535 14.688C17.9535 14.016 18.0895 13.428 18.3615 12.924C18.6415 12.412 19.0215 12.016 19.5015 11.736C19.9815 11.456 20.5255 11.316 21.1335 11.316C21.6695 11.316 22.1455 11.432 22.5615 11.664C22.9855 11.888 23.3295 12.212 23.5935 12.636V11.424H24.5055V12.636C25.0735 11.756 25.9095 11.316 27.0135 11.316C27.6215 11.316 28.1575 11.456 28.6215 11.736C29.0935 12.008 29.4575 12.384 29.7135 12.864C29.9695 13.336 30.0975 13.86 30.0975 14.436ZM28.9695 14.292C28.9695 13.868 28.8735 13.504 28.6815 13.2C28.4975 12.888 28.2415 12.652 27.9135 12.492C27.5935 12.324 27.2375 12.24 26.8455 12.24C26.2695 12.24 25.7695 12.424 25.3455 12.792C24.9295 13.16 24.6935 13.66 24.6375 14.292H28.9695ZM21.2895 17.148C21.6975 17.148 22.0695 17.052 22.4055 16.86C22.7495 16.66 23.0215 16.376 23.2215 16.008C23.4215 15.632 23.5215 15.196 23.5215 14.7C23.5215 14.204 23.4215 13.772 23.2215 13.404C23.0215 13.036 22.7495 12.756 22.4055 12.564C22.0695 12.364 21.6975 12.264 21.2895 12.264C20.8815 12.264 20.5095 12.36 20.1735 12.552C19.8375 12.744 19.5695 13.024 19.3695 13.392C19.1695 13.76 19.0695 14.192 19.0695 14.688C19.0695 15.192 19.1695 15.632 19.3695 16.008C19.5695 16.376 19.8375 16.66 20.1735 16.86C20.5095 17.052 20.8815 17.148 21.2895 17.148ZM34.2337 11.316C34.8017 11.316 35.2977 11.44 35.7217 11.688C36.1537 11.936 36.4737 12.248 36.6817 12.624V11.424H37.7857V18.144C37.7857 18.744 37.6577 19.276 37.4017 19.74C37.1457 20.212 36.7777 20.58 36.2977 20.844C35.8257 21.108 35.2737 21.24 34.6417 21.24C33.7777 21.24 33.0577 21.036 32.4817 20.628C31.9057 20.22 31.5657 19.664 31.4617 18.96H32.5417C32.6617 19.36 32.9097 19.68 33.2857 19.92C33.6617 20.168 34.1137 20.292 34.6417 20.292C35.2417 20.292 35.7297 20.104 36.1057 19.728C36.4897 19.352 36.6817 18.824 36.6817 18.144V16.764C36.4657 17.148 36.1457 17.468 35.7217 17.724C35.2977 17.98 34.8017 18.108 34.2337 18.108C33.6497 18.108 33.1177 17.964 32.6377 17.676C32.1657 17.388 31.7937 16.984 31.5217 16.464C31.2497 15.944 31.1137 15.352 31.1137 14.688C31.1137 14.016 31.2497 13.428 31.5217 12.924C31.7937 12.412 32.1657 12.016 32.6377 11.736C33.1177 11.456 33.6497 11.316 34.2337 11.316ZM36.6817 14.7C36.6817 14.204 36.5817 13.772 36.3817 13.404C36.1817 13.036 35.9097 12.756 35.5657 12.564C35.2297 12.364 34.8577 12.264 34.4497 12.264C34.0417 12.264 33.6697 12.36 33.3337 12.552C32.9977 12.744 32.7297 13.024 32.5297 13.392C32.3297 13.76 32.2297 14.192 32.2297 14.688C32.2297 15.192 32.3297 15.632 32.5297 16.008C32.7297 16.376 32.9977 16.66 33.3337 16.86C33.6697 17.052 34.0417 17.148 34.4497 17.148C34.8577 17.148 35.2297 17.052 35.5657 16.86C35.9097 16.66 36.1817 16.376 36.3817 16.008C36.5817 15.632 36.6817 15.196 36.6817 14.7ZM43.3943 10.356C43.1863 10.356 43.0103 10.284 42.8663 10.14C42.7223 9.996 42.6503 9.82 42.6503 9.612C42.6503 9.404 42.7223 9.228 42.8663 9.084C43.0103 8.94 43.1863 8.868 43.3943 8.868C43.5943 8.868 43.7623 8.94 43.8983 9.084C44.0423 9.228 44.1143 9.404 44.1143 9.612C44.1143 9.82 44.0423 9.996 43.8983 10.14C43.7623 10.284 43.5943 10.356 43.3943 10.356ZM43.9223 11.424V18H42.8303V11.424H43.9223ZM54.4186 12.384C54.6746 12.68 54.8706 13.024 55.0066 13.416C55.1506 13.808 55.2226 14.236 55.2226 14.7C55.2226 15.38 55.0706 15.98 54.7666 16.5C54.4706 17.012 54.0666 17.408 53.5546 17.688C53.0426 17.968 52.4746 18.108 51.8506 18.108C51.0746 18.108 50.3906 17.888 49.7986 17.448L49.2946 18H48.5146L49.3786 17.052C49.1226 16.748 48.9226 16.4 48.7786 16.008C48.6426 15.608 48.5746 15.172 48.5746 14.7C48.5746 14.028 48.7186 13.436 49.0066 12.924C49.3026 12.404 49.7026 12.008 50.2066 11.736C50.7106 11.456 51.2746 11.316 51.8986 11.316C52.7066 11.316 53.4066 11.544 53.9986 12L54.5146 11.424H55.2946L54.4186 12.384ZM49.6906 14.7C49.6906 15.316 49.8306 15.836 50.1106 16.26L53.3026 12.756C52.9186 12.428 52.4466 12.264 51.8866 12.264C51.4866 12.264 51.1186 12.356 50.7826 12.54C50.4546 12.716 50.1906 12.988 49.9906 13.356C49.7906 13.724 49.6906 14.172 49.6906 14.7ZM54.1066 14.7C54.1066 14.084 53.9666 13.58 53.6866 13.188L50.4946 16.692C50.8706 16.996 51.3226 17.148 51.8506 17.148C52.2426 17.148 52.6106 17.056 52.9546 16.872C53.2986 16.688 53.5746 16.412 53.7826 16.044C53.9986 15.676 54.1066 15.228 54.1066 14.7ZM57.7504 9.12V18H56.6584V9.12H57.7504ZM63.2835 18L60.7035 15.096V18H59.6115V9.12H60.7035V14.34L63.2355 11.424H64.7595L61.6635 14.7L64.7715 18H63.2835ZM71.6193 11.424V18H70.5273V17.028C70.3193 17.364 70.0273 17.628 69.6513 17.82C69.2833 18.004 68.8753 18.096 68.4273 18.096C67.9153 18.096 67.4553 17.992 67.0473 17.784C66.6393 17.568 66.3153 17.248 66.0753 16.824C65.8433 16.4 65.7273 15.884 65.7273 15.276V11.424H66.8073V15.132C66.8073 15.78 66.9713 16.28 67.2993 16.632C67.6273 16.976 68.0753 17.148 68.6433 17.148C69.2273 17.148 69.6873 16.968 70.0233 16.608C70.3593 16.248 70.5273 15.724 70.5273 15.036V11.424H71.6193ZM74.5551 12.492C74.7471 12.116 75.0191 11.824 75.3711 11.616C75.7311 11.408 76.1671 11.304 76.6791 11.304V12.432H76.3911C75.1671 12.432 74.5551 13.096 74.5551 14.424V18H73.4631V11.424H74.5551V12.492ZM80.3876 16.992L82.4276 11.424H83.5916L81.0116 18H79.7396L77.1596 11.424H78.3356L80.3876 16.992Z" fill="#FCF3E3"/>
</svg>
