<svg width="168" height="65" viewBox="0 0 168 65" fill="none" xmlns="http://www.w3.org/2000/svg">
<g filter="url(#filter0_d_32_343)">
<rect x="4" width="160" height="57" rx="3" fill="#F4A258"/>
<path d="M53.4895 26.384C53.4895 27.0347 53.3402 27.632 53.0415 28.176C52.7428 28.7093 52.2842 29.1413 51.6655 29.472C51.0468 29.8027 50.2788 29.968 49.3615 29.968H47.6655V34H44.9295V22.768H49.3615C50.2575 22.768 51.0148 22.9227 51.6335 23.232C52.2522 23.5413 52.7162 23.968 53.0255 24.512C53.3348 25.056 53.4895 25.68 53.4895 26.384ZM49.1535 27.792C49.6762 27.792 50.0655 27.6693 50.3215 27.424C50.5775 27.1787 50.7055 26.832 50.7055 26.384C50.7055 25.936 50.5775 25.5893 50.3215 25.344C50.0655 25.0987 49.6762 24.976 49.1535 24.976H47.6655V27.792H49.1535ZM57.6499 26.56C57.9699 26.0693 58.3699 25.6853 58.8499 25.408C59.3299 25.12 59.8632 24.976 60.4499 24.976V27.872H59.6979C59.0152 27.872 58.5032 28.0213 58.1619 28.32C57.8205 28.608 57.6499 29.12 57.6499 29.856V34H54.9139V25.072H57.6499V26.56ZM69.3576 26.448C70.0723 27.28 70.4296 28.3093 70.4296 29.536C70.4296 30.4533 70.2216 31.264 69.8056 31.968C69.4003 32.6613 68.8403 33.1947 68.1256 33.568C67.4216 33.9413 66.6323 34.128 65.7576 34.128C64.723 34.128 63.8163 33.872 63.0376 33.36L62.4456 34H60.9736L62.2216 32.64C61.507 31.808 61.1496 30.7733 61.1496 29.536C61.1496 28.6187 61.3523 27.8133 61.7576 27.12C62.163 26.416 62.7176 25.8773 63.4216 25.504C64.1256 25.1307 64.915 24.944 65.7896 24.944C66.8456 24.944 67.763 25.2053 68.5416 25.728L69.1496 25.072H70.6216L69.3576 26.448ZM63.9336 29.536C63.9336 29.9307 63.9923 30.2773 64.1096 30.576L66.8136 27.632C66.5256 27.4187 66.1843 27.312 65.7896 27.312C65.2563 27.312 64.8136 27.504 64.4616 27.888C64.1096 28.2613 63.9336 28.8107 63.9336 29.536ZM67.6456 29.536C67.6456 29.152 67.587 28.8107 67.4696 28.512L64.7656 31.472C65.0536 31.664 65.3843 31.76 65.7576 31.76C66.2803 31.76 66.723 31.568 67.0856 31.184C67.459 30.8 67.6456 30.2507 67.6456 29.536ZM75.8361 31.44L77.7721 25.072H80.6841L77.5161 34H74.1401L70.9721 25.072H73.9001L75.8361 31.44ZM90.6664 24.976C91.7117 24.976 92.5437 25.3173 93.1624 26C93.7917 26.672 94.1064 27.6 94.1064 28.784V34H91.3864V29.152C91.3864 28.5547 91.2317 28.0907 90.9224 27.76C90.613 27.4293 90.197 27.264 89.6744 27.264C89.1517 27.264 88.7357 27.4293 88.4264 27.76C88.117 28.0907 87.9624 28.5547 87.9624 29.152V34H85.2264V25.072H87.9624V26.256C88.2397 25.8613 88.613 25.552 89.0824 25.328C89.5517 25.0933 90.0797 24.976 90.6664 24.976ZM104.824 25.072V34H102.088V32.784C101.81 33.1787 101.432 33.4987 100.952 33.744C100.482 33.9787 99.9596 34.096 99.3836 34.096C98.701 34.096 98.0983 33.9467 97.5756 33.648C97.053 33.3387 96.6476 32.896 96.3596 32.32C96.0716 31.744 95.9276 31.0667 95.9276 30.288V25.072H98.6476V29.92C98.6476 30.5173 98.8023 30.9813 99.1116 31.312C99.421 31.6427 99.837 31.808 100.36 31.808C100.893 31.808 101.314 31.6427 101.624 31.312C101.933 30.9813 102.088 30.5173 102.088 29.92V25.072H104.824ZM110.389 22.368L110.069 30.032H107.749L107.429 22.368H110.389ZM108.949 34.128C108.469 34.128 108.074 33.9893 107.765 33.712C107.466 33.424 107.317 33.072 107.317 32.656C107.317 32.2293 107.466 31.872 107.765 31.584C108.074 31.296 108.469 31.152 108.949 31.152C109.418 31.152 109.802 31.296 110.101 31.584C110.41 31.872 110.565 32.2293 110.565 32.656C110.565 33.072 110.41 33.424 110.101 33.712C109.802 33.9893 109.418 34.128 108.949 34.128Z" fill="white"/>
</g>
<defs>
<filter id="filter0_d_32_343" x="0" y="0" width="168" height="65" filterUnits="userSpaceOnUse" color-interpolation-filters="sRGB">
<feFlood flood-opacity="0" result="BackgroundImageFix"/>
<feColorMatrix in="SourceAlpha" type="matrix" values="0 0 0 0 0 0 0 0 0 0 0 0 0 0 0 0 0 0 127 0" result="hardAlpha"/>
<feOffset dy="4"/>
<feGaussianBlur stdDeviation="2"/>
<feComposite in2="hardAlpha" operator="out"/>
<feColorMatrix type="matrix" values="0 0 0 0 0 0 0 0 0 0 0 0 0 0 0 0 0 0 0.25 0"/>
<feBlend mode="normal" in2="BackgroundImageFix" result="effect1_dropShadow_32_343"/>
<feBlend mode="normal" in="SourceGraphic" in2="effect1_dropShadow_32_343" result="shape"/>
</filter>
</defs>
</svg>
