<svg width="90" height="30" viewBox="0 0 90 30" fill="none" xmlns="http://www.w3.org/2000/svg">
<rect width="90" height="30" rx="3" fill="#013D5A"/>
<path d="M17.7504 17.112H20.6784V18H16.6584V9.636H17.7504V17.112ZM33.5741 14.436C33.5741 14.668 33.5581 14.884 33.5261 15.084H28.1141C28.1541 15.532 28.2821 15.916 28.4981 16.236C28.7141 16.548 28.9821 16.784 29.3021 16.944C29.6221 17.104 29.9581 17.184 30.3101 17.184C30.8221 17.184 31.2461 17.076 31.5821 16.86C31.9181 16.636 32.1421 16.34 32.2541 15.972H33.4301C33.2541 16.604 32.9101 17.12 32.3981 17.52C31.8861 17.912 31.2501 18.108 30.4901 18.108C29.9541 18.108 29.4581 17.984 29.0021 17.736C28.5541 17.488 28.2141 17.152 27.9821 16.728V18H27.0341V16.74C26.7941 17.148 26.4581 17.48 26.0261 17.736C25.5941 17.984 25.1021 18.108 24.5501 18.108C23.9661 18.108 23.4341 17.964 22.9541 17.676C22.4821 17.388 22.1101 16.984 21.8381 16.464C21.5661 15.944 21.4301 15.352 21.4301 14.688C21.4301 14.016 21.5661 13.428 21.8381 12.924C22.1181 12.412 22.4981 12.016 22.9781 11.736C23.4581 11.456 24.0021 11.316 24.6101 11.316C25.1461 11.316 25.6221 11.432 26.0381 11.664C26.4621 11.888 26.8061 12.212 27.0701 12.636V11.424H27.9821V12.636C28.5501 11.756 29.3861 11.316 30.4901 11.316C31.0981 11.316 31.6341 11.456 32.0981 11.736C32.5701 12.008 32.9341 12.384 33.1901 12.864C33.4461 13.336 33.5741 13.86 33.5741 14.436ZM32.4461 14.292C32.4461 13.868 32.3501 13.504 32.1581 13.2C31.9741 12.888 31.7181 12.652 31.3901 12.492C31.0701 12.324 30.7141 12.24 30.3221 12.24C29.7461 12.24 29.2461 12.424 28.8221 12.792C28.4061 13.16 28.1701 13.66 28.1141 14.292H32.4461ZM24.7661 17.148C25.1741 17.148 25.5461 17.052 25.8821 16.86C26.2261 16.66 26.4981 16.376 26.6981 16.008C26.8981 15.632 26.9981 15.196 26.9981 14.7C26.9981 14.204 26.8981 13.772 26.6981 13.404C26.4981 13.036 26.2261 12.756 25.8821 12.564C25.5461 12.364 25.1741 12.264 24.7661 12.264C24.3581 12.264 23.9861 12.36 23.6501 12.552C23.3141 12.744 23.0461 13.024 22.8461 13.392C22.6461 13.76 22.5461 14.192 22.5461 14.688C22.5461 15.192 22.6461 15.632 22.8461 16.008C23.0461 16.376 23.3141 16.66 23.6501 16.86C23.9861 17.052 24.3581 17.148 24.7661 17.148ZM37.3262 18.108C36.8222 18.108 36.3702 18.024 35.9702 17.856C35.5702 17.68 35.2542 17.44 35.0222 17.136C34.7902 16.824 34.6622 16.468 34.6382 16.068H35.7662C35.7982 16.396 35.9502 16.664 36.2222 16.872C36.5022 17.08 36.8662 17.184 37.3142 17.184C37.7302 17.184 38.0582 17.092 38.2982 16.908C38.5382 16.724 38.6582 16.492 38.6582 16.212C38.6582 15.924 38.5302 15.712 38.2742 15.576C38.0182 15.432 37.6222 15.292 37.0862 15.156C36.5982 15.028 36.1982 14.9 35.8862 14.772C35.5822 14.636 35.3182 14.44 35.0942 14.184C34.8782 13.92 34.7702 13.576 34.7702 13.152C34.7702 12.816 34.8702 12.508 35.0702 12.228C35.2702 11.948 35.5542 11.728 35.9222 11.568C36.2902 11.4 36.7102 11.316 37.1822 11.316C37.9102 11.316 38.4982 11.5 38.9462 11.868C39.3942 12.236 39.6342 12.74 39.6662 13.38H38.5742C38.5502 13.036 38.4102 12.76 38.1542 12.552C37.9062 12.344 37.5702 12.24 37.1462 12.24C36.7542 12.24 36.4422 12.324 36.2102 12.492C35.9782 12.66 35.8622 12.88 35.8622 13.152C35.8622 13.368 35.9302 13.548 36.0662 13.692C36.2102 13.828 36.3862 13.94 36.5942 14.028C36.8102 14.108 37.1062 14.2 37.4822 14.304C37.9542 14.432 38.3382 14.56 38.6342 14.688C38.9302 14.808 39.1822 14.992 39.3902 15.24C39.6062 15.488 39.7182 15.812 39.7262 16.212C39.7262 16.572 39.6262 16.896 39.4262 17.184C39.2262 17.472 38.9422 17.7 38.5742 17.868C38.2142 18.028 37.7982 18.108 37.3262 18.108ZM52.375 11.304C52.887 11.304 53.343 11.412 53.743 11.628C54.143 11.836 54.459 12.152 54.691 12.576C54.923 13 55.039 13.516 55.039 14.124V18H53.959V14.28C53.959 13.624 53.795 13.124 53.467 12.78C53.147 12.428 52.711 12.252 52.159 12.252C51.591 12.252 51.139 12.436 50.803 12.804C50.467 13.164 50.299 13.688 50.299 14.376V18H49.219V14.28C49.219 13.624 49.055 13.124 48.727 12.78C48.407 12.428 47.971 12.252 47.419 12.252C46.851 12.252 46.399 12.436 46.063 12.804C45.727 13.164 45.559 13.688 45.559 14.376V18H44.467V11.424H45.559V12.372C45.775 12.028 46.063 11.764 46.423 11.58C46.791 11.396 47.195 11.304 47.635 11.304C48.187 11.304 48.675 11.428 49.099 11.676C49.523 11.924 49.839 12.288 50.047 12.768C50.231 12.304 50.535 11.944 50.959 11.688C51.383 11.432 51.855 11.304 52.375 11.304ZM62.8303 14.46C62.8303 14.668 62.8183 14.888 62.7943 15.12H57.5383C57.5783 15.768 57.7983 16.276 58.1983 16.644C58.6063 17.004 59.0983 17.184 59.6743 17.184C60.1463 17.184 60.5383 17.076 60.8503 16.86C61.1703 16.636 61.3943 16.34 61.5223 15.972H62.6983C62.5223 16.604 62.1703 17.12 61.6423 17.52C61.1143 17.912 60.4583 18.108 59.6743 18.108C59.0503 18.108 58.4903 17.968 57.9943 17.688C57.5063 17.408 57.1223 17.012 56.8423 16.5C56.5623 15.98 56.4223 15.38 56.4223 14.7C56.4223 14.02 56.5583 13.424 56.8303 12.912C57.1023 12.4 57.4823 12.008 57.9703 11.736C58.4663 11.456 59.0343 11.316 59.6743 11.316C60.2983 11.316 60.8503 11.452 61.3303 11.724C61.8103 11.996 62.1783 12.372 62.4343 12.852C62.6983 13.324 62.8303 13.86 62.8303 14.46ZM61.7023 14.232C61.7023 13.816 61.6103 13.46 61.4263 13.164C61.2423 12.86 60.9903 12.632 60.6703 12.48C60.3583 12.32 60.0103 12.24 59.6263 12.24C59.0743 12.24 58.6023 12.416 58.2103 12.768C57.8263 13.12 57.6063 13.608 57.5503 14.232H61.7023ZM65.3637 12.492C65.5557 12.116 65.8277 11.824 66.1797 11.616C66.5397 11.408 66.9757 11.304 67.4877 11.304V12.432H67.1997C65.9757 12.432 65.3637 13.096 65.3637 14.424V18H64.2717V11.424H65.3637V12.492ZM74.7482 14.46C74.7482 14.668 74.7362 14.888 74.7122 15.12H69.4562C69.4962 15.768 69.7162 16.276 70.1162 16.644C70.5242 17.004 71.0162 17.184 71.5922 17.184C72.0642 17.184 72.4562 17.076 72.7682 16.86C73.0882 16.636 73.3122 16.34 73.4402 15.972H74.6162C74.4402 16.604 74.0882 17.12 73.5602 17.52C73.0322 17.912 72.3762 18.108 71.5922 18.108C70.9682 18.108 70.4082 17.968 69.9122 17.688C69.4242 17.408 69.0402 17.012 68.7602 16.5C68.4802 15.98 68.3402 15.38 68.3402 14.7C68.3402 14.02 68.4762 13.424 68.7482 12.912C69.0202 12.4 69.4002 12.008 69.8882 11.736C70.3842 11.456 70.9522 11.316 71.5922 11.316C72.2162 11.316 72.7682 11.452 73.2482 11.724C73.7282 11.996 74.0962 12.372 74.3522 12.852C74.6162 13.324 74.7482 13.86 74.7482 14.46ZM73.6202 14.232C73.6202 13.816 73.5282 13.46 73.3442 13.164C73.1602 12.86 72.9082 12.632 72.5882 12.48C72.2762 12.32 71.9282 12.24 71.5442 12.24C70.9922 12.24 70.5202 12.416 70.1282 12.768C69.7442 13.12 69.5242 13.608 69.4682 14.232H73.6202Z" fill="#FCF3E3"/>
</svg>
