<svg width="314" height="56" viewBox="0 0 314 56" fill="none" xmlns="http://www.w3.org/2000/svg">
<path d="M289.209 38.6458L289 38.8542L288.771 38.6458C278.875 29.6667 272.334 23.7292 272.334 17.7083C272.334 13.5417 275.459 10.4167 279.625 10.4167C282.834 10.4167 285.959 12.5 287.063 15.3333H290.938C292.042 12.5 295.167 10.4167 298.375 10.4167C302.542 10.4167 305.667 13.5417 305.667 17.7083C305.667 23.7292 299.125 29.6667 289.209 38.6458ZM298.375 6.25C294.75 6.25 291.271 7.9375 289 10.5833C286.729 7.9375 283.25 6.25 279.625 6.25C273.209 6.25 268.167 11.2708 268.167 17.7083C268.167 25.5625 275.25 32 285.979 41.7292L289 44.4792L292.021 41.7292C302.75 32 309.834 25.5625 309.834 17.7083C309.834 11.2708 304.792 6.25 298.375 6.25Z" fill="black"/>
<path d="M223.209 38.6458L223 38.8542L222.771 38.6458C212.875 29.6667 206.334 23.7292 206.334 17.7083C206.334 13.5417 209.459 10.4167 213.625 10.4167C216.834 10.4167 219.959 12.5 221.063 15.3333H224.938C226.042 12.5 229.167 10.4167 232.375 10.4167C236.542 10.4167 239.667 13.5417 239.667 17.7083C239.667 23.7292 233.125 29.6667 223.209 38.6458ZM232.375 6.25C228.75 6.25 225.271 7.9375 223 10.5833C220.729 7.9375 217.25 6.25 213.625 6.25C207.209 6.25 202.167 11.2708 202.167 17.7083C202.167 25.5625 209.25 32 219.979 41.7292L223 44.4792L226.021 41.7292C236.75 32 243.834 25.5625 243.834 17.7083C243.834 11.2708 238.792 6.25 232.375 6.25Z" fill="black"/>
<path d="M24.8333 44.2292L21.8125 41.4792C11.0833 31.75 4 25.3125 4 17.4583C4 11.0208 9.04167 6 15.4583 6C19.0833 6 22.5625 7.6875 24.8333 10.3333C27.1042 7.6875 30.5833 6 34.2083 6C40.625 6 45.6667 11.0208 45.6667 17.4583C45.6667 25.3125 38.5833 31.75 27.8542 41.4792L24.8333 44.2292Z" fill="black"/>
<path d="M92.8333 44.2292L89.8125 41.4792C79.0833 31.75 72 25.3125 72 17.4583C72 11.0208 77.0417 6 83.4583 6C87.0833 6 90.5625 7.6875 92.8333 10.3333C95.1042 7.6875 98.5833 6 102.208 6C108.625 6 113.667 11.0208 113.667 17.4583C113.667 25.3125 106.583 31.75 95.8542 41.4792L92.8333 44.2292Z" fill="black"/>
<path d="M156.833 44.2292L153.813 41.4792C143.083 31.75 136 25.3125 136 17.4583C136 11.0208 141.042 6 147.458 6C151.083 6 154.563 7.6875 156.833 10.3333C159.104 7.6875 162.583 6 166.208 6C172.625 6 177.667 11.0208 177.667 17.4583C177.667 25.3125 170.583 31.75 159.854 41.4792L156.833 44.2292Z" fill="black"/>
</svg>
