<svg width="195" height="68" viewBox="0 0 195 68" fill="none" xmlns="http://www.w3.org/2000/svg">
<g filter="url(#filter0_d_32_316)">
<rect x="4" y="3" width="187" height="57" rx="3" fill="#311E11"/>
</g>
<path d="M29.0583 44L18.2983 31.56V44H13.7383V16.2H18.2983V28.88L29.0983 16.2H34.8183L22.7383 30.12L35.0183 44H29.0583ZM48.6108 44.36C46.5308 44.36 44.6508 43.8933 42.9708 42.96C41.2908 42 39.9708 40.6667 39.0108 38.96C38.0508 37.2267 37.5708 35.2267 37.5708 32.96C37.5708 30.72 38.0641 28.7333 39.0508 27C40.0374 25.2667 41.3841 23.9333 43.0908 23C44.7974 22.0667 46.7041 21.6 48.8108 21.6C50.9174 21.6 52.8241 22.0667 54.5308 23C56.2374 23.9333 57.5841 25.2667 58.5708 27C59.5574 28.7333 60.0508 30.72 60.0508 32.96C60.0508 35.2 59.5441 37.1867 58.5308 38.92C57.5174 40.6533 56.1308 42 54.3708 42.96C52.6374 43.8933 50.7174 44.36 48.6108 44.36ZM48.6108 40.4C49.7841 40.4 50.8774 40.12 51.8908 39.56C52.9308 39 53.7708 38.16 54.4108 37.04C55.0508 35.92 55.3708 34.56 55.3708 32.96C55.3708 31.36 55.0641 30.0133 54.4508 28.92C53.8374 27.8 53.0241 26.96 52.0108 26.4C50.9974 25.84 49.9041 25.56 48.7308 25.56C47.5574 25.56 46.4641 25.84 45.4508 26.4C44.4641 26.96 43.6774 27.8 43.0908 28.92C42.5041 30.0133 42.2108 31.36 42.2108 32.96C42.2108 35.3333 42.8108 37.1733 44.0108 38.48C45.2374 39.76 46.7708 40.4 48.6108 40.4ZM91.2386 21.6C92.9719 21.6 94.5186 21.96 95.8786 22.68C97.2653 23.4 98.3453 24.4667 99.1186 25.88C99.9186 27.2933 100.319 29 100.319 31V44H95.7986V31.68C95.7986 29.7067 95.3053 28.2 94.3186 27.16C93.3319 26.0933 91.9853 25.56 90.2786 25.56C88.5719 25.56 87.2119 26.0933 86.1986 27.16C85.2119 28.2 84.7186 29.7067 84.7186 31.68V44H80.1986V31.68C80.1986 29.7067 79.7053 28.2 78.7186 27.16C77.7319 26.0933 76.3853 25.56 74.6786 25.56C72.9719 25.56 71.6119 26.0933 70.5986 27.16C69.6119 28.2 69.1186 29.7067 69.1186 31.68V44H64.5586V21.96H69.1186V24.48C69.8653 23.5733 70.8119 22.8667 71.9586 22.36C73.1053 21.8533 74.3319 21.6 75.6386 21.6C77.3986 21.6 78.9719 21.9733 80.3586 22.72C81.7453 23.4667 82.8119 24.5467 83.5586 25.96C84.2253 24.6267 85.2653 23.5733 86.6786 22.8C88.0919 22 89.6119 21.6 91.2386 21.6ZM132.801 21.6C134.534 21.6 136.081 21.96 137.441 22.68C138.828 23.4 139.908 24.4667 140.681 25.88C141.481 27.2933 141.881 29 141.881 31V44H137.361V31.68C137.361 29.7067 136.868 28.2 135.881 27.16C134.894 26.0933 133.548 25.56 131.841 25.56C130.134 25.56 128.774 26.0933 127.761 27.16C126.774 28.2 126.281 29.7067 126.281 31.68V44H121.761V31.68C121.761 29.7067 121.268 28.2 120.281 27.16C119.294 26.0933 117.948 25.56 116.241 25.56C114.534 25.56 113.174 26.0933 112.161 27.16C111.174 28.2 110.681 29.7067 110.681 31.68V44H106.121V21.96H110.681V24.48C111.428 23.5733 112.374 22.8667 113.521 22.36C114.668 21.8533 115.894 21.6 117.201 21.6C118.961 21.6 120.534 21.9733 121.921 22.72C123.308 23.4667 124.374 24.5467 125.121 25.96C125.788 24.6267 126.828 23.5733 128.241 22.8C129.654 22 131.174 21.6 132.801 21.6ZM167.884 32.44C167.884 33.2667 167.83 34.0133 167.724 34.68H150.884C151.017 36.44 151.67 37.8533 152.844 38.92C154.017 39.9867 155.457 40.52 157.164 40.52C159.617 40.52 161.35 39.4933 162.364 37.44H167.284C166.617 39.4667 165.404 41.1333 163.644 42.44C161.91 43.72 159.75 44.36 157.164 44.36C155.057 44.36 153.164 43.8933 151.484 42.96C149.83 42 148.524 40.6667 147.564 38.96C146.63 37.2267 146.164 35.2267 146.164 32.96C146.164 30.6933 146.617 28.7067 147.524 27C148.457 25.2667 149.75 23.9333 151.404 23C153.084 22.0667 155.004 21.6 157.164 21.6C159.244 21.6 161.097 22.0533 162.724 22.96C164.35 23.8667 165.617 25.1467 166.524 26.8C167.43 28.4267 167.884 30.3067 167.884 32.44ZM163.124 31C163.097 29.32 162.497 27.9733 161.324 26.96C160.15 25.9467 158.697 25.44 156.964 25.44C155.39 25.44 154.044 25.9467 152.924 26.96C151.804 27.9467 151.137 29.2933 150.924 31H163.124ZM176.931 25.16C177.598 24.04 178.478 23.1733 179.571 22.56C180.691 21.92 182.011 21.6 183.531 21.6V26.32H182.371C180.584 26.32 179.224 26.7733 178.291 27.68C177.384 28.5867 176.931 30.16 176.931 32.4V44H172.371V21.96H176.931V25.16Z" fill="white"/>
<defs>
<filter id="filter0_d_32_316" x="0" y="3" width="195" height="65" filterUnits="userSpaceOnUse" color-interpolation-filters="sRGB">
<feFlood flood-opacity="0" result="BackgroundImageFix"/>
<feColorMatrix in="SourceAlpha" type="matrix" values="0 0 0 0 0 0 0 0 0 0 0 0 0 0 0 0 0 0 127 0" result="hardAlpha"/>
<feOffset dy="4"/>
<feGaussianBlur stdDeviation="2"/>
<feComposite in2="hardAlpha" operator="out"/>
<feColorMatrix type="matrix" values="0 0 0 0 0 0 0 0 0 0 0 0 0 0 0 0 0 0 0.25 0"/>
<feBlend mode="normal" in2="BackgroundImageFix" result="effect1_dropShadow_32_316"/>
<feBlend mode="normal" in="SourceGraphic" in2="effect1_dropShadow_32_316" result="shape"/>
</filter>
</defs>
</svg>
